<?xml version="1.0" encoding="utf-8"?>
<!-- Generator: Adobe Illustrator 21.0.2, SVG Export Plug-In . SVG Version: 6.00 Build 0)  -->
<svg version="1.1" id="Layer_1" onload="animate" xmlns="http://www.w3.org/2000/svg" xmlns:xlink="http://www.w3.org/1999/xlink"
	 x="0px" y="0px" viewBox="0 0 733 571" style="enable-background:new 0 0 733 571;" xml:space="preserve">
<style type="text/css">
	.st0{fill:none;}
	.st1{fill:#999999;}
	.st2{fill:#C1272D;stroke:#000000;stroke-width:5;stroke-miterlimit:10;}
	.st3{fill:#FFFFFF;stroke:#000000;stroke-width:5;stroke-miterlimit:10;}
	.st4{fill:url(#SVGID_7_);stroke:#000000;stroke-width:4;stroke-miterlimit:10;}
	.st5{fill:#FFFFFF;stroke:#000000;stroke-width:4;stroke-miterlimit:10;}
	.st6{fill:#C1272D;stroke:#000000;stroke-width:4;stroke-miterlimit:10;}
	.st7{fill:#FFFFFF;stroke:#000000;stroke-width:3;stroke-miterlimit:10;}
	.st8{fill:#C1272D;stroke:#000000;stroke-width:3;stroke-miterlimit:10;}
	.st9{fill:url(#SVGID_8_);stroke:#000000;stroke-width:3;stroke-miterlimit:10;}
	.st10{fill:#FFFFFF;stroke:#000000;stroke-width:2;stroke-linecap:round;stroke-linejoin:round;stroke-miterlimit:10;}
	.st11{fill:#FFFFFF;stroke:#000000;stroke-width:2;stroke-miterlimit:10;}
	.st12{fill:url(#SVGID_9_);stroke:#000000;stroke-width:2;stroke-miterlimit:10;}
	.st13{fill:none;stroke:#000000;stroke-width:3;stroke-miterlimit:10;}
	.st14{fill:#C1272D;stroke:#000000;stroke-width:5;stroke-linecap:round;stroke-linejoin:round;stroke-miterlimit:10;}
	.st15{fill:#FFFFFF;stroke:#000000;stroke-width:5;stroke-linecap:round;stroke-linejoin:round;stroke-miterlimit:10;}
	.st16{fill:url(#SVGID_10_);stroke:#000000;stroke-width:3;stroke-miterlimit:10;}
	.st17{fill:url(#SVGID_11_);stroke:#000000;stroke-width:3;stroke-miterlimit:10;}
	.st18{fill:url(#SVGID_12_);stroke:#000000;stroke-width:4;stroke-miterlimit:10;}
	.st19{fill:url(#SVGID_13_);stroke:#000000;stroke-width:4;stroke-miterlimit:10;}
	.st20{fill:url(#SVGID_14_);stroke:#000000;stroke-width:4;stroke-miterlimit:10;}
	.st21{fill:url(#SVGID_15_);stroke:#000000;stroke-width:4;stroke-miterlimit:10;}
</style>
<pattern  y="571" width="14" height="14" patternUnits="userSpaceOnUse" id="New_Pattern_Swatch_44" viewBox="0 -14 14 14" style="overflow:visible;">
	<g>
		<rect y="-14" class="st0" width="14" height="14"/>
		<g>
			<rect y="-14" class="st0" width="14" height="14"/>
			<circle class="st1" cx="7" cy="-7" r="1.4"/>
			<path class="st1" d="M14-1.4V0h-1.4C12.6-0.8,13.2-1.4,14-1.4z"/>
			<path class="st1" d="M1.4,0H0v-1.4l0,0C0.8-1.4,1.4-0.8,1.4,0z"/>
			<path class="st1" d="M14-12.6c-0.8,0-1.4-0.6-1.4-1.4H14V-12.6z"/>
			<path class="st1" d="M0-12.6L0-12.6V-14h1.4C1.4-13.2,0.8-12.6,0-12.6z"/>
		</g>
	</g>
</pattern>
<pattern  y="571" width="14" height="14" patternUnits="userSpaceOnUse" id="SVGID_1_" viewBox="0 -14 14 14" style="overflow:visible;">
	<g>
		<rect y="-14" class="st0" width="14" height="14"/>
		<g>
			<rect y="-14" class="st0" width="14" height="14"/>
			<circle class="st1" cx="7" cy="-7" r="1.4"/>
			<path class="st1" d="M14-1.4V0h-1.4C12.6-0.8,13.2-1.4,14-1.4z"/>
			<path class="st1" d="M1.4,0H0v-1.4l0,0C0.8-1.4,1.4-0.8,1.4,0z"/>
			<path class="st1" d="M14-12.6c-0.8,0-1.4-0.6-1.4-1.4H14V-12.6z"/>
			<path class="st1" d="M0-12.6L0-12.6V-14h1.4C1.4-13.2,0.8-12.6,0-12.6z"/>
		</g>
	</g>
</pattern>
<pattern  y="571" width="14" height="14" patternUnits="userSpaceOnUse" id="SVGID_2_" viewBox="0 -14 14 14" style="overflow:visible;">
	<g>
		<rect y="-14" class="st0" width="14" height="14"/>
		<g>
			<rect y="-14" class="st0" width="14" height="14"/>
			<circle class="st1" cx="7" cy="-7" r="1.4"/>
			<path class="st1" d="M14-1.4V0h-1.4C12.6-0.8,13.2-1.4,14-1.4z"/>
			<path class="st1" d="M1.4,0H0v-1.4l0,0C0.8-1.4,1.4-0.8,1.4,0z"/>
			<path class="st1" d="M14-12.6c-0.8,0-1.4-0.6-1.4-1.4H14V-12.6z"/>
			<path class="st1" d="M0-12.6L0-12.6V-14h1.4C1.4-13.2,0.8-12.6,0-12.6z"/>
		</g>
	</g>
</pattern>
<pattern  y="571" width="14" height="14" patternUnits="userSpaceOnUse" id="SVGID_3_" viewBox="0 -14 14 14" style="overflow:visible;">
	<g>
		<rect y="-14" class="st0" width="14" height="14"/>
		<g>
			<rect y="-14" class="st0" width="14" height="14"/>
			<circle class="st1" cx="7" cy="-7" r="1.4"/>
			<path class="st1" d="M14-1.4V0h-1.4C12.6-0.8,13.2-1.4,14-1.4z"/>
			<path class="st1" d="M1.4,0H0v-1.4l0,0C0.8-1.4,1.4-0.8,1.4,0z"/>
			<path class="st1" d="M14-12.6c-0.8,0-1.4-0.6-1.4-1.4H14V-12.6z"/>
			<path class="st1" d="M0-12.6L0-12.6V-14h1.4C1.4-13.2,0.8-12.6,0-12.6z"/>
		</g>
	</g>
</pattern>
<pattern  y="571" width="14" height="14" patternUnits="userSpaceOnUse" id="SVGID_4_" viewBox="0 -14 14 14" style="overflow:visible;">
	<g>
		<rect y="-14" class="st0" width="14" height="14"/>
		<g>
			<rect y="-14" class="st0" width="14" height="14"/>
			<circle class="st1" cx="7" cy="-7" r="1.4"/>
			<path class="st1" d="M14-1.4V0h-1.4C12.6-0.8,13.2-1.4,14-1.4z"/>
			<path class="st1" d="M1.4,0H0v-1.4l0,0C0.8-1.4,1.4-0.8,1.4,0z"/>
			<path class="st1" d="M14-12.6c-0.8,0-1.4-0.6-1.4-1.4H14V-12.6z"/>
			<path class="st1" d="M0-12.6L0-12.6V-14h1.4C1.4-13.2,0.8-12.6,0-12.6z"/>
		</g>
	</g>
</pattern>
<pattern  y="571" width="14" height="14" patternUnits="userSpaceOnUse" id="SVGID_5_" viewBox="0 -14 14 14" style="overflow:visible;">
	<g>
		<rect y="-14" class="st0" width="14" height="14"/>
		<g>
			<rect y="-14" class="st0" width="14" height="14"/>
			<circle class="st1" cx="7" cy="-7" r="1.4"/>
			<path class="st1" d="M14-1.4V0h-1.4C12.6-0.8,13.2-1.4,14-1.4z"/>
			<path class="st1" d="M1.4,0H0v-1.4l0,0C0.8-1.4,1.4-0.8,1.4,0z"/>
			<path class="st1" d="M14-12.6c-0.8,0-1.4-0.6-1.4-1.4H14V-12.6z"/>
			<path class="st1" d="M0-12.6L0-12.6V-14h1.4C1.4-13.2,0.8-12.6,0-12.6z"/>
		</g>
	</g>
</pattern>
<pattern  y="571" width="14" height="14" patternUnits="userSpaceOnUse" id="SVGID_6_" viewBox="0 -14 14 14" style="overflow:visible;">
	<g>
		<rect y="-14" class="st0" width="14" height="14"/>
		<g>
			<rect y="-14" class="st0" width="14" height="14"/>
			<circle class="st1" cx="7" cy="-7" r="1.4"/>
			<path class="st1" d="M14-1.4V0h-1.4C12.6-0.8,13.2-1.4,14-1.4z"/>
			<path class="st1" d="M1.4,0H0v-1.4l0,0C0.8-1.4,1.4-0.8,1.4,0z"/>
			<path class="st1" d="M14-12.6c-0.8,0-1.4-0.6-1.4-1.4H14V-12.6z"/>
			<path class="st1" d="M0-12.6L0-12.6V-14h1.4C1.4-13.2,0.8-12.6,0-12.6z"/>
		</g>
	</g>
</pattern>
<g id="Layer_4">
	<path class="st2" d="M302.6,567.2L302.6,567.2c-6.9,0-12.4-5.6-12.4-12.4V467c0-6.9,5.6-12.4,12.4-12.4l0,0
		c6.9,0,12.4,5.6,12.4,12.4v87.8C315,561.6,309.4,567.2,302.6,567.2z"/>
	<path class="st2" d="M18.4,567.2L18.4,567.2c-6.9,0-12.4-5.6-12.4-12.4V467c0-6.9,5.6-12.4,12.4-12.4l0,0c6.9,0,12.4,5.6,12.4,12.4
		v87.8C30.8,561.6,25.3,567.2,18.4,567.2z"/>
	<path class="st2" d="M302.6,515.5H18.4c-6.9,0-12.4-5.6-12.4-12.4V27c0-6.9,5.6-12.4,12.4-12.4h284.2c6.9,0,12.4,5.6,12.4,12.4
		v476.1C315,509.9,309.4,515.5,302.6,515.5z"/>
	<path class="st3" d="M281.8,474.1H42.2c-7,0-12.7-5.7-12.7-12.7v-98.2c0-7,5.7-12.7,12.7-12.7h239.5c7,0,12.7,5.7,12.7,12.7v98.2
		C294.5,468.3,288.8,474.1,281.8,474.1z"/>
	<path class="st3" d="M281.8,333.4H42.2c-7,0-12.7-5.7-12.7-12.7v-105c0-7,5.7-12.7,12.7-12.7h239.5c7,0,12.7,5.7,12.7,12.7v105
		C294.5,327.6,288.8,333.4,281.8,333.4z"/>
	<path class="st3" d="M277.6,180.1H42.2c-7,0-12.7-5.7-12.7-12.7v-105c0-7,5.7-12.7,12.7-12.7h235.4c7,0,12.7,5.7,12.7,12.7v105
		C290.4,174.4,284.7,180.1,277.6,180.1z"/>
	<g>
		<path class="st2" d="M377.8,560h-28c-2.8,0-5-2.2-5-5v-84.4c0-2.8,2.2-5,5-5h28c2.8,0,5,2.2,5,5V555
			C382.8,557.7,380.5,560,377.8,560z"/>
		<path class="st2" d="M389.2,557.1c0,9.7-25.5,8.3-25.5,8.3s-25.5,1.4-25.5-8.3s11.4-17.5,25.5-17.5S389.2,547.5,389.2,557.1z"/>
	</g>
	<g>
		<path class="st2" d="M435.8,560h-28c-2.8,0-5-2.2-5-5v-84.4c0-2.8,2.2-5,5-5h28c2.8,0,5,2.2,5,5V555
			C440.8,557.7,438.5,560,435.8,560z"/>
		<path class="st2" d="M447.2,557.1c0,9.7-25.5,8.3-25.5,8.3s-25.5,1.4-25.5-8.3s11.4-17.5,25.5-17.5S447.2,547.5,447.2,557.1z"/>
	</g>
	<pattern  id="SVGID_7_" xlink:href="#New_Pattern_Swatch_44" patternTransform="matrix(1 0 0 -1 -188 -16374)">
	</pattern>
	<path class="st4" d="M275,174.1h-14c-2.8,0-5-2.2-5-5V66c0-2.8,2.2-5,5-5h14c2.8,0,5,2.2,5,5v103.1
		C280,171.9,277.8,174.1,275,174.1z"/>
	<path class="st5" d="M244,174.1h-13c-2.8,0-5-2.2-5-5V85c0-2.8,2.2-5,5-5h13c2.8,0,5,2.2,5,5v84.1C249,171.9,246.8,174.1,244,174.1
		z"/>
	<path class="st6" d="M213.4,174.1h-5.7c-2.6,0-4.6-2.1-4.6-4.6V93.6c0-2.6,2.1-4.6,4.6-4.6h5.7c2.6,0,4.6,2.1,4.6,4.6v75.9
		C218,172.1,215.9,174.1,213.4,174.1z"/>
	<path class="st7" d="M186,173.5h-69c-2.8,0-5-2.2-5-5v-28.8c0-2.8,2.2-5,5-5h69c2.8,0,5,2.2,5,5v28.8
		C191,171.2,188.8,173.5,186,173.5z"/>
	<path class="st8" d="M192,143c0,11.3-81,11.3-81,0s18.1-20.4,40.5-20.4S192,131.7,192,143z"/>
	<g>
		<path class="st7" d="M562.5,252.8H341c-2.8,0-5-2.2-5-5v-7.3c0-2.8,2.2-5,5-5h221.5c2.8,0,5,2.2,5,5v7.3
			C567.5,250.6,565.2,252.8,562.5,252.8z"/>
		<g>
			<path class="st8" d="M579.5,304.6c-11.6,21.3-32.3,25.3-50.4,15.4c-18-9.8-26.9-28.5-15.2-49.8c8.6-15.8,21.2-34.3,30.9-23.2
				c11.4,13-1.4,30.6,32.2,18.7C597.2,258.5,586.3,292.1,579.5,304.6z"/>
			<ellipse transform="matrix(0.479 -0.8778 0.8778 0.479 38.5975 611.0173)" class="st7" cx="534" cy="273" rx="11" ry="6.2"/>
			<ellipse transform="matrix(0.479 -0.8778 0.8778 0.479 39.9402 649.324)" class="st7" cx="567" cy="291" rx="11" ry="6.2"/>
		</g>
		<g>
			
				<pattern  id="SVGID_8_" xlink:href="#SVGID_1_" patternTransform="matrix(0.8534 0.5213 0.5213 -0.8534 -1506.4756 -13958.8652)">
			</pattern>
			<path class="st9" d="M481.2,317.9c-11.8,9.8-19.3,15.8-25.1,1.9c-3-7,10.3-20.9-26.2-33.8c-10.4-3.7-11.4-16.8,0.8-27
				c13.9-11.5,32.4-24,37.8-9.6c6.3,16.9-12.2,28.5,24.2,30.6C514.4,281.4,492.2,308.8,481.2,317.9z"/>
			<path class="st7" d="M481.7,318.4c-11.8,9.8-19.3,15.8-25.1,1.9c-3-7,10.3-20.9-26.2-33.8c-10.4-3.7-11.4-16.8,0.8-27
				c13.9-11.5,32.4-24,37.8-9.6c6.3,16.9-12.2,28.5,24.2,30.6C514.9,281.8,492.7,309.3,481.7,318.4z"/>
			
				<ellipse transform="matrix(0.7405 -0.6721 0.6721 0.7405 -78.0336 395.372)" class="st7" cx="472.9" cy="298.7" rx="6.5" ry="11"/>
			
				<ellipse transform="matrix(0.7405 -0.6721 0.6721 0.7405 -65.8888 372.3699)" class="st7" cx="449.2" cy="271.5" rx="6.5" ry="11"/>
		</g>
		<circle class="st7" cx="541" cy="245.1" r="5.5"/>
		<circle class="st7" cx="463.5" cy="244.3" r="5.5"/>
		<g>
			<g>
				<path class="st10" d="M388.8,259.4l-19.9-3c0,0,1.6-7,3.9-10.7s5.7-4.5,8.4-4.2c2.9,0.4,5.5,1.2,6.8,5.8
					C389.1,251,388.8,259.4,388.8,259.4z"/>
				<path class="st10" d="M386.5,259.5l-15.3-2.3c0,0,1.3-5.7,3.1-8.7c1.8-3,4.4-3.7,6.5-3.4c2.2,0.3,4.2,0.9,5.2,4.7
					C386.7,252.8,386.5,259.5,386.5,259.5z"/>
			</g>
			<g>
				<path class="st10" d="M372.4,258.6l-19.2,5.9c0,0-1.6-7-1.1-11.4s3.2-6.5,5.8-7.4c2.7-0.9,5.5-1.3,8.6,2.3
					C369,250.9,372.4,258.6,372.4,258.6z"/>
				<path class="st10" d="M370.4,259.8l-14.8,4.5c0,0-1.3-5.7-1-9.2c0.3-3.5,2.4-5.2,4.4-5.9c2.1-0.7,4.2-1,6.7,2
					C367.6,253.6,370.4,259.8,370.4,259.8z"/>
			</g>
			<g>
				<path class="st10" d="M358.2,264.6l-14.4,14c0,0-4.6-5.5-6.2-9.6s-0.2-7.2,1.7-9.2c2-2.1,4.3-3.7,8.7-1.9
					C351.6,259.3,358.2,264.6,358.2,264.6z"/>
				<path class="st10" d="M356.9,266.6l-11.1,10.8c0,0-3.8-4.4-5.1-7.7c-1.3-3.3-0.3-5.7,1.2-7.2c1.5-1.6,3.3-2.8,6.9-1.3
					C351.6,262.3,356.9,266.6,356.9,266.6z"/>
			</g>
			<g>
				<path class="st10" d="M348.3,273.5l-3.2,19.9c0,0-7-1.7-10.7-4c-3.7-2.4-4.4-5.7-4.1-8.4c0.4-2.8,1.3-5.5,5.9-6.7
					C339.9,273.2,348.3,273.5,348.3,273.5z"/>
				<path class="st10" d="M348.5,275.9l-2.5,15.3c0,0-5.7-1.3-8.7-3.2c-3-1.8-3.6-4.4-3.4-6.5c0.3-2.2,1-4.2,4.7-5.2
					C341.7,275.6,348.5,275.9,348.5,275.9z"/>
			</g>
			<g>
				<path class="st10" d="M388.6,274.6l-10.9-16.9c0,0,6.3-3.5,10.6-4.2c4.3-0.7,7.1,1.3,8.7,3.5c1.6,2.4,2.8,4.9,0.1,9
					C395,269.2,388.6,274.6,388.6,274.6z"/>
				<path class="st10" d="M386.8,272.9l-8.4-13c0,0,5.1-2.8,8.5-3.5c3.5-0.7,5.7,0.9,6.9,2.6c1.2,1.8,2.1,3.8,0,7
					C392.1,268.6,386.8,272.9,386.8,272.9z"/>
			</g>
			<g>
				<path class="st10" d="M392.8,293.3l-14.3-14.1c0,0,5.4-4.7,9.5-6.4c4.1-1.7,7.2-0.3,9.2,1.5c2.1,2,3.8,4.2,2.1,8.7
					C397.9,286.6,392.8,293.3,392.8,293.3z"/>
				<path class="st10" d="M390.7,292l-11-10.9c0,0,4.3-3.9,7.6-5.2c3.3-1.4,5.7-0.4,7.3,1c1.6,1.5,2.9,3.2,1.5,6.8
					C394.9,286.6,390.7,292,390.7,292z"/>
			</g>
			<g>
				<path class="st10" d="M409.1,302.6l-16.3-11.8c0,0,4.6-5.5,8.4-7.8c3.8-2.2,7.1-1.4,9.4,0.1c2.4,1.6,4.4,3.6,3.4,8.3
					C413.1,295.3,409.1,302.6,409.1,302.6z"/>
				<path class="st10" d="M406.9,301.7l-12.5-9.1c0,0,3.7-4.5,6.7-6.3c3-1.9,5.6-1.2,7.3-0.1c1.8,1.3,3.3,2.8,2.5,6.5
					C410.2,295.8,406.9,301.7,406.9,301.7z"/>
			</g>
			<g>
				<path class="st10" d="M413.8,313.7l-4.8-19.5c0,0,7.1-1.2,11.4-0.5s6.3,3.5,7,6.2c0.8,2.8,1,5.6-2.8,8.5
					C421.6,310.7,413.8,313.7,413.8,313.7z"/>
				<path class="st10" d="M412.7,311.6l-3.7-15c0,0,5.7-1,9.2-0.5s5.1,2.7,5.6,4.7c0.6,2.1,0.8,4.3-2.3,6.6
					C419.1,309.2,412.7,311.6,412.7,311.6z"/>
			</g>
			<g>
				<path class="st10" d="M401,318.8l12.7-15.6c0,0,5.2,4.9,7.3,8.8c2,3.9,1,7.2-0.7,9.3c-1.7,2.3-3.8,4.2-8.5,2.9
					C408.2,323.3,401,318.8,401,318.8z"/>
				<path class="st10" d="M402.1,316.7l9.8-12c0,0,4.3,4,5.9,7c1.7,3.1,0.9,5.6-0.3,7.3c-1.4,1.7-3,3.2-6.7,2.1
					C407.8,320.3,402.1,316.7,402.1,316.7z"/>
			</g>
			<g>
				<path class="st10" d="M389.1,329.3l15.6-12.7c0,0,4.1,5.9,5.3,10.1c1.2,4.2-0.5,7.2-2.5,9c-2.2,1.9-4.6,3.3-8.9,1.1
					C395.1,335.1,389.1,329.3,389.1,329.3z"/>
				<path class="st10" d="M390.5,327.4l12-9.8c0,0,3.4,4.7,4.4,8.1s-0.2,5.7-1.8,7.1c-1.7,1.4-3.5,2.5-7,0.7
					C395.4,332.1,390.5,327.4,390.5,327.4z"/>
			</g>
			<g>
				<path class="st10" d="M374,332.2l20.1-1.2c0,0-0.1,7.2-1.6,11.3c-1.5,4.1-4.6,5.6-7.3,5.8c-2.9,0.3-5.7,0-7.9-4.3
					C375.5,340.5,374,332.2,374,332.2z"/>
				<path class="st10" d="M376.3,331.6l15.4-0.9c0,0,0,5.8-1.2,9.1c-1.1,3.3-3.5,4.5-5.6,4.7c-2.2,0.2-4.3,0-6.1-3.5
					C377.5,338.2,376.3,331.6,376.3,331.6z"/>
			</g>
			<g>
				<path class="st10" d="M368,323l14.4,14c0,0-5.4,4.8-9.4,6.5c-4.1,1.7-7.2,0.4-9.2-1.5c-2.1-1.9-3.8-4.2-2.1-8.7
					C362.9,329.7,368,323,368,323z"/>
				<path class="st10" d="M370,324.3l11.1,10.8c0,0-4.3,3.9-7.5,5.3s-5.7,0.4-7.3-1c-1.6-1.5-2.9-3.2-1.5-6.8
					C365.9,329.7,370,324.3,370,324.3z"/>
			</g>
			<g>
				<path class="st10" d="M375.8,309.7l-2.2,20c0,0-7.1-1.3-10.9-3.5s-4.7-5.5-4.5-8.2c0.2-2.9,1-5.6,5.6-7
					C367.4,309.8,375.8,309.7,375.8,309.7z"/>
				<path class="st10" d="M376,312.1l-1.7,15.4c0,0-5.7-1-8.8-2.7c-3.1-1.7-3.8-4.2-3.7-6.3c0.2-2.2,0.8-4.3,4.5-5.4
					C369.2,312.2,376,312.1,376,312.1z"/>
			</g>
			<g>
				<path class="st10" d="M354.9,292.1l15.7,12.6c0,0-4.9,5.2-8.8,7.3c-3.9,2-7.2,1-9.3-0.6c-2.3-1.7-4.2-3.8-2.9-8.5
					C350.4,299.3,354.9,292.1,354.9,292.1z"/>
				<path class="st10" d="M357,293.2l12,9.7c0,0-3.9,4.3-7,5.9c-3.1,1.7-5.6,0.9-7.3-0.3c-1.7-1.3-3.2-2.9-2.1-6.7
					C353.4,298.9,357,293.2,357,293.2z"/>
			</g>
			<g>
				<path class="st10" d="M344.4,280.8l12.3,15.9c0,0-6,4-10.2,5.1c-4.3,1.1-7.2-0.7-8.9-2.7c-1.8-2.2-3.2-4.7-0.9-8.9
					C338.4,286.7,344.4,280.8,344.4,280.8z"/>
				<path class="st10" d="M346.2,282.3l9.5,12.2c0,0-4.8,3.2-8.2,4.2c-3.4,1-5.7-0.4-7.1-2c-1.4-1.7-2.4-3.6-0.6-7
					C341.4,287.1,346.2,282.3,346.2,282.3z"/>
			</g>
			<g>
				<path class="st7" d="M402.3,323.9c-14.9,15.6-31.8,20.5-35.6,5.8c-1.9-7.4,13.2-19.2-21.2-37.2c-9.8-5.1-2.9-19.8,8.6-30.8
					c9.4-9,31.5-15,34.7,0c3.8,17.6-13.8,19.3,19.6,33.7C427.4,303.8,414.6,311,402.3,323.9z"/>
				
					<ellipse transform="matrix(0.828 -0.5607 0.5607 0.828 -108.0403 270.1595)" class="st7" cx="386.4" cy="311.2" rx="6.5" ry="11"/>
				<ellipse transform="matrix(0.828 -0.5607 0.5607 0.828 -94.4918 253.9512)" class="st7" cx="366.7" cy="281" rx="6.5" ry="11"/>
			</g>
		</g>
		<circle class="st7" cx="380.4" cy="244.2" r="5.5"/>
	</g>
	<g>
		<g>
			<path class="st8" d="M121.7,267.9c0-11,2.8-23.2-3.5-30.1c-2.5-2.7-6.6-4.5-11.2-5.7v-10.9c0-0.5-0.1-1.1-0.3-1.5
				c0.2-0.4,0.3-0.8,0.3-1.2c0-3.7-7.8-6.7-17.4-6.7s-17.4,3-17.4,6.7c0,0.4,0.1,0.8,0.3,1.2c-0.2,0.5-0.3,1-0.3,1.5v9.6
				c-5,0.7-9.6,2.2-12.2,5.3c-5.8,6.8-1.9,21.4-1.9,31.8c0,14.9,7.3,27.8,17.9,33.9v14.7H63c-2.8,0-5,2.2-5,5v0.7c0,2.8,2.2,5,5,5
				h50c2.8,0,5-2.2,5-5v-0.7c0-2.8-2.2-5-5-5h-11v-13.8C113.5,297.1,121.7,283.6,121.7,267.9z"/>
			<ellipse class="st8" cx="89.6" cy="218.5" rx="17.4" ry="6.2"/>
		</g>
		<circle class="st11" cx="68.4" cy="234.6" r="4.6"/>
		<circle class="st11" cx="70" cy="243.8" r="4.6"/>
		<circle class="st11" cx="77.8" cy="260.2" r="4.6"/>
		<circle class="st11" cx="73.5" cy="252.1" r="4.6"/>
		<circle class="st11" cx="84" cy="268.1" r="4.6"/>
		<circle class="st11" cx="93.9" cy="269" r="4.6"/>
		<circle class="st11" cx="102.5" cy="263.9" r="4.6"/>
		<circle class="st11" cx="106.2" cy="254.7" r="4.6"/>
		<circle class="st11" cx="109.1" cy="245" r="4.6"/>
		<circle class="st11" cx="110.2" cy="234.8" r="4.6"/>
	</g>
	<pattern  id="SVGID_9_" xlink:href="#New_Pattern_Swatch_44" patternTransform="matrix(1 0 0 -1 -188 -16374)">
	</pattern>
	<path class="st12" d="M275.3,327.9H166c-4.4,0-8-3.6-8-8v-36.8c0-4.4,3.6-8,8-8h109.3c4.4,0,8,3.6,8,8V320
		C283.2,324.4,279.7,327.9,275.3,327.9z"/>
	<path class="st13" d="M275,272.1h-65.1c-2.8,0-5-2.2-5-5v-19.9c0-2.8,2.2-5,5-5H275c2.8,0,5,2.2,5,5v19.9
		C280,269.9,277.8,272.1,275,272.1z"/>
</g>
<g id="Layer_3">
	<g id="Purses">
		<g>
			<path class="st14" d="M108.8,424.9l-50.6-0.5c0,0,1.5-20.6,5.9-32.2c4.5-11.6,12.6-15.1,19.4-15.3c7.2-0.2,14.2,1.2,19,13.9
				C106.4,400.8,108.8,424.9,108.8,424.9z"/>
			<path class="st15" d="M102.9,426.4L64,425.9c0,0,1.1-16.7,4.6-26c3.5-9.4,9.6-12.2,14.9-12.4c5.5-0.1,10.9,0.9,14.6,11.2
				C101.1,406.9,102.9,426.4,102.9,426.4z"/>
		</g>
		<g id="Wig">
			<path class="st7" d="M123.8,450c0,26.1-80.6,26.1-80.6,0s18-47.2,40.3-47.2S123.8,423.9,123.8,450z"/>
			<pattern  id="SVGID_10_" xlink:href="#SVGID_2_" patternTransform="matrix(1 0 0 -1 -188 -16375)">
			</pattern>
			<path class="st16" d="M123.8,450c0,3.3-1.3,6.1-3.5,8.6c-12.6,14-56.3,14.6-71.7,1.9c-3.4-2.8-5.4-6.3-5.4-10.4
				c0-26.1,18-47.2,40.3-47.2S123.8,423.9,123.8,450z"/>
		</g>
		<g>
			<path class="st15" d="M253.8,435.6l-77-0.5c0,0,2.2-20.6,9-32.2s19.1-15.1,29.5-15.3c11-0.2,21.6,1.2,28.9,13.9
				C250,411.5,253.8,435.6,253.8,435.6z"/>
			<path class="st15" d="M244.8,437.1l-59.2-0.5c0,0,1.7-16.7,7-26c5.3-9.4,14.7-12.2,22.7-12.4c8.4-0.1,16.6,0.9,22.2,11.2
				C242,417.6,244.8,437.1,244.8,437.1z"/>
		</g>
		<path class="st8" d="M283.2,449.8l-1.7,21.2H150.2l-3-21.2c0,0,30.4-41.2,68-41.2S283.2,449.8,283.2,449.8z"/>
		<g>
			<polygon class="st7" points="283.2,454.4 281.5,471.5 150.2,471.5 147.2,454.4 			"/>
		</g>
		<g>
			<path class="st7" d="M562.5,158.3H341c-2.8,0-5-2.2-5-5V146c0-2.8,2.2-5,5-5h221.5c2.8,0,5,2.2,5,5v7.3
				C567.5,156.1,565.2,158.3,562.5,158.3z"/>
			<g>
				<path class="st8" d="M427.5,130.6h-73c-2.8,0-5-2.2-5-5c0,0,24.2-80,27-80l51-31c2.8,0,5,2.2,5,5l-26,53l26,53
					C432.5,128.3,430.2,130.6,427.5,130.6z"/>
				<ellipse class="st8" cx="392.2" cy="132" rx="56.2" ry="5"/>
			</g>
			<g>
				<path class="st10" d="M515.6,130.5l-27.2-0.2c0,0,0.8-9.1,3.2-14.2c2.4-5.1,6.8-6.7,10.4-6.8c3.9-0.1,7.6,0.5,10.2,6.1
					C514.3,119.8,515.6,130.5,515.6,130.5z"/>
				<path class="st10" d="M515.6,130.5l-24.1,0.5c0,0,0.6-7.4,2.5-11.5c1.9-4.2,5.2-5.4,8-5.5c3,0,5.9,0.4,7.9,5
					C511.4,122.5,515.6,130.5,515.6,130.5z"/>
			</g>
			<g>
				<path class="st10" d="M532.6,130.7l-20.1-0.2c0,0,0.6-7.2,2.4-11.2c1.8-4,5-5.2,7.7-5.3c2.9-0.1,5.6,0.4,7.5,4.8
					C531.6,122.3,532.6,130.7,532.6,130.7z"/>
				<path class="st10" d="M530.2,131.2l-15.5-0.2c0,0,0.4-5.8,1.8-9c1.4-3.3,3.8-4.2,5.9-4.3c2.2,0,4.3,0.3,5.8,3.9
					C529.5,124.4,530.2,131.2,530.2,131.2z"/>
			</g>
			<g>
				<path class="st10" d="M490.5,130.4l-20.1-0.2c0,0,0.6-7.2,2.4-11.2s5-5.2,7.7-5.3c2.9-0.1,5.6,0.4,7.5,4.8
					C489.5,122.1,490.5,130.4,490.5,130.4z"/>
				<path class="st10" d="M488.2,130.9l-15.5-0.2c0,0,0.4-5.8,1.8-9c1.4-3.3,3.8-4.2,5.9-4.3c2.2,0,4.3,0.3,5.8,3.9
					C487.4,124.2,488.2,130.9,488.2,130.9z"/>
			</g>
			<path class="st7" d="M536,137.5h-67c-2.8,0-5-2.2-5-5v-1.9c0-2.8,2.2-5,5-5h67c2.8,0,5,2.2,5,5v1.9
				C541,135.2,538.8,137.5,536,137.5z"/>
			<pattern  id="SVGID_11_" xlink:href="#SVGID_3_" patternTransform="matrix(1 0 0 -1 -188.5274 -16363.5508)">
			</pattern>
			<path class="st17" d="M535.5,137h-67c-2.8,0-5-2.2-5-5v-1.9c0-2.7,2.2-5,5-5h67c2.8,0,5,2.2,5,5v1.9
				C540.5,134.8,538.2,137,535.5,137z"/>
		</g>
	</g>
	<g id="Coat_Rack">
		<pattern  id="SVGID_12_" xlink:href="#SVGID_4_" patternTransform="matrix(1 0 0 -1.0927 -197.125 -17794.5488)">
		</pattern>
		<path class="st18" d="M665.9,550.8h-5c-2.8,0-5-2.2-5-5V128.6c0-2.8,2.2-5,5-5h5c2.8,0,5,2.2,5,5v417.2
			C670.9,548.5,668.6,550.8,665.9,550.8z"/>
		
			<pattern  id="SVGID_13_" xlink:href="#SVGID_5_" patternTransform="matrix(6.123234e-17 1.0927 1 -6.690687e-17 -13772.6113 -771.3546)">
		</pattern>
		<path class="st19" d="M618.9,562.2v-6.4c0-2.8,2.2-5,5-5h79c2.8,0,5,2.2,5,5v6.4c0,2.8-2.2,5-5,5h-79
			C621.1,567.2,618.9,564.9,618.9,562.2z"/>
		
			<pattern  id="SVGID_14_" xlink:href="#SVGID_6_" patternTransform="matrix(6.123234e-17 1.0927 0.873 -5.840918e-17 -13997.3643 -765.4968)">
		</pattern>
		<path class="st20" d="M671.2,221.7v-6.4c0-2.8,2.2-5,5-5h39.3c2.8,0,5,2.2,5,5v6.4c0,2.8-2.2,5-5,5h-39.3
			C673.5,226.7,671.2,224.4,671.2,221.7z"/>
		<path class="st5" d="M650.5,180.5h-40.3v-36.6c0-3-2.2-5.5-5-5.5h-2.7c-2.8,0-5,2.5-5,5.5v47.6c0,3,2.2,5.5,5,5.5h2.7
			c0.3,0,0.5,0,0.8-0.1h44.5c2.8,0,5-2.5,5-5.5v-5.5C655.5,182.9,653.3,180.5,650.5,180.5z"/>
		<path class="st6" d="M708.9,394.9h-26c-2.8,0-5-2.2-5-5V207c0-2.8,2.2-5,5-5h26c2.8,0,5,2.2,5,5v182.9
			C713.9,392.7,711.7,394.9,708.9,394.9z"/>
	</g>
	<g>
		<ellipse class="st5" cx="592.5" cy="193.6" rx="49.5" ry="62"/>
		<pattern  id="SVGID_15_" xlink:href="#New_Pattern_Swatch_44" patternTransform="matrix(1 0 0 -1 -188 -16374)">
		</pattern>
		<ellipse class="st21" cx="594.7" cy="195.4" rx="23.8" ry="29.9"/>
	</g>
	<rect x="679.5" y="342.2" class="st11" width="34.4" height="16.3"/>
	<rect x="679.5" y="319.4" class="st11" width="34.4" height="16.3"/>
</g>
</svg>
