<?xml version="1.0" encoding="utf-8"?>
<!-- Generator: Adobe Illustrator 21.0.2, SVG Export Plug-In . SVG Version: 6.00 Build 0)  -->
<svg version="1.1" onload="animate" xmlns="http://www.w3.org/2000/svg" xmlns:xlink="http://www.w3.org/1999/xlink" x="0px"
	 y="0px" viewBox="0 0 733 571" style="enable-background:new 0 0 733 571;" xml:space="preserve">
<style type="text/css">
	.st0{fill:none;}
	.st1{fill:#999999;}
	.st2{fill:#FFFFFF;}
	.st3{fill:#C1272D;}
	.st4{fill:url(#SVGID_1_);stroke:#000000;stroke-width:5;stroke-linecap:round;stroke-linejoin:round;stroke-miterlimit:10;}
	.st5{fill:#FFFFFF;stroke:#000000;stroke-width:5;stroke-linecap:round;stroke-linejoin:round;stroke-miterlimit:10;}
	.st6{display:none;}
	.st7{display:inline;fill:url(#SVGID_2_);}
	.st8{display:inline;}
	.st9{fill:#FFFFFF;stroke:#231F20;stroke-width:2;stroke-linecap:round;stroke-miterlimit:10;}
	.st10{fill:#C1272D;stroke:#000000;stroke-width:5;stroke-linecap:round;stroke-linejoin:round;stroke-miterlimit:10;}
	.st11{fill:url(#New_Pattern_Swatch_44);}
	.st12{fill:url(#SVGID_3_);stroke:#000000;stroke-width:5;stroke-linecap:round;stroke-linejoin:round;stroke-miterlimit:10;}
	.st13{display:inline;fill:url(#SVGID_4_);}
	.st14{fill:#FFFFFF;stroke:#000000;stroke-width:3;stroke-miterlimit:10;}
	.st15{fill:url(#SVGID_5_);stroke:#000000;stroke-width:3;stroke-miterlimit:10;}
	.st16{fill:#FFFFFF;stroke:#000000;stroke-width:2;stroke-linecap:round;stroke-linejoin:round;stroke-miterlimit:10;}
	.st17{fill:url(#SVGID_6_);stroke:#000000;stroke-width:2;stroke-miterlimit:10;}
	.st18{fill:url(#SVGID_7_);}
</style>
<pattern  x="-175" y="-224" width="14" height="14" patternUnits="userSpaceOnUse" id="New_Pattern_Swatch_44" viewBox="0 -14 14 14" style="overflow:visible;">
	<g>
		<rect y="-14" class="st0" width="14" height="14"/>
		<circle class="st1" cx="7" cy="-7" r="1.4"/>
		<path class="st1" d="M14-12.6V-14h-1.4C12.6-13.2,13.2-12.6,14-12.6z"/>
		<path class="st1" d="M1.4-14H0v1.4h0C0.8-12.6,1.4-13.2,1.4-14z"/>
		<path class="st1" d="M14-1.4c-0.8,0-1.4,0.6-1.4,1.4H14V-1.4z"/>
		<path class="st1" d="M0-1.4L0-1.4L0,0h1.4C1.4-0.8,0.8-1.4,0-1.4z"/>
	</g>
</pattern>
<g id="Dessers">
	<g id="Sign_Outline_1_">
		<path class="st2" d="M5.8,556.6c-1.4,0-2.5-1.1-2.5-2.5V383.8c0-3,2.5-5.5,5.5-5.5H34c3,0,5.5,2.5,5.5,5.5v170.3
			c0,1.4-1.1,2.5-2.5,2.5H5.8z"/>
		<path d="M34,380.8c1.7,0,3,1.3,3,3v170.3H5.8V383.8c0-1.7,1.3-3,3-3H34 M34,375.8H8.8c-4.4,0-8,3.6-8,8v170.3c0,2.8,2.2,5,5,5H37
			c2.8,0,5-2.2,5-5V383.8C42,379.4,38.4,375.8,34,375.8L34,375.8z"/>
	</g>
	<g>
		<path class="st3" d="M245.7,555.5c-10.2,0-18.6-8.3-18.6-18.6V388.2c0-10.2,8.3-18.6,18.6-18.6h233.7c10.2,0,18.6,8.3,18.6,18.6
			v148.7c0,10.2-8.3,18.6-18.6,18.6H245.7z"/>
		<path d="M479.4,372.1c8.9,0,16.1,7.2,16.1,16.1v148.7c0,8.9-7.2,16.1-16.1,16.1H245.7c-8.9,0-16.1-7.2-16.1-16.1V388.2
			c0-8.9,7.2-16.1,16.1-16.1H479.4 M479.4,367.1H245.7c-11.6,0-21.1,9.4-21.1,21.1v148.7c0,11.6,9.4,21.1,21.1,21.1h233.7
			c11.6,0,21.1-9.4,21.1-21.1V388.2C500.5,376.5,491.1,367.1,479.4,367.1L479.4,367.1z"/>
	</g>
	<g id="Sign_Outline_4_">
		<path class="st2" d="M696.8,555.3c-1.4,0-2.5-1.1-2.5-2.5V382.6c0-3,2.5-5.5,5.5-5.5H725c3,0,5.5,2.5,5.5,5.5v170.3
			c0,1.4-1.1,2.5-2.5,2.5H696.8z"/>
		<path d="M725,379.6c1.7,0,3,1.3,3,3v170.3h-31.2V382.6c0-1.7,1.3-3,3-3H725 M725,374.6h-25.2c-4.4,0-8,3.6-8,8v170.3
			c0,2.8,2.2,5,5,5H728c2.8,0,5-2.2,5-5V382.6C733,378.1,729.4,374.6,725,374.6L725,374.6z"/>
	</g>
	<g id="Sign_Outline_5_">
		<path class="st2" d="M478.5,556.6c-1.4,0-2.5-1.1-2.5-2.5V383.8c0-3,2.5-5.5,5.5-5.5h25.2c3,0,5.5,2.5,5.5,5.5v170.3
			c0,1.4-1.1,2.5-2.5,2.5H478.5z"/>
		<path d="M506.8,380.8c1.7,0,3,1.3,3,3v170.3h-31.2V383.8c0-1.7,1.3-3,3-3H506.8 M506.8,375.8h-25.2c-4.4,0-8,3.6-8,8v170.3
			c0,2.8,2.2,5,5,5h31.2c2.8,0,5-2.2,5-5V383.8C514.8,379.4,511.2,375.8,506.8,375.8L506.8,375.8z"/>
	</g>
	<g id="Sign_Outline_8_">
		<path class="st2" d="M223.5,556.6c-1.4,0-2.5-1.1-2.5-2.5V383.8c0-3,2.5-5.5,5.5-5.5h25.2c3,0,5.5,2.5,5.5,5.5v170.3
			c0,1.4-1.1,2.5-2.5,2.5H223.5z"/>
		<path d="M251.8,380.8c1.7,0,3,1.3,3,3v170.3h-31.2V383.8c0-1.7,1.3-3,3-3H251.8 M251.8,375.8h-25.2c-4.4,0-8,3.6-8,8v170.3
			c0,2.8,2.2,5,5,5h31.2c2.8,0,5-2.2,5-5V383.8C259.8,379.4,256.2,375.8,251.8,375.8L251.8,375.8z"/>
	</g>
	<g id="Sign_Outline_16_">
		<path class="st2" d="M4.8,381.9c-1.4,0-2.5-1.1-2.5-2.5v-32.3c0-3,2.5-5.5,5.5-5.5H725c3,0,5.5,2.5,5.5,5.5v32.3
			c0,1.4-1.1,2.5-2.5,2.5H4.8z"/>
		<path d="M725,344.2c1.7,0,3,1.3,3,3v32.3H4.8v-32.3c0-1.7,1.3-3,3-3H725 M725,339.2H7.8c-4.4,0-8,3.6-8,8v32.3c0,2.8,2.2,5,5,5
			H728c2.8,0,5-2.2,5-5v-32.3C733,342.7,729.4,339.2,725,339.2L725,339.2z"/>
	</g>
</g>
<g id="Mirros">
	<g id="Mirror_1">
		<pattern  id="SVGID_1_" xlink:href="#New_Pattern_Swatch_44" patternTransform="matrix(0.5588 0 0 0.591 -3286.6248 -2762.9438)">
		</pattern>
		<path class="st4" d="M186.6,127.2l-140.7-0.7c0,0,4.1-26.3,16.5-41.1S97.3,66,116.4,65.8c20.1-0.2,39.5,1.5,52.8,17.7
			C179.8,96.5,186.6,127.2,186.6,127.2z"/>
		<path class="st5" d="M170.3,129.1l-108.2-0.6c0,0,3.1-21.3,12.7-33.2s26.8-15.6,41.5-15.8c15.4-0.1,30.3,1.2,40.6,14.3
			C165.1,104.3,170.3,129.1,170.3,129.1z"/>
		<g id="Frame">
			<g>
				<path class="st3" d="M21.1,338.8c-10.2,0-18.6-8.3-18.6-18.6V115.6c0-10.2,8.3-18.6,18.6-18.6h190.3c10.2,0,18.6,8.3,18.6,18.6
					v204.6c0,10.2-8.3,18.6-18.6,18.6H21.1z"/>
				<path d="M211.4,99.6c8.9,0,16.1,7.2,16.1,16.1v204.6c0,8.9-7.2,16.1-16.1,16.1H21.1c-8.9,0-16.1-7.2-16.1-16.1V115.6
					c0-8.9,7.2-16.1,16.1-16.1H211.4 M211.4,94.6H21.1C9.4,94.6,0,104,0,115.6v204.6c0,11.6,9.4,21.1,21.1,21.1h190.3
					c11.6,0,21.1-9.4,21.1-21.1V115.6C232.5,104,223,94.6,211.4,94.6L211.4,94.6z"/>
			</g>
			<g>
				<g>
					<path class="st2" d="M56.2,305c-10.2,0-18.6-8.3-18.6-18.6V153.1c0-10.2,8.3-18.6,18.6-18.6h117.4c10.2,0,18.6,8.3,18.6,18.6
						v133.2c0,10.2-8.3,18.6-18.6,18.6H56.2z"/>
					<path d="M173.6,137.1c8.9,0,16.1,7.2,16.1,16.1v133.2c0,8.9-7.2,16.1-16.1,16.1H56.2c-8.9,0-16.1-7.2-16.1-16.1V153.1
						c0-8.9,7.2-16.1,16.1-16.1H173.6 M173.6,132.1H56.2c-11.6,0-21.1,9.4-21.1,21.1v133.2c0,11.6,9.4,21.1,21.1,21.1h117.4
						c11.6,0,21.1-9.4,21.1-21.1V153.1C194.7,141.5,185.3,132.1,173.6,132.1L173.6,132.1z"/>
				</g>
				<g class="st6">
					
						<pattern  id="SVGID_2_" xlink:href="#New_Pattern_Swatch_44" patternTransform="matrix(0.7617 0 0 0.9954 -1765.0095 -30.5012)">
					</pattern>
					<path class="st7" d="M56.1,305c-10.2,0-18.6-8.3-18.6-18.6V153.1c0-10.2,8.3-18.6,18.6-18.6h117.4c10.2,0,18.6,8.3,18.6,18.6
						v133.2c0,10.2-8.3,18.6-18.6,18.6H56.1z"/>
					<path class="st8" d="M173.6,137.1c8.9,0,16.1,7.2,16.1,16.1v133.2c0,8.9-7.2,16.1-16.1,16.1H56.1c-8.9,0-16.1-7.2-16.1-16.1
						V153.1c0-8.9,7.2-16.1,16.1-16.1H173.6 M173.6,132.1H56.1c-11.6,0-21.1,9.4-21.1,21.1v133.2c0,11.6,9.4,21.1,21.1,21.1h117.4
						c11.6,0,21.1-9.4,21.1-21.1V153.1C194.6,141.5,185.2,132.1,173.6,132.1L173.6,132.1z"/>
				</g>
			</g>
		</g>
		<g id="Lights_4_">
			<g id="Lights">
				<circle class="st9" cx="199.2" cy="117.1" r="10.3"/>
				<circle class="st9" cx="158.5" cy="117.1" r="10.3"/>
				<circle class="st9" cx="117.1" cy="117.1" r="10.3"/>
				<circle class="st9" cx="76.4" cy="117.1" r="10.3"/>
				<circle class="st9" cx="35.1" cy="117.1" r="10.3"/>
			</g>
			<g id="Lights_1_">
				<circle class="st9" cx="199.2" cy="322.3" r="10.3"/>
				<circle class="st9" cx="158.5" cy="322.3" r="10.3"/>
				<circle class="st9" cx="117.1" cy="322.3" r="10.3"/>
				<circle class="st9" cx="76.4" cy="322.3" r="10.3"/>
				<circle class="st9" cx="35.1" cy="322.3" r="10.3"/>
			</g>
			<g id="Lights_2_">
				<circle class="st9" cx="209.5" cy="158.1" r="10.3"/>
				<circle class="st9" cx="209.5" cy="199.4" r="10.3"/>
				<circle class="st9" cx="209.5" cy="240.2" r="10.3"/>
				<circle class="st9" cx="209.5" cy="281.5" r="10.3"/>
			</g>
			<g id="Lights_3_">
				<circle class="st9" cx="20.2" cy="156.2" r="10.3"/>
				<circle class="st9" cx="20.2" cy="197.6" r="10.3"/>
				<circle class="st9" cx="20.2" cy="238.3" r="10.3"/>
				<circle class="st9" cx="20.2" cy="279.7" r="10.3"/>
			</g>
		</g>
	</g>
	<g id="Mirror_2">
		<path class="st10" d="M437.7,127.2L297,126.4c0,0,4.1-26.3,16.5-41.1s34.9-19.3,53.9-19.5c20.1-0.2,39.5,1.5,52.8,17.7
			C431,96.5,437.7,127.2,437.7,127.2z"/>
		<path class="st5" d="M421.5,129.1l-108.2-0.6c0,0,3.1-21.3,12.7-33.2s26.8-15.6,41.5-15.8c15.4-0.1,30.3,1.2,40.6,14.3
			C416.3,104.3,421.5,129.1,421.5,129.1z"/>
		<g id="Frame_1_">
			<g>
				<g>
					<path class="st2" d="M272.2,338.8c-10.2,0-18.6-8.3-18.6-18.6V115.6c0-10.2,8.3-18.6,18.6-18.6h190.3
						c10.2,0,18.6,8.3,18.6,18.6v204.6c0,10.2-8.3,18.6-18.6,18.6H272.2z"/>
					<path d="M462.6,99.6c8.9,0,16.1,7.2,16.1,16.1v204.6c0,8.9-7.2,16.1-16.1,16.1H272.2c-8.9,0-16.1-7.2-16.1-16.1V115.6
						c0-8.9,7.2-16.1,16.1-16.1H462.6 M462.6,94.6H272.2c-11.6,0-21.1,9.4-21.1,21.1v204.6c0,11.6,9.4,21.1,21.1,21.1h190.3
						c11.6,0,21.1-9.4,21.1-21.1V115.6C483.6,104,474.2,94.6,462.6,94.6L462.6,94.6z"/>
				</g>
				<g>
					<path class="st2" d="M307.4,305c-10.2,0-18.6-8.3-18.6-18.6V153.1c0-10.2,8.3-18.6,18.6-18.6h117.4c10.2,0,18.6,8.3,18.6,18.6
						v133.2c0,10.2-8.3,18.6-18.6,18.6H307.4z"/>
					<path d="M424.8,137.1c8.9,0,16.1,7.2,16.1,16.1v133.2c0,8.9-7.2,16.1-16.1,16.1H307.4c-8.9,0-16.1-7.2-16.1-16.1V153.1
						c0-8.9,7.2-16.1,16.1-16.1H424.8 M424.8,132.1H307.4c-11.6,0-21.1,9.4-21.1,21.1v133.2c0,11.6,9.4,21.1,21.1,21.1h117.4
						c11.6,0,21.1-9.4,21.1-21.1V153.1C445.9,141.5,436.4,132.1,424.8,132.1L424.8,132.1z"/>
				</g>
				<g>
					<path class="st11" d="M272.2,338.8c-10.2,0-18.6-8.3-18.6-18.6V115.6c0-10.2,8.3-18.6,18.6-18.6h190.3
						c10.2,0,18.6,8.3,18.6,18.6v204.6c0,10.2-8.3,18.6-18.6,18.6H272.2z"/>
					<path d="M462.6,99.6c8.9,0,16.1,7.2,16.1,16.1v204.6c0,8.9-7.2,16.1-16.1,16.1H272.2c-8.9,0-16.1-7.2-16.1-16.1V115.6
						c0-8.9,7.2-16.1,16.1-16.1H462.6 M462.6,94.6H272.2c-11.6,0-21.1,9.4-21.1,21.1v204.6c0,11.6,9.4,21.1,21.1,21.1h190.3
						c11.6,0,21.1-9.4,21.1-21.1V115.6C483.6,104,474.2,94.6,462.6,94.6L462.6,94.6z"/>
				</g>
				<g>
					<path class="st2" d="M307.3,305c-10.2,0-18.6-8.3-18.6-18.6V153.1c0-10.2,8.3-18.6,18.6-18.6h117.4c10.2,0,18.6,8.3,18.6,18.6
						v133.2c0,10.2-8.3,18.6-18.6,18.6H307.3z"/>
					<path d="M424.7,137.1c8.9,0,16.1,7.2,16.1,16.1v133.2c0,8.9-7.2,16.1-16.1,16.1H307.3c-8.9,0-16.1-7.2-16.1-16.1V153.1
						c0-8.9,7.2-16.1,16.1-16.1H424.7 M424.7,132.1H307.3c-11.6,0-21.1,9.4-21.1,21.1v133.2c0,11.6,9.4,21.1,21.1,21.1h117.4
						c11.6,0,21.1-9.4,21.1-21.1V153.1C445.8,141.5,436.3,132.1,424.7,132.1L424.7,132.1z"/>
				</g>
			</g>
		</g>
		<g id="Lights_5_">
			<g id="Lights_9_">
				<circle class="st9" cx="450.4" cy="117.1" r="10.3"/>
				<circle class="st9" cx="409.6" cy="117.1" r="10.3"/>
				<circle class="st9" cx="368.3" cy="117.1" r="10.3"/>
				<circle class="st9" cx="327.6" cy="117.1" r="10.3"/>
				<circle class="st9" cx="286.2" cy="117.1" r="10.3"/>
			</g>
			<g id="Lights_8_">
				<circle class="st9" cx="450.4" cy="322.3" r="10.3"/>
				<circle class="st9" cx="409.6" cy="322.3" r="10.3"/>
				<circle class="st9" cx="368.3" cy="322.3" r="10.3"/>
				<circle class="st9" cx="327.5" cy="322.3" r="10.3"/>
				<circle class="st9" cx="286.2" cy="322.3" r="10.3"/>
			</g>
			<g id="Lights_7_">
				<circle class="st9" cx="460.7" cy="158.1" r="10.3"/>
				<circle class="st9" cx="460.7" cy="199.4" r="10.3"/>
				<circle class="st9" cx="460.7" cy="240.2" r="10.3"/>
				<circle class="st9" cx="460.7" cy="281.5" r="10.3"/>
			</g>
			<g id="Lights_6_">
				<circle class="st9" cx="271.3" cy="156.2" r="10.3"/>
				<circle class="st9" cx="271.3" cy="197.6" r="10.3"/>
				<circle class="st9" cx="271.3" cy="238.3" r="10.3"/>
				<circle class="st9" cx="271.3" cy="279.7" r="10.3"/>
			</g>
		</g>
	</g>
	<g id="Mirror_2_1_">
		<pattern  id="SVGID_3_" xlink:href="#New_Pattern_Swatch_44" patternTransform="matrix(0.5588 0 0 0.591 -3263.3083 -2762.9438)">
		</pattern>
		<path class="st12" d="M687.1,127.2l-140.7-0.7c0,0,4.1-26.3,16.5-41.1c12.5-14.8,34.9-19.3,53.9-19.5c20.1-0.2,39.5,1.5,52.8,17.7
			C680.3,96.5,687.1,127.2,687.1,127.2z"/>
		<path class="st5" d="M670.8,129.1l-108.2-0.6c0,0,3.1-21.3,12.7-33.2c9.6-12,26.8-15.6,41.5-15.8c15.4-0.1,30.3,1.2,40.6,14.3
			C665.6,104.3,670.8,129.1,670.8,129.1z"/>
		<g id="Frame_2_">
			<g>
				<path class="st3" d="M521.6,338.8c-10.2,0-18.6-8.3-18.6-18.6V115.6c0-10.2,8.3-18.6,18.6-18.6h190.3c10.2,0,18.6,8.3,18.6,18.6
					v204.6c0,10.2-8.3,18.6-18.6,18.6H521.6z"/>
				<path d="M711.9,99.6c8.9,0,16.1,7.2,16.1,16.1v204.6c0,8.9-7.2,16.1-16.1,16.1H521.6c-8.9,0-16.1-7.2-16.1-16.1V115.6
					c0-8.9,7.2-16.1,16.1-16.1H711.9 M711.9,94.6H521.6c-11.6,0-21.1,9.4-21.1,21.1v204.6c0,11.6,9.4,21.1,21.1,21.1h190.3
					c11.6,0,21.1-9.4,21.1-21.1V115.6C733,104,723.6,94.6,711.9,94.6L711.9,94.6z"/>
			</g>
			<g>
				<g>
					<path class="st2" d="M556.7,305c-10.2,0-18.6-8.3-18.6-18.6V153.1c0-10.2,8.3-18.6,18.6-18.6h117.4c10.2,0,18.6,8.3,18.6,18.6
						v133.2c0,10.2-8.3,18.6-18.6,18.6H556.7z"/>
					<path d="M674.1,137.1c8.9,0,16.1,7.2,16.1,16.1v133.2c0,8.9-7.2,16.1-16.1,16.1H556.7c-8.9,0-16.1-7.2-16.1-16.1V153.1
						c0-8.9,7.2-16.1,16.1-16.1H674.1 M674.1,132.1H556.7c-11.6,0-21.1,9.4-21.1,21.1v133.2c0,11.6,9.4,21.1,21.1,21.1h117.4
						c11.6,0,21.1-9.4,21.1-21.1V153.1C695.2,141.5,685.8,132.1,674.1,132.1L674.1,132.1z"/>
				</g>
				<g class="st6">
					
						<pattern  id="SVGID_4_" xlink:href="#New_Pattern_Swatch_44" patternTransform="matrix(0.7617 0 0 0.9954 -1723.0139 -30.5012)">
					</pattern>
					<path class="st13" d="M556.7,305c-10.2,0-18.6-8.3-18.6-18.6V153.1c0-10.2,8.3-18.6,18.6-18.6h117.4c10.2,0,18.6,8.3,18.6,18.6
						v133.2c0,10.2-8.3,18.6-18.6,18.6H556.7z"/>
					<path class="st8" d="M674.1,137.1c8.9,0,16.1,7.2,16.1,16.1v133.2c0,8.9-7.2,16.1-16.1,16.1H556.7c-8.9,0-16.1-7.2-16.1-16.1
						V153.1c0-8.9,7.2-16.1,16.1-16.1H674.1 M674.1,132.1H556.7c-11.6,0-21.1,9.4-21.1,21.1v133.2c0,11.6,9.4,21.1,21.1,21.1h117.4
						c11.6,0,21.1-9.4,21.1-21.1V153.1C695.1,141.5,685.7,132.1,674.1,132.1L674.1,132.1z"/>
				</g>
			</g>
		</g>
		<g id="Lights_10_">
			<g id="Lights_14_">
				<circle class="st9" cx="699.7" cy="117.1" r="10.3"/>
				<circle class="st9" cx="659" cy="117.1" r="10.3"/>
				<circle class="st9" cx="617.6" cy="117.1" r="10.3"/>
				<circle class="st9" cx="576.9" cy="117.1" r="10.3"/>
				<circle class="st9" cx="535.6" cy="117.1" r="10.3"/>
			</g>
			<g id="Lights_13_">
				<circle class="st9" cx="699.7" cy="322.3" r="10.3"/>
				<circle class="st9" cx="659" cy="322.3" r="10.3"/>
				<circle class="st9" cx="617.6" cy="322.3" r="10.3"/>
				<circle class="st9" cx="576.9" cy="322.3" r="10.3"/>
				<circle class="st9" cx="535.6" cy="322.3" r="10.3"/>
			</g>
			<g id="Lights_12_">
				<circle class="st9" cx="710" cy="158.1" r="10.3"/>
				<circle class="st9" cx="710" cy="199.4" r="10.3"/>
				<circle class="st9" cx="710" cy="240.2" r="10.3"/>
				<circle class="st9" cx="710" cy="281.5" r="10.3"/>
			</g>
			<g id="Lights_11_">
				<circle class="st9" cx="520.7" cy="156.2" r="10.3"/>
				<circle class="st9" cx="520.7" cy="197.6" r="10.3"/>
				<circle class="st9" cx="520.7" cy="238.3" r="10.3"/>
				<circle class="st9" cx="520.7" cy="279.7" r="10.3"/>
			</g>
		</g>
	</g>
	<g id="Wig">
		<path class="st14" d="M605.7,269.1c0,43.3-107,43.3-107,0s24-78.4,53.5-78.4S605.7,225.8,605.7,269.1z"/>
		<pattern  id="SVGID_5_" xlink:href="#New_Pattern_Swatch_44" patternTransform="matrix(1 0 0 1 -12 3.3102)">
		</pattern>
		<path class="st15" d="M604.5,269.1c0,43.3-107,43.3-107,0s24-78.4,53.5-78.4S604.5,225.8,604.5,269.1z"/>
		<g>
			<path class="st16" d="M558.2,339.3h-12c-2.8,0-5-2.2-5-5V288c0-2.8,2.2-5,5-5h12c2.8,0,5,2.2,5,5v46.3
				C563.2,337.1,561,339.3,558.2,339.3z"/>
			<ellipse class="st16" cx="552.2" cy="251.2" rx="40.2" ry="50.3"/>
			<path class="st16" d="M579,341.3h-56c-2.8,0-5-2.2-5-5v-4c0-2.8,2.2-5,5-5h56c2.8,0,5,2.2,5,5v4C584,339.1,581.8,341.3,579,341.3
				z"/>
		</g>
		<path class="st14" d="M585.4,221.5c0,17-65.7,17-65.7,0s14.7-30.8,32.9-30.8C570.7,190.7,585.4,204.5,585.4,221.5z"/>
		<pattern  id="SVGID_6_" xlink:href="#New_Pattern_Swatch_44" patternTransform="matrix(1 0 0 1 -12 3.3102)">
		</pattern>
		<path class="st17" d="M584.7,221.5c0,17-65.7,17-65.7,0s14.7-30.8,32.9-30.8S584.7,204.5,584.7,221.5z"/>
	</g>
</g>
<g id="Items">
	<g>
		<g id="Sign_Outline_3_">
			<path class="st2" d="M209.6,338.8c-1.4,0-2.5-1.1-2.5-2.5v-80.7c0-3,2.5-5.5,5.5-5.5h20.8c3,0,5.5,2.5,5.5,5.5v80.7
				c0,1.4-1.1,2.5-2.5,2.5H209.6z"/>
			<path d="M233.4,252.6c1.7,0,3,1.3,3,3v80.7h-26.8v-80.7c0-1.7,1.3-3,3-3H233.4 M233.4,247.6h-20.8c-4.4,0-8,3.6-8,8v80.7
				c0,2.8,2.2,5,5,5h26.8c2.8,0,5-2.2,5-5v-80.7C241.4,251.2,237.8,247.6,233.4,247.6L233.4,247.6z"/>
		</g>
		<g id="Sign_Outline_2_">
			<pattern  id="SVGID_7_" xlink:href="#New_Pattern_Swatch_44" patternTransform="matrix(1 0 0 1 1 0.7477)">
			</pattern>
			<path class="st18" d="M209.6,338.8c-1.4,0-2.5-1.1-2.5-2.5v-80.7c0-3,2.5-5.5,5.5-5.5h20.8c3,0,5.5,2.5,5.5,5.5v80.7
				c0,1.4-1.1,2.5-2.5,2.5H209.6z"/>
			<path d="M233.4,252.6c1.7,0,3,1.3,3,3v80.7h-26.8v-80.7c0-1.7,1.3-3,3-3H233.4 M233.4,247.6h-20.8c-4.4,0-8,3.6-8,8v80.7
				c0,2.8,2.2,5,5,5h26.8c2.8,0,5-2.2,5-5v-80.7C241.4,251.2,237.8,247.6,233.4,247.6L233.4,247.6z"/>
		</g>
	</g>
	<g id="Sign_Outline_10_">
		<path class="st2" d="M177.5,335.7c-0.9,0-1.6-0.7-1.6-1.6V317c0-1.9,1.6-3.5,3.5-3.5h35.4c1.9,0,3.5,1.6,3.5,3.5v17.1
			c0,0.9-0.7,1.6-1.6,1.6H177.5z"/>
		<path d="M214.8,315c1.1,0,2,0.9,2,2v17.1c0,0.1-0.1,0.1-0.1,0.1h-39.2c-0.1,0-0.1-0.1-0.1-0.1V317c0-1.1,0.9-2,2-2H214.8
			 M214.8,312h-35.4c-2.8,0-5,2.2-5,5v17.1c0,1.7,1.4,3.1,3.1,3.1h39.2c1.7,0,3.1-1.4,3.1-3.1V317C219.8,314.2,217.6,312,214.8,312
			L214.8,312z"/>
	</g>
	<g>
		<path class="st2" d="M288.2,435.5c-5.4,0-9.8-4.4-9.8-9.8v-16.3c0-5.4,4.4-9.8,9.8-9.8h160.1c5.4,0,9.8,4.4,9.8,9.8v16.3
			c0,5.4-4.4,9.8-9.8,9.8H288.2z"/>
		<path d="M448.3,402c4.1,0,7.3,3.3,7.3,7.3v16.3c0,4.1-3.3,7.3-7.3,7.3H288.2c-4.1,0-7.3-3.3-7.3-7.3v-16.3c0-4.1,3.3-7.3,7.3-7.3
			H448.3 M448.3,397H288.2c-6.8,0-12.3,5.6-12.3,12.3v16.3c0,6.8,5.6,12.3,12.3,12.3h160.1c6.8,0,12.3-5.6,12.3-12.3v-16.3
			C460.7,402.6,455.1,397,448.3,397L448.3,397z"/>
	</g>
	<g>
		<path class="st2" d="M288.2,494.4c-5.4,0-9.8-4.4-9.8-9.8v-16.3c0-5.4,4.4-9.8,9.8-9.8h160.1c5.4,0,9.8,4.4,9.8,9.8v16.3
			c0,5.4-4.4,9.8-9.8,9.8H288.2z"/>
		<path d="M448.3,460.9c4.1,0,7.3,3.3,7.3,7.3v16.3c0,4.1-3.3,7.3-7.3,7.3H288.2c-4.1,0-7.3-3.3-7.3-7.3v-16.3
			c0-4.1,3.3-7.3,7.3-7.3H448.3 M448.3,455.9H288.2c-6.8,0-12.3,5.6-12.3,12.3v16.3c0,6.8,5.6,12.3,12.3,12.3h160.1
			c6.8,0,12.3-5.6,12.3-12.3v-16.3C460.6,461.5,455.1,455.9,448.3,455.9L448.3,455.9z"/>
	</g>
	<g>
		<path class="st11" d="M288.3,435.5c-5.4,0-9.8-4.4-9.8-9.8v-16.3c0-5.4,4.4-9.8,9.8-9.8h160.1c5.4,0,9.8,4.4,9.8,9.8v16.3
			c0,5.4-4.4,9.8-9.8,9.8H288.3z"/>
		<path d="M448.3,402c4.1,0,7.3,3.3,7.3,7.3v16.3c0,4.1-3.3,7.3-7.3,7.3H288.3c-4.1,0-7.3-3.3-7.3-7.3v-16.3c0-4.1,3.3-7.3,7.3-7.3
			H448.3 M448.3,397H288.3c-6.8,0-12.3,5.6-12.3,12.3v16.3c0,6.8,5.6,12.3,12.3,12.3h160.1c6.8,0,12.3-5.6,12.3-12.3v-16.3
			C460.7,402.6,455.1,397,448.3,397L448.3,397z"/>
	</g>
	<g>
		<path class="st11" d="M288.2,494.4c-5.4,0-9.8-4.4-9.8-9.8v-16.3c0-5.4,4.4-9.8,9.8-9.8h160.1c5.4,0,9.8,4.4,9.8,9.8v16.3
			c0,5.4-4.4,9.8-9.8,9.8H288.2z"/>
		<path d="M448.3,460.9c4.1,0,7.3,3.3,7.3,7.3v16.3c0,4.1-3.3,7.3-7.3,7.3H288.2c-4.1,0-7.3-3.3-7.3-7.3v-16.3
			c0-4.1,3.3-7.3,7.3-7.3H448.3 M448.3,455.9H288.2c-6.8,0-12.3,5.6-12.3,12.3v16.3c0,6.8,5.6,12.3,12.3,12.3h160.1
			c6.8,0,12.3-5.6,12.3-12.3v-16.3C460.6,461.5,455.1,455.9,448.3,455.9L448.3,455.9z"/>
	</g>
	<g>
		<circle class="st3" cx="367.4" cy="417.5" r="8"/>
		<path d="M367.4,410.5c3.8,0,7,3.1,7,7s-3.1,7-7,7s-7-3.1-7-7S363.5,410.5,367.4,410.5 M367.4,408.5c-5,0-9,4-9,9s4,9,9,9
			c5,0,9-4,9-9S372.3,408.5,367.4,408.5L367.4,408.5z"/>
	</g>
	<g>
		<circle class="st3" cx="366.6" cy="476.4" r="8"/>
		<path d="M366.6,469.5c3.8,0,7,3.1,7,7s-3.1,7-7,7s-7-3.1-7-7S362.8,469.5,366.6,469.5 M366.6,467.5c-5,0-9,4-9,9s4,9,9,9
			c5,0,9-4,9-9S371.6,467.5,366.6,467.5L366.6,467.5z"/>
	</g>
</g>
</svg>
