<?xml version="1.0" encoding="utf-8"?>
<!-- Generator: Adobe Illustrator 21.0.2, SVG Export Plug-In . SVG Version: 6.00 Build 0)  -->
<svg version="1.1" xmlns="http://www.w3.org/2000/svg" xmlns:xlink="http://www.w3.org/1999/xlink" x="0px" y="0px"
	 viewBox="0 0 778 315.5" style="enable-background:new 0 0 778 315.5;" xml:space="preserve">
<style type="text/css">
	.st0{fill:none;}
	.st1{fill:#666666;}
	.st2{fill:#999999;}
	.st3{display:none;}
	.st4{display:inline;}
	.st5{fill:#FFFFFF;}
	.st6{opacity:0.46;}
	.st7{fill:url(#New_Pattern_Swatch_23);}
	.st8{fill:none;stroke:#000000;stroke-width:5;stroke-linecap:round;stroke-linejoin:round;stroke-miterlimit:10;}
	.st9{fill:#C1272D;stroke:#000000;stroke-width:5;stroke-linecap:round;stroke-linejoin:round;stroke-miterlimit:10;}
	.st10{fill:url(#SVGID_1_);}
	.st11{fill:url(#SVGID_2_);}
	.st12{fill:url(#SVGID_3_);}
	.st13{fill:#FFFFFF;stroke:#000000;stroke-width:5;stroke-linecap:round;stroke-linejoin:round;stroke-miterlimit:10;}
	.st14{opacity:0.49;fill:url(#SVGID_4_);}
	.st15{opacity:0.49;fill:url(#SVGID_5_);}
	.st16{opacity:0.49;fill:url(#SVGID_6_);}
	.st17{opacity:0.49;fill:url(#SVGID_7_);}
	.st18{fill:url(#SVGID_8_);stroke:#000000;stroke-width:5;stroke-linecap:round;stroke-linejoin:round;stroke-miterlimit:10;}
	.st19{fill:#BF2121;}
	.st20{opacity:0.49;}
	.st21{fill:url(#SVGID_9_);}
	.st22{fill:#FFFFFF;stroke:#231F20;stroke-width:2;stroke-linecap:round;stroke-miterlimit:10;}
	.st23{fill:none;stroke:#231F20;stroke-width:9;stroke-linecap:round;stroke-miterlimit:10;}
	.st24{fill:url(#New_Pattern_Swatch_44);stroke:#231F20;stroke-width:2;stroke-linecap:round;stroke-miterlimit:10;}
	.st25{fill:#C1272D;stroke:#000000;stroke-width:2;stroke-linecap:round;stroke-miterlimit:10;}
	.st26{fill:#FFFFFF;stroke:#000000;stroke-width:2;stroke-miterlimit:10;}
	.st27{fill:#FFFFFF;stroke:#FFFFFF;stroke-width:10;stroke-linecap:round;stroke-miterlimit:10;}
	.st28{fill:#FFFFFF;stroke:#FFFFFF;stroke-width:8;stroke-linecap:round;stroke-miterlimit:10;}
	.st29{fill:#FFFFFF;stroke:#000000;stroke-width:2;stroke-linecap:round;stroke-miterlimit:10;}
	.st30{fill:#FFFFFF;stroke:#FFFFFF;stroke-width:7;stroke-linecap:round;stroke-miterlimit:10;}
	.st31{fill:none;stroke:#000000;stroke-width:2;stroke-linecap:round;stroke-miterlimit:10;}
	.st32{display:none;opacity:0.26;}
	.st33{display:inline;fill:url(#New_Pattern_Swatch_23);}
</style>
<pattern  x="-147.8" y="-15" width="10" height="10" patternUnits="userSpaceOnUse" id="New_Pattern_Swatch_23" viewBox="0 -10 10 10" style="overflow:visible;">
	<g>
		<rect y="-10" class="st0" width="10" height="10"/>
		<circle class="st1" cx="5" cy="-5" r="1"/>
		<path class="st1" d="M10-9v-1H9C9-9.4,9.4-9,10-9z"/>
		<path class="st1" d="M1-10H0v1h0C0.6-9,1-9.4,1-10z"/>
		<path class="st1" d="M10-1C9.4-1,9-0.6,9,0h1V-1z"/>
		<path class="st1" d="M0-1L0-1l0,1h1C1-0.6,0.6-1,0-1z"/>
	</g>
</pattern>
<pattern  x="-147.8" y="-15" width="14" height="14" patternUnits="userSpaceOnUse" id="New_Pattern_Swatch_44" viewBox="0 -14 14 14" style="overflow:visible;">
	<g>
		<rect y="-14" class="st0" width="14" height="14"/>
		<circle class="st2" cx="7" cy="-7" r="1.4"/>
		<path class="st2" d="M14-12.6V-14h-1.4C12.6-13.2,13.2-12.6,14-12.6z"/>
		<path class="st2" d="M1.4-14H0v1.4h0C0.8-12.6,1.4-13.2,1.4-14z"/>
		<path class="st2" d="M14-1.4c-0.8,0-1.4,0.6-1.4,1.4H14V-1.4z"/>
		<path class="st2" d="M0-1.4L0-1.4L0,0h1.4C1.4-0.8,0.8-1.4,0-1.4z"/>
	</g>
</pattern>
<g id="Layer_1" class="st3">
	<g class="st4">
		<g>
			<rect x="-147.8" y="-15" class="st5" width="1024" height="1280"/>
			<path class="st5" d="M875.2-14v1278h-1022V-14H875.2 M876.2-15h-1024v1280h1024V-15L876.2-15z"/>
		</g>
	</g>
	<g class="st4">
		<g class="st6">
			<rect x="-147.8" y="-15" class="st7" width="1024" height="1280"/>
		</g>
	</g>
	<g class="st4">
		<g>
			<rect x="-147.8" y="-15" class="st8" width="1024" height="1280"/>
			<path class="st8" d="M875.2-14v1278h-1022V-14H875.2 M876.2-15h-1024v1280h1024V-15L876.2-15z"/>
		</g>
	</g>
</g>
<g id="Sign">
	<g>
		<path class="st9" d="M613.1,502.6l80.6,24.5c0,0,11.3-43.1,11.8-69.2c0.5-26.1-9.9-37.5-20.7-41.3c-11.3-3.9-23.3-4.8-39.2,18.9
			C632.7,454.5,613.1,502.6,613.1,502.6z"/>
		<g>
			<path class="st5" d="M622.7,506c2.6-6.9,10.6-27.3,20.8-42.5c12.4-18.4,18.5-22.1,24.2-22.1c2,0,4.2,0.5,7.2,1.5
				c1.3,0.4,2.5,0.8,3.7,1.2c8.7,2.7,14.5,4.5,14.1,25.7c-0.4,21.3-5.3,47.9-6.9,56.4L622.7,506z"/>
			<g>
				<path d="M667.8,443.9c1.7,0,3.7,0.4,6.3,1.3c1.3,0.5,2.5,0.8,3.8,1.2c4.5,1.4,7.2,2.3,9,4.7c2.4,3.2,3.5,9.3,3.3,18.6
					c-0.4,19.2-4.4,42.7-6.4,53.2L626,504.4c3.2-8.4,10.6-26.1,19.6-39.5C654.1,452.3,661.1,443.9,667.8,443.9 M667.8,438.9
					c-7.5,0-14.4,5.5-26.3,23.2c-12.8,18.9-22,45.5-22,45.5l68.2,21.8c0,0,7-33.5,7.5-59.5s-8.6-25.6-19.4-29.3
					C672.9,439.5,670.3,438.9,667.8,438.9L667.8,438.9z"/>
			</g>
		</g>
		<g>
			
				<pattern  id="SVGID_1_" xlink:href="#New_Pattern_Swatch_44" patternTransform="matrix(-0.3185 -0.102 -0.3049 0.9524 -12146.6895 -1120.3864)">
			</pattern>
			<path class="st10" d="M622.7,506c2.6-6.9,10.6-27.3,20.8-42.5c12.4-18.4,18.5-22.1,24.2-22.1c2,0,4.2,0.5,7.2,1.5
				c1.3,0.4,2.5,0.8,3.7,1.2c8.7,2.7,14.5,4.5,14.1,25.7c-0.4,21.3-5.3,47.9-6.9,56.4L622.7,506z"/>
			<g>
				<path d="M667.8,443.9c1.7,0,3.7,0.4,6.3,1.3c1.3,0.5,2.5,0.8,3.8,1.2c4.5,1.4,7.2,2.3,9,4.7c2.4,3.2,3.5,9.3,3.3,18.6
					c-0.4,19.2-4.4,42.7-6.4,53.2L626,504.4c3.2-8.4,10.6-26.1,19.6-39.5C654.1,452.3,661.1,443.9,667.8,443.9 M667.8,438.9
					c-7.5,0-14.4,5.5-26.3,23.2c-12.8,18.9-22,45.5-22,45.5l68.2,21.8c0,0,7-33.5,7.5-59.5s-8.6-25.6-19.4-29.3
					C672.9,439.5,670.3,438.9,667.8,438.9L667.8,438.9z"/>
			</g>
		</g>
	</g>
	<g>
		<path class="st9" d="M630.9,502.6l-80.6,24.5c0,0-11.3-43.1-11.8-69.2c-0.5-26.1,9.9-37.5,20.7-41.3c11.3-3.9,23.3-4.8,39.2,18.9
			C611.2,454.5,630.9,502.6,630.9,502.6z"/>
		<g>
			<path class="st5" d="M558.2,526.1c-1.7-8.5-6.5-35.1-6.9-56.4c-0.4-21.3,5.3-23,14.1-25.7c1.2-0.4,2.4-0.7,3.7-1.2
				c3-1,5.2-1.5,7.2-1.5c5.8,0,11.8,3.7,24.2,22.1c10.2,15.2,18.2,35.6,20.8,42.5L558.2,526.1z"/>
			<g>
				<path d="M576.2,438.9v5c4.8,0,10.4,3.6,22.2,21c9.1,13.4,16.4,31.1,19.6,39.5l-57.8,18.5c-2-10.5-6-34-6.3-53.2
					c-0.2-9.3,0.9-15.4,3.3-18.6c1.8-2.4,4.5-3.3,9-4.7c1.2-0.4,2.4-0.8,3.8-1.2c2.7-0.9,4.6-1.3,6.3-1.3L576.2,438.9 M576.2,438.9
					c-2.5,0-5.1,0.6-8,1.6c-10.8,3.8-19.9,3.2-19.4,29.3s7.5,59.5,7.5,59.5l68.2-21.8c0,0-9.2-26.5-22-45.5
					C590.6,444.4,583.7,438.9,576.2,438.9L576.2,438.9z"/>
			</g>
		</g>
		<g>
			
				<pattern  id="SVGID_2_" xlink:href="#New_Pattern_Swatch_44" patternTransform="matrix(0.3185 -0.102 0.3049 0.9524 -2904.8384 -1109.3228)">
			</pattern>
			<path class="st11" d="M558.2,526.1c-1.7-8.5-6.5-35.1-6.9-56.4c-0.4-21.3,5.3-23,14.1-25.7c1.2-0.4,2.4-0.7,3.7-1.2
				c3-1,5.2-1.5,7.2-1.5c5.8,0,11.8,3.7,24.2,22.1c10.2,15.2,18.2,35.6,20.8,42.5L558.2,526.1z"/>
			<g>
				<path d="M576.2,438.9v5c4.8,0,10.4,3.6,22.2,21c9.1,13.4,16.4,31.1,19.6,39.5l-57.8,18.5c-2-10.5-6-34-6.3-53.2
					c-0.2-9.3,0.9-15.4,3.3-18.6c1.8-2.4,4.5-3.3,9-4.7c1.2-0.4,2.4-0.8,3.8-1.2c2.7-0.9,4.6-1.3,6.3-1.3L576.2,438.9 M576.2,438.9
					c-2.5,0-5.1,0.6-8,1.6c-10.8,3.8-19.9,3.2-19.4,29.3c0.5,26.1,7.5,59.5,7.5,59.5l68.2-21.8c0,0-9.2-26.5-22-45.5
					C590.6,444.4,583.7,438.9,576.2,438.9L576.2,438.9z"/>
			</g>
		</g>
	</g>
	<g>
		<path class="st9" d="M577.2,510.6l84.2,0.6c0,0-1.4-44.5-8.3-69.7c-6.9-25.2-20.1-33.2-31.5-33.7c-12-0.6-23.7,2-32.3,29.3
			C582.4,458.9,577.2,510.6,577.2,510.6z"/>
		<g>
			<path class="st5" d="M587.8,511.1c0.5-7.4,2.4-29.2,7.9-46.6c7.8-24.7,13-28.7,22.3-28.7c0.6,0,1.3,0,1.9,0
				c1.3,0.1,2.6,0.1,3.8,0.1c9.1,0.1,15.1,0.2,20.8,20.7c5.6,20.5,8.5,47.4,9.3,56L587.8,511.1z"/>
			<g>
				<path d="M618,438.2c0.6,0,1.2,0,1.8,0c1.4,0.1,2.7,0.1,3.9,0.1c4.7,0.1,7.5,0.2,10,2c3.2,2.4,6,7.9,8.4,16.9
					c5.1,18.5,7.9,42.2,9,52.8l-60.7-1.4c0.7-9,2.7-28,7.6-43.4c3.8-11.9,7.1-19.2,10.4-23.1C611,439.2,613.5,438.2,618,438.2
					 M618,433.2c-10.7,0-16.6,4.8-24.7,30.5c-6.9,21.8-8.2,49.8-8.2,49.8l71.5,1.6c0,0-2.8-34.1-9.7-59.2
					c-6.9-25.2-15.5-22.1-26.9-22.6C619.4,433.2,618.7,433.2,618,433.2L618,433.2z"/>
			</g>
		</g>
		<g>
			<pattern  id="SVGID_3_" xlink:href="#New_Pattern_Swatch_44" patternTransform="matrix(1 0 0 1 10 9)">
			</pattern>
			<path class="st12" d="M587.4,511.1c0.5-7.4,2.4-29.2,7.9-46.6c7.8-24.7,13-28.7,22.3-28.7c0.6,0,1.3,0,1.9,0
				c1.3,0.1,2.6,0.1,3.8,0.1c9.1,0.1,15.1,0.2,20.8,20.7c5.6,20.5,8.5,47.4,9.3,56L587.4,511.1z"/>
			<g>
				<path d="M617.7,438.2c0.6,0,1.2,0,1.8,0c1.4,0.1,2.7,0.1,3.9,0.1c4.7,0.1,7.5,0.2,10,2c3.2,2.4,6,7.9,8.4,16.9
					c5.1,18.5,7.9,42.2,9,52.8l-60.7-1.4c0.7-9,2.7-28,7.6-43.4c3.8-11.9,7.1-19.2,10.4-23.1C610.6,439.2,613.1,438.2,617.7,438.2
					 M617.7,433.2c-10.7,0-16.6,4.8-24.7,30.5c-6.9,21.8-8.2,49.8-8.2,49.8l71.5,1.6c0,0-2.8-34.1-9.7-59.2
					c-6.9-25.2-15.5-22.1-26.9-22.6C619,433.2,618.3,433.2,617.7,433.2L617.7,433.2z"/>
			</g>
		</g>
	</g>
	<g id="Left_Sign_Decorations">
		<path class="st13" d="M572,580.4L459.6,454.8c0,0,51.1-102.5,111.6,68.4C593,584.9,572,580.4,572,580.4z"/>
		<path class="st13" d="M541.7,574.7L395.3,467.3c0,0,25.8-111.6,124.4,40.6C555.4,562.9,541.7,574.7,541.7,574.7z"/>
		<path class="st13" d="M517.2,581.2l-179.5-70.6c0,0-6.4-114.4,130.8,4.1C518.1,557.6,517.2,581.2,517.2,581.2z"/>
		<path class="st13" d="M501.6,578.9l-212.9-24.5c0,0-32.9-109.7,128.2-26.4C475.1,558.1,501.6,578.9,501.6,578.9z"/>
		
			<pattern  id="SVGID_4_" xlink:href="#New_Pattern_Swatch_44" patternTransform="matrix(0.9098 1.492167e-03 1.492167e-03 0.9059 -662.8529 -659.4352)">
		</pattern>
		<path class="st14" d="M486.3,576.3l-193.7-22.5c0,0-30.1-99.5,116.6-23.7C462.2,557.4,486.3,576.3,486.3,576.3z"/>
		<path class="st13" d="M499,578.9H261.6c0,0-59.4-53.7,119.9-26.5C446.2,562.3,499,578.9,499,578.9z"/>
		
			<pattern  id="SVGID_5_" xlink:href="#New_Pattern_Swatch_44" patternTransform="matrix(0.8483 -1.564266e-02 -1.564266e-02 0.8446 -1243.6857 -1243.3698)">
		</pattern>
		<path class="st15" d="M524.9,551.1l-122.5-88.4c0,0,23.7-94.7,104.9,32.3C536.7,541,524.9,551.1,524.9,551.1z"/>
	</g>
	<g id="Right_Side_Decorations">
		<path class="st13" d="M672.5,580L785,454.4c0,0-51.1-102.5-111.6,68.4C651.5,584.5,672.5,580,672.5,580z"/>
		<path class="st13" d="M702.9,574.3l146.3-107.3c0,0-25.8-111.6-124.4,40.6C689.1,562.5,702.9,574.3,702.9,574.3z"/>
		<path class="st13" d="M727.4,580.8l179.5-70.6c0,0,6.4-114.4-130.8,4.1C726.4,557.2,727.4,580.8,727.4,580.8z"/>
		<path class="st13" d="M742.9,578.5L955.8,554c0,0,32.9-109.7-128.2-26.4C769.4,557.7,742.9,578.5,742.9,578.5z"/>
		
			<pattern  id="SVGID_6_" xlink:href="#New_Pattern_Swatch_44" patternTransform="matrix(-0.9314 5.718965e-03 -5.718965e-03 0.9165 -14591.835 -551.1097)">
		</pattern>
		<path class="st16" d="M748.1,578.9l198.4-23.7c0,0,31.2-100.8-119.2-23.5C772.9,559.7,748.1,578.9,748.1,578.9z"/>
		<path class="st13" d="M745.6,578.5h237.4c0,0,59.4-53.7-119.9-26.5C798.3,561.9,745.6,578.5,745.6,578.5z"/>
		
			<pattern  id="SVGID_7_" xlink:href="#New_Pattern_Swatch_44" patternTransform="matrix(-0.8363 6.890945e-02 -6.890945e-02 0.8529 -14298.749 -538.3797)">
		</pattern>
		<path class="st17" d="M709.2,562.5l129.8-101.6c0,0-13.9-93.4-106.8,43.2C698.5,553.4,709.2,562.5,709.2,562.5z"/>
	</g>
	<pattern  id="SVGID_8_" xlink:href="#New_Pattern_Swatch_44" patternTransform="matrix(1 0 0 1 10 9)">
	</pattern>
	<path class="st18" d="M747.3,581.2L495.5,580c0,0,7.3-44.5,29.6-69.5c22.3-25,62.4-32.7,96.5-33c35.9-0.3,70.6,2.6,94.5,30
		C735.2,529.4,747.3,581.2,747.3,581.2z"/>
	<path class="st13" d="M748.9,581.2L497.1,580c0,0,7.3-44.5,29.6-69.5c22.3-25,62.4-32.7,96.5-33c35.9-0.3,70.6,2.6,94.5,30
		C736.8,529.4,748.9,581.2,748.9,581.2z"/>
	<g>
		<path class="st19" d="M515.7,581.5c3.2-9,13.5-35,31.2-54.8c17.6-19.7,37.3-21.2,63.3-21.2c1.8,0,3.7,0,5.6,0c2,0,3.9,0,6,0
			c1.8,0,3.5,0,5.3,0c1.2,0,2.4,0,3.5,0c32.6,0,49.9,4.2,72.6,30.2c14.9,17.1,19.1,38.4,20.2,45.9H515.7z"/>
		<g>
			<path d="M630.7,508c15.5,0,28.1,0.9,39.4,5.2c10.8,4.2,20.4,11.6,31.3,24.1c12.9,14.8,17.6,32.9,19.2,41.7H519.3
				c4.1-10.8,13.9-33.2,29.5-50.7c16.9-18.9,35.3-20.3,61.4-20.3c1.8,0,3.7,0,5.6,0c2,0,3.9,0,6,0c1.8,0,3.5,0,5.3,0
				C628.3,508,629.5,508,630.7,508L630.7,508 M630.7,503c-1.2,0-2.4,0-3.6,0c-1.8,0-3.6,0-5.3,0c-4,0-7.8,0-11.6,0
				c-25.9,0-46.6,1.3-65.1,22c-22.3,25-32.9,59-32.9,59h214c0,0-2-28.1-21.1-50C682,507.5,664.2,503,630.7,503L630.7,503z"/>
		</g>
	</g>
	<g class="st20">
		<pattern  id="SVGID_9_" xlink:href="#New_Pattern_Swatch_44" patternTransform="matrix(1 0 0 1 10 9)"  class="st20">
		</pattern>
		<path class="st21" d="M253.3,797.5c-10.2,0-18.6-8.3-18.6-18.6V599.1c0-10.2,8.3-18.6,18.6-18.6h735.8c10.2,0,18.6,8.3,18.6,18.6
			v179.8c0,10.2-8.3,18.6-18.6,18.6H253.3z"/>
		<path d="M989.1,583c8.9,0,16.1,7.2,16.1,16.1v179.8c0,8.9-7.2,16.1-16.1,16.1H253.3c-8.9,0-16.1-7.2-16.1-16.1V599.1
			c0-8.9,7.2-16.1,16.1-16.1H989.1 M989.1,578H253.3c-11.6,0-21.1,9.4-21.1,21.1v179.8c0,11.6,9.4,21.1,21.1,21.1h735.8
			c11.6,0,21.1-9.4,21.1-21.1V599.1C1010.2,587.4,1000.8,578,989.1,578L989.1,578z"/>
	</g>
	<g>
		<path class="st19" d="M299.1,760.5c-10.2,0-18.6-8.3-18.6-18.6V636.1c0-10.2,8.3-18.6,18.6-18.6h647c10.2,0,18.6,8.3,18.6,18.6
			v105.8c0,10.2-8.3,18.6-18.6,18.6H299.1z"/>
		<path d="M946.1,620c8.9,0,16.1,7.2,16.1,16.1v105.8c0,8.9-7.2,16.1-16.1,16.1h-647c-8.9,0-16.1-7.2-16.1-16.1V636.1
			c0-8.9,7.2-16.1,16.1-16.1H946.1 M946.1,615h-647c-11.6,0-21.1,9.4-21.1,21.1v105.8c0,11.6,9.4,21.1,21.1,21.1h647
			c11.6,0,21.1-9.4,21.1-21.1V636.1C967.2,624.4,957.8,615,946.1,615L946.1,615z"/>
	</g>
	<g>
		<path d="M990.9,583.9c8.9,0,16.1,7.2,16.1,16.1v179.8c0,8.9-7.2,16.1-16.1,16.1H255.1c-8.9,0-16.1-7.2-16.1-16.1V600
			c0-8.9,7.2-16.1,16.1-16.1H990.9 M990.9,578.9H255.1c-11.6,0-21.1,9.4-21.1,21.1v179.8c0,11.6,9.4,21.1,21.1,21.1h735.8
			c11.6,0,21.1-9.4,21.1-21.1V600C1012,588.3,1002.6,578.9,990.9,578.9L990.9,578.9z"/>
	</g>
</g>
<g id="Left_Lights">
	<g>
		<ellipse class="st22" cx="985.9" cy="761" rx="8.3" ry="8.5"/>
		<ellipse class="st22" cx="985.9" cy="729" rx="8.3" ry="8.5"/>
		<ellipse class="st22" cx="985.9" cy="697" rx="8.3" ry="8.5"/>
		<ellipse class="st22" cx="985.9" cy="665" rx="8.3" ry="8.5"/>
		<ellipse class="st22" cx="985.9" cy="633" rx="8.3" ry="8.5"/>
		<ellipse class="st22" cx="977.9" cy="605" rx="8.3" ry="8.5"/>
		<g>
			
				<ellipse transform="matrix(7.556108e-03 -1 1 7.556108e-03 -2.412 1558.3607)" class="st22" cx="783.9" cy="780.4" rx="8.3" ry="8.5"/>
			
				<ellipse transform="matrix(7.556108e-03 -1 1 7.556108e-03 29.1036 1590.5989)" class="st22" cx="815.9" cy="780.6" rx="8.3" ry="8.5"/>
			
				<ellipse transform="matrix(7.556108e-03 -1 1 7.556108e-03 60.6191 1622.837)" class="st22" cx="847.9" cy="780.9" rx="8.3" ry="8.5"/>
			
				<ellipse transform="matrix(7.556108e-03 -1 1 7.556108e-03 92.1346 1655.0752)" class="st22" cx="879.9" cy="781.1" rx="8.3" ry="8.5"/>
			
				<ellipse transform="matrix(7.556108e-03 -1 1 7.556108e-03 123.6501 1687.3134)" class="st22" cx="911.9" cy="781.4" rx="8.3" ry="8.5"/>
			
				<ellipse transform="matrix(7.556108e-03 -1 1 7.556108e-03 155.1656 1719.5515)" class="st22" cx="943.9" cy="781.6" rx="8.3" ry="8.5"/>
			
				<ellipse transform="matrix(7.556108e-03 -1 1 7.556108e-03 181.9691 1744.5583)" class="st22" cx="969.9" cy="780.6" rx="8.3" ry="8.5"/>
			
				<ellipse transform="matrix(7.556108e-03 -1 1 7.556108e-03 -193.9461 1363.3739)" class="st22" cx="589.9" cy="779.4" rx="8.3" ry="8.5"/>
			
				<ellipse transform="matrix(7.556108e-03 -1 1 7.556108e-03 -162.4306 1395.6121)" class="st22" cx="621.9" cy="779.6" rx="8.3" ry="8.5"/>
			
				<ellipse transform="matrix(7.556108e-03 -1 1 7.556108e-03 -130.9151 1427.8501)" class="st22" cx="653.9" cy="779.9" rx="8.3" ry="8.5"/>
			
				<ellipse transform="matrix(7.556108e-03 -1 1 7.556108e-03 -99.3996 1460.0883)" class="st22" cx="685.9" cy="780.1" rx="8.3" ry="8.5"/>
			
				<ellipse transform="matrix(7.556108e-03 -1 1 7.556108e-03 -67.8841 1492.3264)" class="st22" cx="717.9" cy="780.4" rx="8.3" ry="8.5"/>
			
				<ellipse transform="matrix(7.556108e-03 -1 1 7.556108e-03 -36.3685 1524.5646)" class="st22" cx="749.9" cy="780.6" rx="8.3" ry="8.5"/>
			
				<ellipse transform="matrix(7.556108e-03 -1 1 7.556108e-03 -383.5029 1172.3793)" class="st22" cx="398.9" cy="779.4" rx="8.3" ry="8.5"/>
			
				<ellipse transform="matrix(7.556108e-03 -1 1 7.556108e-03 -351.9874 1204.6174)" class="st22" cx="430.9" cy="779.6" rx="8.3" ry="8.5"/>
			
				<ellipse transform="matrix(7.556108e-03 -1 1 7.556108e-03 -320.4719 1236.8556)" class="st22" cx="462.9" cy="779.9" rx="8.3" ry="8.5"/>
			
				<ellipse transform="matrix(7.556108e-03 -1 1 7.556108e-03 -288.9564 1269.0938)" class="st22" cx="494.9" cy="780.1" rx="8.3" ry="8.5"/>
			
				<ellipse transform="matrix(7.556108e-03 -1 1 7.556108e-03 -257.4409 1301.3319)" class="st22" cx="526.9" cy="780.4" rx="8.3" ry="8.5"/>
			
				<ellipse transform="matrix(7.556108e-03 -1 1 7.556108e-03 -225.9253 1333.5701)" class="st22" cx="558.9" cy="780.6" rx="8.3" ry="8.5"/>
			
				<ellipse transform="matrix(7.556108e-03 -1 1 7.556108e-03 -480.4905 1074.1068)" class="st22" cx="300.9" cy="779.1" rx="8.3" ry="8.5"/>
			
				<ellipse transform="matrix(7.556108e-03 -1 1 7.556108e-03 -448.975 1106.345)" class="st22" cx="332.9" cy="779.4" rx="8.3" ry="8.5"/>
			
				<ellipse transform="matrix(7.556108e-03 -1 1 7.556108e-03 -417.4595 1138.5831)" class="st22" cx="364.9" cy="779.6" rx="8.3" ry="8.5"/>
		</g>
		<ellipse class="st22" cx="257.9" cy="761" rx="8.3" ry="8.5"/>
		<ellipse class="st22" cx="269.9" cy="780" rx="8.3" ry="8.5"/>
		<ellipse class="st22" cx="257.9" cy="729" rx="8.3" ry="8.5"/>
		<ellipse class="st22" cx="257.9" cy="697" rx="8.3" ry="8.5"/>
		<ellipse class="st22" cx="257.9" cy="665" rx="8.3" ry="8.5"/>
		<ellipse class="st22" cx="257.9" cy="633" rx="8.3" ry="8.5"/>
		<ellipse class="st22" cx="265.9" cy="605" rx="8.3" ry="8.5"/>
		<g>
			
				<ellipse transform="matrix(7.556108e-03 -1 1 7.556108e-03 175.5905 1379.7134)" class="st22" cx="782.9" cy="601.4" rx="8.3" ry="8.5"/>
			
				<ellipse transform="matrix(7.556108e-03 -1 1 7.556108e-03 207.106 1411.9515)" class="st22" cx="814.9" cy="601.6" rx="8.3" ry="8.5"/>
			
				<ellipse transform="matrix(7.556108e-03 -1 1 7.556108e-03 238.6215 1444.1896)" class="st22" cx="846.9" cy="601.9" rx="8.3" ry="8.5"/>
			
				<ellipse transform="matrix(7.556108e-03 -1 1 7.556108e-03 270.137 1476.4277)" class="st22" cx="878.9" cy="602.1" rx="8.3" ry="8.5"/>
			
				<ellipse transform="matrix(7.556108e-03 -1 1 7.556108e-03 301.6525 1508.6659)" class="st22" cx="910.9" cy="602.4" rx="8.3" ry="8.5"/>
			
				<ellipse transform="matrix(7.556108e-03 -1 1 7.556108e-03 333.168 1540.9041)" class="st22" cx="942.9" cy="602.6" rx="8.3" ry="8.5"/>
			
				<ellipse transform="matrix(7.556108e-03 -1 1 7.556108e-03 -15.9437 1184.7264)" class="st22" cx="588.9" cy="600.4" rx="8.3" ry="8.5"/>
			
				<ellipse transform="matrix(7.556108e-03 -1 1 7.556108e-03 15.5719 1216.9646)" class="st22" cx="620.9" cy="600.6" rx="8.3" ry="8.5"/>
			
				<ellipse transform="matrix(7.556108e-03 -1 1 7.556108e-03 47.0874 1249.2028)" class="st22" cx="652.9" cy="600.9" rx="8.3" ry="8.5"/>
			
				<ellipse transform="matrix(7.556108e-03 -1 1 7.556108e-03 78.6029 1281.4409)" class="st22" cx="684.9" cy="601.1" rx="8.3" ry="8.5"/>
			
				<ellipse transform="matrix(7.556108e-03 -1 1 7.556108e-03 110.1184 1313.679)" class="st22" cx="716.9" cy="601.4" rx="8.3" ry="8.5"/>
			
				<ellipse transform="matrix(7.556108e-03 -1 1 7.556108e-03 141.6339 1345.9171)" class="st22" cx="748.9" cy="601.6" rx="8.3" ry="8.5"/>
			
				<ellipse transform="matrix(7.556108e-03 -1 1 7.556108e-03 -205.5004 993.7319)" class="st22" cx="397.9" cy="600.4" rx="8.3" ry="8.5"/>
			
				<ellipse transform="matrix(7.556108e-03 -1 1 7.556108e-03 -173.9849 1025.9701)" class="st22" cx="429.9" cy="600.6" rx="8.3" ry="8.5"/>
			
				<ellipse transform="matrix(7.556108e-03 -1 1 7.556108e-03 -142.4694 1058.2081)" class="st22" cx="461.9" cy="600.9" rx="8.3" ry="8.5"/>
			
				<ellipse transform="matrix(7.556108e-03 -1 1 7.556108e-03 -110.9539 1090.4463)" class="st22" cx="493.9" cy="601.1" rx="8.3" ry="8.5"/>
			
				<ellipse transform="matrix(7.556108e-03 -1 1 7.556108e-03 -79.4384 1122.6844)" class="st22" cx="525.9" cy="601.4" rx="8.3" ry="8.5"/>
			
				<ellipse transform="matrix(7.556108e-03 -1 1 7.556108e-03 -47.9229 1154.9226)" class="st22" cx="557.9" cy="601.6" rx="8.3" ry="8.5"/>
			
				<ellipse transform="matrix(7.556108e-03 -1 1 7.556108e-03 -302.488 895.4594)" class="st22" cx="299.9" cy="600.1" rx="8.3" ry="8.5"/>
			
				<ellipse transform="matrix(7.556108e-03 -1 1 7.556108e-03 -270.9725 927.6976)" class="st22" cx="331.9" cy="600.4" rx="8.3" ry="8.5"/>
			
				<ellipse transform="matrix(7.556108e-03 -1 1 7.556108e-03 -239.457 959.9357)" class="st22" cx="363.9" cy="600.6" rx="8.3" ry="8.5"/>
		</g>
	</g>
	<path class="st23" d="M774.2,24"/>
	<path class="st23" d="M4.2,20"/>
	<path class="st24" d="M773.5,29H6.1c-2.5,0-4.5-2-4.5-4.5v-2c0-2.5,2-4.5,4.5-4.5h767.4c2.5,0,4.5,2,4.5,4.5v2
		C778,27,776,29,773.5,29z"/>
	<g id="Light_1">
		<path class="st25" d="M732.3,106H728c-2.8,0-5-2.2-5-5V23.5c0-2.8,2.2-5,5-5h4.3c2.8,0,5,2.2,5,5V101
			C737.3,103.8,735,106,732.3,106z"/>
		<path class="st25" d="M690.6,163.2l-29.6-29.3c-1.8-1.7-1.9-4.5-0.2-6.2L712.9,75c1.6-1.7,14.6-1.8,25.7,8.1
			c11.1,9.9,11.9,25.8,10.3,27.5l-52.2,52.7C695.1,165,692.3,164.9,690.6,163.2z"/>
		<path class="st26" d="M702,140.2l-39.3-4.4l-1.9-40.1c0.3-2.7,2.1-4.8,3.9-4.6l46.8,5.2c1.9,0.2,3.1,2.6,2.8,5.3L702,140.2z"/>
		<path class="st26" d="M680.6,122.3l-4.4,39.3l-40.1,1.9c-2.7-0.3-4.8-2.1-4.6-3.9l5.2-46.8c0.2-1.9,2.6-3.1,5.3-2.8L680.6,122.3z"
			/>
		<path class="st26" d="M662.6,144l39.3,4.4l1.9,40.1c-0.3,2.7-2.1,4.8-3.9,4.6l-46.8-5.2c-1.9-0.2-3.1-2.6-2.8-5.3L662.6,144z"/>
		<path class="st26" d="M680.7,163.9l4.4-39.3l40.1-1.9c2.7,0.3,4.8,2.1,4.6,3.9l-5.2,46.8c-0.2,1.9-2.6,3.1-5.3,2.8L680.7,163.9z"
			/>
		<path d="M702.1,139.1l-39.3-4.4l-1.9-40.1c0.3-2.7,2.1-4.8,3.9-4.6l46.8,5.2c1.9,0.2,3.1,2.6,2.8,5.3L702.1,139.1z"/>
		<path d="M680.2,123.4l-4.4,39.3l-40.1,1.9c-2.7-0.3-4.8-2.1-4.6-3.9l5.2-46.8c0.2-1.9,2.6-3.1,5.3-2.8L680.2,123.4z"/>
		<path d="M662,145l39.3,4.4l1.9,40.1c-0.3,2.7-2.1,4.8-3.9,4.6l-46.8-5.2c-1.9-0.2-3.1-2.6-2.8-5.3L662,145z"/>
		<path d="M680.7,163.9l4.4-39.3l40.1-1.9c2.7,0.3,4.8,2.1,4.6,3.9l-5.2,46.8c-0.2,1.9-2.6,3.1-5.3,2.8L680.7,163.9z"/>
		
			<ellipse transform="matrix(0.9984 -5.710340e-02 5.710340e-02 0.9984 -7.0833 39.0656)" class="st27" cx="680" cy="143.5" rx="23.9" ry="26.2"/>
	</g>
	<g id="Light_1_1_">
		<path class="st25" d="M73.2,102.7l4.2-0.7c2.7-0.5,4.6-3.1,4.1-5.8L68.6,19.8c-0.5-2.7-3.1-4.6-5.8-4.1l-4.2,0.7
			c-2.7,0.5-4.6,3.1-4.1,5.8l12.9,76.4C67.9,101.3,70.4,103.2,73.2,102.7z"/>
		<path class="st25" d="M82,162.7l39.8-12.4c2.4-0.7,3.7-3.2,3-5.4l-22-70.8c-0.7-2.2-12.1-8.3-26.6-4.6
			c-14.4,3.7-22.5,17.4-21.8,19.7l22,70.8C77.1,162.2,79.6,163.4,82,162.7z"/>
		<path class="st26" d="M84,153.5l39.5,1.9l8.2-39.3c0.1-2.7-1.3-5.1-3.2-5.2l-47-2.2c-1.9-0.1-3.5,2.1-3.6,4.8L84,153.5z"/>
		<path class="st26" d="M107.9,139.3l-1.9,39.5l39.3,8.2c2.7,0.1,5.1-1.3,5.2-3.2l2.2-47c0.1-1.9-2.1-3.5-4.8-3.6L107.9,139.3z"/>
		<path class="st26" d="M122.4,163.5l-39.5-1.9l-8.2,39.3c-0.1,2.7,1.3,5.1,3.2,5.2l47,2.2c1.9,0.1,3.5-2.1,3.6-4.8L122.4,163.5z"/>
		<path class="st26" d="M101.3,180.3l1.9-39.5l-39.3-8.2c-2.7-0.1-5.1,1.3-5.2,3.2l-2.2,47c-0.1,1.9,2.1,3.5,4.8,3.6L101.3,180.3z"
			/>
		<path d="M84.1,152.5l39.5,1.9l8.2-39.3c0.1-2.7-1.3-5.1-3.2-5.2l-47-2.2c-1.9-0.1-3.5,2.1-3.6,4.8L84.1,152.5z"/>
		<path d="M108.2,140.4l-1.9,39.5l39.3,8.2c2.7,0.1,5.1-1.3,5.2-3.2l2.2-47c0.1-1.9-2.1-3.5-4.8-3.6L108.2,140.4z"/>
		<path d="M122.8,164.6l-39.5-1.9L75.2,202c-0.1,2.7,1.3,5.1,3.2,5.2l47,2.2c1.9,0.1,3.5-2.1,3.6-4.8L122.8,164.6z"/>
		<path d="M101.3,180.3l1.9-39.5l-39.3-8.2c-2.7-0.1-5.1,1.3-5.2,3.2l-2.2,47c-0.1,1.9,2.1,3.5,4.8,3.6L101.3,180.3z"/>
		
			<ellipse transform="matrix(0.2129 -0.9771 0.9771 0.2129 -73.767 228.937)" class="st27" cx="105.2" cy="160.3" rx="26.2" ry="23.9"/>
	</g>
	<g id="Light_1_2_">
		<path class="st25" d="M557.6,100.5l-4.2,1c-2.7,0.6-5.4-1.1-6-3.8l-17.3-75.6c-0.6-2.7,1.1-5.4,3.8-6l4.2-1c2.7-0.6,5.4,1.1,6,3.8
			l17.3,75.6C562,97.2,560.3,99.9,557.6,100.5z"/>
		<path class="st25" d="M551.3,185.6l-39.2-14.2c-2.3-0.8-3.6-3.3-2.8-5.5l25.3-69.7c0.8-2.2,12.5-7.7,26.8-3.4s21.7,18.5,20.9,20.7
			L557,183.1C556.2,185.3,553.6,186.4,551.3,185.6z"/>
		<path class="st26" d="M549.7,176.4h-39.5l-6.3-39.6c0-2.8,1.5-5,3.4-5h47.1c1.9,0,3.4,2.2,3.4,5L549.7,176.4z"/>
		<path class="st26" d="M526.5,161v39.5l-39.6,6.3c-2.8,0-5-1.5-5-3.4v-47.1c0-1.9,2.2-3.4,5-3.4L526.5,161z"/>
		<path class="st26" d="M510.9,184.5h39.5l6.3,39.6c0,2.8-1.5,5-3.4,5h-47.1c-1.9,0-3.4-2.2-3.4-5L510.9,184.5z"/>
		<path class="st26" d="M531.2,202.3v-39.5l39.6-6.3c2.8,0,5,1.5,5,3.4v47.1c0,1.9-2.2,3.4-5,3.4L531.2,202.3z"/>
		<path d="M549.7,175.3h-39.5l-6.3-39.6c0-2.8,1.5-5,3.4-5h47.1c1.9,0,3.4,2.2,3.4,5L549.7,175.3z"/>
		<path d="M526.2,162.1v39.5l-39.6,6.3c-2.8,0-5-1.5-5-3.4v-47.1c0-1.9,2.2-3.4,5-3.4L526.2,162.1z"/>
		<path d="M510.5,185.6H550l6.3,39.6c0,2.8-1.5,5-3.4,5h-47.1c-1.9,0-3.4-2.2-3.4-5L510.5,185.6z"/>
		<path d="M531.2,202.3v-39.5l39.6-6.3c2.8,0,5,1.5,5,3.4v47.1c0,1.9-2.2,3.4-5,3.4L531.2,202.3z"/>
		
			<ellipse transform="matrix(0.986 -0.1668 0.1668 0.986 -22.9734 90.6862)" class="st28" cx="528.2" cy="182.1" rx="23.9" ry="26.2"/>
		
			<ellipse transform="matrix(0.986 -0.1668 0.1668 0.986 -22.8663 90.6587)" class="st29" cx="528.1" cy="181.4" rx="24.2" ry="26.6"/>
	</g>
	<g id="Light_1_3_">
		<path class="st25" d="M202.2,103.8l4.2,0.7c2.7,0.5,5.3-1.4,5.8-4.1L225.1,24c0.5-2.7-1.4-5.3-4.1-5.8l-4.2-0.7
			c-2.7-0.5-5.3,1.4-5.8,4.1l-12.9,76.4C197.6,100.8,199.5,103.4,202.2,103.8z"/>
		<path class="st25" d="M237.8,176.1l32.7-25.9c1.9-1.5,2.3-4.3,0.9-6.1l-46-58.2c-1.4-1.8-14.3-3.4-26.5,5.2s-14.7,24.4-13.3,26.2
			l46,58.2C233,177.4,235.8,177.6,237.8,176.1z"/>
		<path class="st26" d="M228.9,152h39.5l6.3-39.6c0-2.8-1.5-5-3.4-5h-47.1c-1.9,0-3.4,2.2-3.4,5L228.9,152z"/>
		<path class="st26" d="M252.1,136.6v39.5l39.6,6.3c2.8,0,5-1.5,5-3.4V132c0-1.9-2.2-3.4-5-3.4L252.1,136.6z"/>
		<path class="st26" d="M267.7,160.1h-39.5l-6.3,39.6c0,2.8,1.5,5,3.4,5h47.1c1.9,0,3.4-2.2,3.4-5L267.7,160.1z"/>
		<path class="st26" d="M247.5,177.9v-39.5l-39.6-6.3c-2.8,0-5,1.5-5,3.4v47.1c0,1.9,2.2,3.4,5,3.4L247.5,177.9z"/>
		<path d="M228.9,150.9h39.5l6.3-39.6c0-2.8-1.5-5-3.4-5h-47.1c-1.9,0-3.4,2.2-3.4,5L228.9,150.9z"/>
		<path d="M252.5,137.7v39.5l39.6,6.3c2.8,0,5-1.5,5-3.4v-47.1c0-1.9-2.2-3.4-5-3.4L252.5,137.7z"/>
		<path d="M268.2,161.2h-39.5l-6.3,39.6c0,2.8,1.5,5,3.4,5h47.1c1.9,0,3.4-2.2,3.4-5L268.2,161.2z"/>
		<path d="M247.5,177.9v-39.5l-39.6-6.3c-2.8,0-5,1.5-5,3.4v47.1c0,1.9,2.2,3.4,5,3.4L247.5,177.9z"/>
		
			<ellipse transform="matrix(0.1668 -0.986 0.986 0.1668 49.4325 381.421)" class="st30" cx="250.4" cy="161.5" rx="26.2" ry="23.9"/>
	</g>
	<ellipse transform="matrix(0.986 -0.1668 0.1668 0.986 -14.4979 115.479)" class="st31" cx="680" cy="144" rx="25.6" ry="28.4"/>
	
		<ellipse transform="matrix(0.986 -0.1668 0.1668 0.986 -23.7001 44.0209)" class="st29" cx="250.1" cy="163.1" rx="23.6" ry="25.9"/>
	<ellipse transform="matrix(0.986 -0.1668 0.1668 0.986 -25.0375 19.9764)" class="st29" cx="106.4" cy="159" rx="26.4" ry="26.4"/>
	<g id="Light_1_4_">
		<path class="st25" d="M408,102.7h-4.3c-2.8,0-5-2.2-5-5V20.2c0-2.8,2.2-5,5-5h4.3c2.8,0,5,2.2,5,5v77.5
			C413,100.4,410.7,102.7,408,102.7z"/>
		<path class="st25" d="M405.7,170.2l-40.9-7.9c-2.4-0.5-4.1-2.7-3.6-5l14.1-72.8c0.4-2.3,11.1-9.6,25.9-7.5
			c14.8,2,24.3,14.9,23.9,17.1l-14.1,72.8C410.4,169.2,408.1,170.7,405.7,170.2z"/>
		<path class="st26" d="M402.4,144.8L367.3,163l-23.8-32.2c-1.3-2.4-0.9-5.1,0.7-6l41.8-21.7c1.7-0.9,4.1,0.4,5.3,2.9L402.4,144.8z"
			/>
		<path class="st26" d="M374.7,141.8l18.2,35.1l-32.2,23.8c-2.4,1.3-5.1,0.9-6-0.7L333,158.2c-0.9-1.7,0.4-4.1,2.9-5.3L374.7,141.8z
			"/>
		<path class="st26" d="M371.7,169.9l35.1-18.2l23.8,32.2c1.3,2.4,0.9,5.1-0.7,6l-41.8,21.7c-1.7,0.9-4.1-0.4-5.3-2.9L371.7,169.9z"
			/>
		<path class="st26" d="M397.9,176.3l-18.2-35.1l32.2-23.8c2.4-1.3,5.1-0.9,6,0.7l21.7,41.8c0.9,1.7-0.4,4.1-2.9,5.3L397.9,176.3z"
			/>
		<path d="M401.9,143.8L366.8,162l-23.8-32.2c-1.3-2.4-0.9-5.1,0.7-6l41.8-21.7c1.7-0.9,4.1,0.4,5.3,2.9L401.9,143.8z"/>
		<path d="M374.9,142.9l18.2,35.1l-32.2,23.8c-2.4,1.3-5.1,0.9-6-0.7l-21.7-41.8c-0.9-1.7,0.4-4.1,2.9-5.3L374.9,142.9z"/>
		<path d="M371.8,171l35.1-18.2l23.8,32.2c1.3,2.4,0.9,5.1-0.7,6l-41.8,21.7c-1.7,0.9-4.1-0.4-5.3-2.9L371.8,171z"/>
		<path d="M397.9,176.3l-18.2-35.1l32.2-23.8c2.4-1.3,5.1-0.9,6,0.7l21.7,41.8c0.9,1.7-0.4,4.1-2.9,5.3L397.9,176.3z"/>
		
			<ellipse transform="matrix(0.7983 -0.6023 0.6023 0.7983 -18.3368 264.6617)" class="st27" cx="385.9" cy="159.7" rx="23.9" ry="26.2"/>
		
			<ellipse transform="matrix(0.986 -0.1668 0.1668 0.986 -21.2367 66.6325)" class="st29" cx="385.9" cy="159.7" rx="24.2" ry="26.6"/>
	</g>
</g>
<g id="Layer_4">
	<g class="st32">
		<path class="st33" d="M65.4,359.5c-10.2,0-18.6-8.3-18.6-18.6V235.1c0-10.2,8.3-18.6,18.6-18.6h647c10.2,0,18.6,8.3,18.6,18.6
			v105.8c0,10.2-8.3,18.6-18.6,18.6H65.4z"/>
		<path class="st4" d="M712.4,219c8.9,0,16.1,7.2,16.1,16.1v105.8c0,8.9-7.2,16.1-16.1,16.1h-647c-8.9,0-16.1-7.2-16.1-16.1V235.1
			c0-8.9,7.2-16.1,16.1-16.1H712.4 M712.4,214h-647c-11.6,0-21.1,9.4-21.1,21.1v105.8c0,11.6,9.4,21.1,21.1,21.1h647
			c11.6,0,21.1-9.4,21.1-21.1V235.1C733.5,223.4,724,214,712.4,214L712.4,214z"/>
	</g>
</g>
</svg>
