<svg xmlns="http://www.w3.org/2000/svg" xmlns:xlink="http://www.w3.org/1999/xlink" id="Layer_1" x="0" y="0" version="1.1" viewBox="0 0 778 315.5" xml:space="preserve" style="enable-background:new 0 0 778 315.5"><style type="text/css">.st0{fill:none}.st1{fill:#666}.st2{fill:#999}.st3{fill:none;stroke-width:9;stroke-linecap:round;stroke-miterlimit:10}.st3,.st4{stroke:#231f20}.st4,.st5{stroke-linecap:round;stroke-miterlimit:10}.st4,.st5{fill:url(#SVGID_1_);stroke-width:2}.st5{fill:#c1272d;stroke:#000}.st6{fill:#1c2833}.st10,.st11,.st7{stroke-linecap:round;stroke-miterlimit:10}.st7{stroke:#fff;stroke-width:10}.st7,.st8{fill:#fff}.st8,.st9{stroke-linecap:round;stroke-miterlimit:10}.st8,.st9{stroke:#000;stroke-width:2}.st9{fill:#9b212a}.st10,.st11{fill:#fff;stroke:#fff;stroke-width:8}.st11{stroke-width:7}.st12{opacity:.39;fill:#c1272d;enable-background:new}.st13{display:none;opacity:.26}.st14{fill:url(#SVGID_2_)}.st14,.st15{display:inline}</style><pattern id="New_Pattern_Swatch_23" width="10" height="10" y="315.5" patternUnits="userSpaceOnUse" viewBox="0 -10 10 10" style="overflow:visible"><g><rect width="10" height="10" y="-10" class="st0"/><g><rect width="10" height="10" y="-10" class="st0"/><circle cx="5" cy="-5" r="1" class="st1"/><path d="M10-1v1H9C9-0.6,9.4-1,10-1z" class="st1"/><path d="M1,0H0v-1l0,0C0.6-1,1-0.6,1,0z" class="st1"/><path d="M10-9c-0.6,0-1-0.4-1-1h1V-9z" class="st1"/><path d="M0-9L0-9v-1h1C1-9.4,0.6-9,0-9z" class="st1"/></g></g></pattern><pattern id="New_Pattern_Swatch_44" width="14" height="14" y="315.5" patternUnits="userSpaceOnUse" viewBox="0 -14 14 14" style="overflow:visible"><g><rect width="14" height="14" y="-14" class="st0"/><g><rect width="14" height="14" y="-14" class="st0"/><circle cx="7" cy="-7" r="1.4" class="st2"/><path d="M14-1.4V0h-1.4C12.6-0.8,13.2-1.4,14-1.4z" class="st2"/><path d="M1.4,0H0v-1.4l0,0C0.8-1.4,1.4-0.8,1.4,0z" class="st2"/><path d="M14-12.6c-0.8,0-1.4-0.6-1.4-1.4H14V-12.6z" class="st2"/><path d="M0-12.6L0-12.6V-14h1.4C1.4-13.2,0.8-12.6,0-12.6z" class="st2"/></g></g></pattern><g id="Left_Lights"><path d="M774.2,24" class="st3"/><path d="M4.2,20" class="st3"/><pattern id="SVGID_1_" patternTransform="matrix(1 0 0 -1 -137.8 -15439)" xlink:href="#New_Pattern_Swatch_44"/><path d="M773.5,29H6.1c-2.5,0-4.5-2-4.5-4.5v-2c0-2.5,2-4.5,4.5-4.5h767.4c2.5,0,4.5,2,4.5,4.5v2 C778,27,776,29,773.5,29z" class="st4"/><g id="Light_5"><path d="M732.3,106H728c-2.8,0-5-2.2-5-5V23.5c0-2.8,2.2-5,5-5h4.3c2.8,0,5,2.2,5,5V101 C737.3,103.8,735,106,732.3,106z" class="st5"/><path d="M690.6,163.2L661,133.9c-1.8-1.7-1.9-4.5-0.2-6.2L712.9,75c1.6-1.7,14.6-1.8,25.7,8.1 c11.1,9.9,11.9,25.8,10.3,27.5l-52.2,52.7C695.1,165,692.3,164.9,690.6,163.2z" class="st5"/><path d="M702.1,139.1l-39.3-4.4l-1.9-40.1c0.3-2.7,2.1-4.8,3.9-4.6l46.8,5.2c1.9,0.2,3.1,2.6,2.8,5.3L702.1,139.1z" class="st6"/><path d="M680.2,123.4l-4.4,39.3l-40.1,1.9c-2.7-0.3-4.8-2.1-4.6-3.9l5.2-46.8c0.2-1.9,2.6-3.1,5.3-2.8L680.2,123.4z" class="st6"/><path d="M662,145l39.3,4.4l1.9,40.1c-0.3,2.7-2.1,4.8-3.9,4.6l-46.8-5.2c-1.9-0.2-3.1-2.6-2.8-5.3L662,145z" class="st6"/><path d="M680.7,163.9l4.4-39.3l40.1-1.9c2.7,0.3,4.8,2.1,4.6,3.9l-5.2,46.8c-0.2,1.9-2.6,3.1-5.3,2.8L680.7,163.9z" class="st6"/><ellipse cx="680" cy="143.5" class="st7" rx="23.9" ry="26.2" transform="matrix(0.9984 -5.710159e-02 5.710159e-02 0.9984 -7.0849 39.0645)"/><ellipse cx="680" cy="144" class="st8" rx="25.6" ry="28.4" transform="matrix(0.986 -0.1668 0.1668 0.986 -14.4994 115.441)"/></g><g id="Light_1_1_"><path d="M73.2,102.7l4.2-0.7c2.7-0.5,4.6-3.1,4.1-5.8L68.6,19.8c-0.5-2.7-3.1-4.6-5.8-4.1l-4.2,0.7 c-2.7,0.5-4.6,3.1-4.1,5.8l12.9,76.4C67.9,101.3,70.4,103.2,73.2,102.7z" class="st5"/><path d="M82,162.7l39.8-12.4c2.4-0.7,3.7-3.2,3-5.4l-22-70.8c-0.7-2.2-12.1-8.3-26.6-4.6 c-14.4,3.7-22.5,17.4-21.8,19.7l22,70.8C77.1,162.2,79.6,163.4,82,162.7z" class="st5"/><path d="M84.1,152.5l39.5,1.9l8.2-39.3c0.1-2.7-1.3-5.1-3.2-5.2l-47-2.2c-1.9-0.1-3.5,2.1-3.6,4.8L84.1,152.5z" class="st6"/><path d="M108.2,140.4l-1.9,39.5l39.3,8.2c2.7,0.1,5.1-1.3,5.2-3.2l2.2-47c0.1-1.9-2.1-3.5-4.8-3.6L108.2,140.4z" class="st6"/><path d="M122.8,164.6l-39.5-1.9L75.2,202c-0.1,2.7,1.3,5.1,3.2,5.2l47,2.2c1.9,0.1,3.5-2.1,3.6-4.8L122.8,164.6z" class="st6"/><path d="M101.3,180.3l1.9-39.5l-39.3-8.2c-2.7-0.1-5.1,1.3-5.2,3.2l-2.2,47c-0.1,1.9,2.1,3.5,4.8,3.6L101.3,180.3z" class="st6"/><ellipse cx="105.3" cy="160.3" class="st7" rx="26.2" ry="23.9" transform="matrix(0.2129 -0.9771 0.9771 0.2129 -73.7496 228.9987)"/><ellipse cx="106.4" cy="159" class="st9" rx="26.4" ry="26.4" transform="matrix(0.986 -0.1668 0.1668 0.986 -25.031 19.9738)"/></g><g id="Light_4"><path d="M557.6,100.5l-4.2,1c-2.7,0.6-5.4-1.1-6-3.8l-17.3-75.6c-0.6-2.7,1.1-5.4,3.8-6l4.2-1c2.7-0.6,5.4,1.1,6,3.8 l17.3,75.6C562,97.2,560.3,99.9,557.6,100.5z" class="st5"/><path d="M551.3,185.6l-39.2-14.2c-2.3-0.8-3.6-3.3-2.8-5.5l25.3-69.7c0.8-2.2,12.5-7.7,26.8-3.4s21.7,18.5,20.9,20.7 L557,183.1C556.2,185.3,553.6,186.4,551.3,185.6z" class="st5"/><path d="M549.7,175.3h-39.5l-6.3-39.6c0-2.8,1.5-5,3.4-5h47.1c1.9,0,3.4,2.2,3.4,5L549.7,175.3z" class="st6"/><path d="M526.2,162.1v39.5l-39.6,6.3c-2.8,0-5-1.5-5-3.4v-47.1c0-1.9,2.2-3.4,5-3.4L526.2,162.1z" class="st6"/><path d="M510.5,185.6H550l6.3,39.6c0,2.8-1.5,5-3.4,5h-47.1c-1.9,0-3.4-2.2-3.4-5L510.5,185.6z" class="st6"/><path d="M531.2,202.3v-39.5l39.6-6.3c2.8,0,5,1.5,5,3.4V207c0,1.9-2.2,3.4-5,3.4L531.2,202.3z" class="st6"/><ellipse cx="528.2" cy="182.1" class="st10" rx="23.9" ry="26.2" transform="matrix(0.986 -0.1668 0.1668 0.986 -22.9799 90.6555)"/><ellipse cx="528.1" cy="181.4" class="st8" rx="24.2" ry="26.6" transform="matrix(0.986 -0.1668 0.1668 0.986 -22.8645 90.6276)"/></g><g id="Light_2"><path d="M202.2,103.8l4.2,0.7c2.7,0.5,5.3-1.4,5.8-4.1L225.1,24c0.5-2.7-1.4-5.3-4.1-5.8l-4.2-0.7 c-2.7-0.5-5.3,1.4-5.8,4.1L198.1,98C197.6,100.8,199.5,103.4,202.2,103.8z" class="st5"/><path d="M237.8,176.1l32.7-25.9c1.9-1.5,2.3-4.3,0.9-6.1l-46-58.2c-1.4-1.8-14.3-3.4-26.5,5.2s-14.7,24.4-13.3,26.2 l46,58.2C233,177.4,235.8,177.6,237.8,176.1z" class="st5"/><path d="M228.9,150.9h39.5l6.3-39.6c0-2.8-1.5-5-3.4-5h-47.1c-1.9,0-3.4,2.2-3.4,5L228.9,150.9z" class="st6"/><path d="M252.5,137.7v39.5l39.6,6.3c2.8,0,5-1.5,5-3.4V133c0-1.9-2.2-3.4-5-3.4L252.5,137.7z" class="st6"/><path d="M268.2,161.2h-39.5l-6.3,39.6c0,2.8,1.5,5,3.4,5h47.1c1.9,0,3.4-2.2,3.4-5L268.2,161.2z" class="st6"/><path d="M247.5,177.9v-39.5l-39.6-6.3c-2.8,0-5,1.5-5,3.4v47.1c0,1.9,2.2,3.4,5,3.4L247.5,177.9z" class="st6"/><ellipse cx="250.4" cy="161.5" class="st11" rx="26.2" ry="23.9" transform="matrix(0.1668 -0.986 0.986 0.1668 49.4627 381.4626)"/><ellipse cx="250.1" cy="163.1" class="st8" rx="23.6" ry="25.9" transform="matrix(0.986 -0.1668 0.1668 0.986 -23.7046 44.0021)"/></g><g id="Light_3"><path d="M408,102.7h-4.3c-2.8,0-5-2.2-5-5V20.2c0-2.8,2.2-5,5-5h4.3c2.8,0,5,2.2,5,5v77.5 C413,100.4,410.7,102.7,408,102.7z" class="st5"/><path d="M405.7,170.2l-40.9-7.9c-2.4-0.5-4.1-2.7-3.6-5l14.1-72.8c0.4-2.3,11.1-9.6,25.9-7.5 c14.8,2,24.3,14.9,23.9,17.1L411,166.9C410.4,169.2,408.1,170.7,405.7,170.2z" class="st5"/><path d="M401.9,143.8L366.8,162L343,129.8c-1.3-2.4-0.9-5.1,0.7-6l41.8-21.7c1.7-0.9,4.1,0.4,5.3,2.9L401.9,143.8z" class="st6"/><path d="M374.9,142.9l18.2,35.1l-32.2,23.8c-2.4,1.3-5.1,0.9-6-0.7l-21.7-41.8c-0.9-1.7,0.4-4.1,2.9-5.3L374.9,142.9z" class="st6"/><path d="M371.8,171l35.1-18.2l23.8,32.2c1.3,2.4,0.9,5.1-0.7,6l-41.8,21.7c-1.7,0.9-4.1-0.4-5.3-2.9L371.8,171z" class="st6"/><path d="M397.9,176.3l-18.2-35.1l32.2-23.8c2.4-1.3,5.1-0.9,6,0.7l21.7,41.8c0.9,1.7-0.4,4.1-2.9,5.3L397.9,176.3z" class="st6"/><ellipse cx="385.9" cy="159.7" class="st7" rx="23.9" ry="26.2" transform="matrix(0.7983 -0.6023 0.6023 0.7983 -18.3523 264.6498)"/><ellipse cx="385.9" cy="159.7" class="st8" rx="24.2" ry="26.6" transform="matrix(0.986 -0.1668 0.1668 0.986 -21.2364 66.6049)"/></g><path d="M104.1,315.5L79.9,159v-7c0,0,14.1-17.7,28.2-17.7s23.7,17.7,23.7,17.7l69.9,164.5L104.1,315.5z" class="st12"/></g><g id="Layer_4"><g class="st13"><pattern id="SVGID_2_" patternTransform="matrix(1 0 0 -1 -145.8 -15431)" xlink:href="#New_Pattern_Swatch_23" style="opacity:.26"/><path d="M65.4,359.5c-10.2,0-18.6-8.3-18.6-18.6V235.1c0-10.2,8.3-18.6,18.6-18.6h647c10.2,0,18.6,8.3,18.6,18.6 v105.8c0,10.2-8.3,18.6-18.6,18.6L65.4,359.5L65.4,359.5z" class="st14"/><path d="M712.4,219c8.9,0,16.1,7.2,16.1,16.1v105.8c0,8.9-7.2,16.1-16.1,16.1h-647c-8.9,0-16.1-7.2-16.1-16.1V235.1 c0-8.9,7.2-16.1,16.1-16.1H712.4 M712.4,214h-647c-11.6,0-21.1,9.4-21.1,21.1v105.8c0,11.6,9.4,21.1,21.1,21.1h647 c11.6,0,21.1-9.4,21.1-21.1V235.1C733.5,223.4,724,214,712.4,214L712.4,214z" class="st15"/></g></g></svg>