<?xml version="1.0" encoding="utf-8"?>
<!-- Generator: Adobe Illustrator 21.0.2, SVG Export Plug-In . SVG Version: 6.00 Build 0)  -->
<svg version="1.1" id="Layer_1" xmlns="http://www.w3.org/2000/svg" xmlns:xlink="http://www.w3.org/1999/xlink" x="0px" y="0px"
	 viewBox="0 0 778 315.5" style="enable-background:new 0 0 778 315.5;" xml:space="preserve">
<style type="text/css">
	.st0{fill:none;}
	.st1{fill:#666666;}
	.st2{fill:#999999;}
	.st3{fill:none;stroke:#231F20;stroke-width:9;stroke-linecap:round;stroke-miterlimit:10;}
	.st4{fill:url(#SVGID_1_);stroke:#231F20;stroke-width:2;stroke-linecap:round;stroke-miterlimit:10;}
	.st5{fill:#C1272D;stroke:#000000;stroke-width:2;stroke-linecap:round;stroke-miterlimit:10;}
	.st6{fill:#1C2833;}
	.st7{fill:#FFFFFF;stroke:#FFFFFF;stroke-width:10;stroke-linecap:round;stroke-miterlimit:10;}
	.st8{fill:#9B212A;stroke:#000000;stroke-width:2;stroke-linecap:round;stroke-miterlimit:10;}
	.st9{fill:#FFFFFF;stroke:#FFFFFF;stroke-width:8;stroke-linecap:round;stroke-miterlimit:10;}
	.st10{fill:#FFFFFF;stroke:#FFFFFF;stroke-width:7;stroke-linecap:round;stroke-miterlimit:10;}
	.st11{opacity:0.39;fill:#C1272D;enable-background:new    ;}
	.st12{opacity:0.6;fill:#C1272D;enable-background:new    ;}
	.st13{display:none;opacity:0.26;}
	.st14{display:inline;fill:url(#SVGID_2_);}
	.st15{display:inline;}
</style>
<pattern  y="315.5" width="10" height="10" patternUnits="userSpaceOnUse" id="New_Pattern_Swatch_23" viewBox="0 -10 10 10" style="overflow:visible;">
	<g>
		<rect y="-10" class="st0" width="10" height="10"/>
		<g>
			<rect y="-10" class="st0" width="10" height="10"/>
			<circle class="st1" cx="5" cy="-5" r="1"/>
			<path class="st1" d="M10-1v1H9C9-0.6,9.4-1,10-1z"/>
			<path class="st1" d="M1,0H0v-1l0,0C0.6-1,1-0.6,1,0z"/>
			<path class="st1" d="M10-9c-0.6,0-1-0.4-1-1h1V-9z"/>
			<path class="st1" d="M0-9L0-9v-1h1C1-9.4,0.6-9,0-9z"/>
		</g>
	</g>
</pattern>
<pattern  y="315.5" width="14" height="14" patternUnits="userSpaceOnUse" id="New_Pattern_Swatch_44" viewBox="0 -14 14 14" style="overflow:visible;">
	<g>
		<rect y="-14" class="st0" width="14" height="14"/>
		<g>
			<rect y="-14" class="st0" width="14" height="14"/>
			<circle class="st2" cx="7" cy="-7" r="1.4"/>
			<path class="st2" d="M14-1.4V0h-1.4C12.6-0.8,13.2-1.4,14-1.4z"/>
			<path class="st2" d="M1.4,0H0v-1.4l0,0C0.8-1.4,1.4-0.8,1.4,0z"/>
			<path class="st2" d="M14-12.6c-0.8,0-1.4-0.6-1.4-1.4H14V-12.6z"/>
			<path class="st2" d="M0-12.6L0-12.6V-14h1.4C1.4-13.2,0.8-12.6,0-12.6z"/>
		</g>
	</g>
</pattern>
<g id="Left_Lights">
	<path class="st3" d="M774.2,24"/>
	<path class="st3" d="M4.2,20"/>
	<pattern  id="SVGID_1_" xlink:href="#New_Pattern_Swatch_44" patternTransform="matrix(1 0 0 -1 -137.8 -15439)">
	</pattern>
	<path class="st4" d="M773.5,29H6.1c-2.5,0-4.5-2-4.5-4.5v-2c0-2.5,2-4.5,4.5-4.5h767.4c2.5,0,4.5,2,4.5,4.5v2
		C778,27,776,29,773.5,29z"/>
	<g id="Light_5">
		<path class="st5" d="M732.3,106H728c-2.8,0-5-2.2-5-5V23.5c0-2.8,2.2-5,5-5h4.3c2.8,0,5,2.2,5,5V101
			C737.3,103.8,735,106,732.3,106z"/>
		<path class="st5" d="M690.6,163.2L661,133.9c-1.8-1.7-1.9-4.5-0.2-6.2L712.9,75c1.6-1.7,14.6-1.8,25.7,8.1
			c11.1,9.9,11.9,25.8,10.3,27.5l-52.2,52.7C695.1,165,692.3,164.9,690.6,163.2z"/>
		<path class="st6" d="M702.1,139.1l-39.3-4.4l-1.9-40.1c0.3-2.7,2.1-4.8,3.9-4.6l46.8,5.2c1.9,0.2,3.1,2.6,2.8,5.3L702.1,139.1z"/>
		<path class="st6" d="M680.2,123.4l-4.4,39.3l-40.1,1.9c-2.7-0.3-4.8-2.1-4.6-3.9l5.2-46.8c0.2-1.9,2.6-3.1,5.3-2.8L680.2,123.4z"
			/>
		<path class="st6" d="M662,145l39.3,4.4l1.9,40.1c-0.3,2.7-2.1,4.8-3.9,4.6l-46.8-5.2c-1.9-0.2-3.1-2.6-2.8-5.3L662,145z"/>
		<path class="st6" d="M680.7,163.9l4.4-39.3l40.1-1.9c2.7,0.3,4.8,2.1,4.6,3.9l-5.2,46.8c-0.2,1.9-2.6,3.1-5.3,2.8L680.7,163.9z"/>
		
			<ellipse transform="matrix(0.9984 -5.710159e-02 5.710159e-02 0.9984 -7.0849 39.0645)" class="st7" cx="680" cy="143.5" rx="23.9" ry="26.2"/>
		<ellipse transform="matrix(0.986 -0.1668 0.1668 0.986 -14.4994 115.441)" class="st8" cx="680" cy="144" rx="25.6" ry="28.4"/>
	</g>
	<g id="Light_1_1_">
		<path class="st5" d="M73.2,102.7l4.2-0.7c2.7-0.5,4.6-3.1,4.1-5.8L68.6,19.8c-0.5-2.7-3.1-4.6-5.8-4.1l-4.2,0.7
			c-2.7,0.5-4.6,3.1-4.1,5.8l12.9,76.4C67.9,101.3,70.4,103.2,73.2,102.7z"/>
		<path class="st5" d="M82,162.7l39.8-12.4c2.4-0.7,3.7-3.2,3-5.4l-22-70.8c-0.7-2.2-12.1-8.3-26.6-4.6
			c-14.4,3.7-22.5,17.4-21.8,19.7l22,70.8C77.1,162.2,79.6,163.4,82,162.7z"/>
		<path class="st6" d="M84.1,152.5l39.5,1.9l8.2-39.3c0.1-2.7-1.3-5.1-3.2-5.2l-47-2.2c-1.9-0.1-3.5,2.1-3.6,4.8L84.1,152.5z"/>
		<path class="st6" d="M108.2,140.4l-1.9,39.5l39.3,8.2c2.7,0.1,5.1-1.3,5.2-3.2l2.2-47c0.1-1.9-2.1-3.5-4.8-3.6L108.2,140.4z"/>
		<path class="st6" d="M122.8,164.6l-39.5-1.9L75.2,202c-0.1,2.7,1.3,5.1,3.2,5.2l47,2.2c1.9,0.1,3.5-2.1,3.6-4.8L122.8,164.6z"/>
		<path class="st6" d="M101.3,180.3l1.9-39.5l-39.3-8.2c-2.7-0.1-5.1,1.3-5.2,3.2l-2.2,47c-0.1,1.9,2.1,3.5,4.8,3.6L101.3,180.3z"/>
		
			<ellipse transform="matrix(0.2129 -0.9771 0.9771 0.2129 -73.7496 228.9987)" class="st7" cx="105.3" cy="160.3" rx="26.2" ry="23.9"/>
		<ellipse transform="matrix(0.986 -0.1668 0.1668 0.986 -25.031 19.9738)" class="st8" cx="106.4" cy="159" rx="26.4" ry="26.4"/>
	</g>
	<g id="Light_4">
		<path class="st5" d="M557.6,100.5l-4.2,1c-2.7,0.6-5.4-1.1-6-3.8l-17.3-75.6c-0.6-2.7,1.1-5.4,3.8-6l4.2-1c2.7-0.6,5.4,1.1,6,3.8
			l17.3,75.6C562,97.2,560.3,99.9,557.6,100.5z"/>
		<path class="st5" d="M551.3,185.6l-39.2-14.2c-2.3-0.8-3.6-3.3-2.8-5.5l25.3-69.7c0.8-2.2,12.5-7.7,26.8-3.4s21.7,18.5,20.9,20.7
			L557,183.1C556.2,185.3,553.6,186.4,551.3,185.6z"/>
		<path class="st6" d="M549.7,175.3h-39.5l-6.3-39.6c0-2.8,1.5-5,3.4-5h47.1c1.9,0,3.4,2.2,3.4,5L549.7,175.3z"/>
		<path class="st6" d="M526.2,162.1v39.5l-39.6,6.3c-2.8,0-5-1.5-5-3.4v-47.1c0-1.9,2.2-3.4,5-3.4L526.2,162.1z"/>
		<path class="st6" d="M510.5,185.6H550l6.3,39.6c0,2.8-1.5,5-3.4,5h-47.1c-1.9,0-3.4-2.2-3.4-5L510.5,185.6z"/>
		<path class="st6" d="M531.2,202.3v-39.5l39.6-6.3c2.8,0,5,1.5,5,3.4V207c0,1.9-2.2,3.4-5,3.4L531.2,202.3z"/>
		
			<ellipse transform="matrix(0.986 -0.1668 0.1668 0.986 -22.9799 90.6555)" class="st9" cx="528.2" cy="182.1" rx="23.9" ry="26.2"/>
		
			<ellipse transform="matrix(0.986 -0.1668 0.1668 0.986 -22.8645 90.6276)" class="st8" cx="528.1" cy="181.4" rx="24.2" ry="26.6"/>
	</g>
	<g id="Light_2">
		<path class="st5" d="M202.2,103.8l4.2,0.7c2.7,0.5,5.3-1.4,5.8-4.1L225.1,24c0.5-2.7-1.4-5.3-4.1-5.8l-4.2-0.7
			c-2.7-0.5-5.3,1.4-5.8,4.1L198.1,98C197.6,100.8,199.5,103.4,202.2,103.8z"/>
		<path class="st5" d="M237.8,176.1l32.7-25.9c1.9-1.5,2.3-4.3,0.9-6.1l-46-58.2c-1.4-1.8-14.3-3.4-26.5,5.2s-14.7,24.4-13.3,26.2
			l46,58.2C233,177.4,235.8,177.6,237.8,176.1z"/>
		<path class="st6" d="M228.9,150.9h39.5l6.3-39.6c0-2.8-1.5-5-3.4-5h-47.1c-1.9,0-3.4,2.2-3.4,5L228.9,150.9z"/>
		<path class="st6" d="M252.5,137.7v39.5l39.6,6.3c2.8,0,5-1.5,5-3.4V133c0-1.9-2.2-3.4-5-3.4L252.5,137.7z"/>
		<path class="st6" d="M268.2,161.2h-39.5l-6.3,39.6c0,2.8,1.5,5,3.4,5h47.1c1.9,0,3.4-2.2,3.4-5L268.2,161.2z"/>
		<path class="st6" d="M247.5,177.9v-39.5l-39.6-6.3c-2.8,0-5,1.5-5,3.4v47.1c0,1.9,2.2,3.4,5,3.4L247.5,177.9z"/>
		
			<ellipse transform="matrix(0.1668 -0.986 0.986 0.1668 49.4627 381.4626)" class="st10" cx="250.4" cy="161.5" rx="26.2" ry="23.9"/>
		
			<ellipse transform="matrix(0.986 -0.1668 0.1668 0.986 -23.7046 44.0021)" class="st8" cx="250.1" cy="163.1" rx="23.6" ry="25.9"/>
	</g>
	<g id="Light_3">
		<path class="st5" d="M408,102.7h-4.3c-2.8,0-5-2.2-5-5V20.2c0-2.8,2.2-5,5-5h4.3c2.8,0,5,2.2,5,5v77.5
			C413,100.4,410.7,102.7,408,102.7z"/>
		<path class="st5" d="M405.7,170.2l-40.9-7.9c-2.4-0.5-4.1-2.7-3.6-5l14.1-72.8c0.4-2.3,11.1-9.6,25.9-7.5
			c14.8,2,24.3,14.9,23.9,17.1L411,166.9C410.4,169.2,408.1,170.7,405.7,170.2z"/>
		<path class="st6" d="M401.9,143.8L366.8,162L343,129.8c-1.3-2.4-0.9-5.1,0.7-6l41.8-21.7c1.7-0.9,4.1,0.4,5.3,2.9L401.9,143.8z"/>
		<path class="st6" d="M374.9,142.9l18.2,35.1l-32.2,23.8c-2.4,1.3-5.1,0.9-6-0.7l-21.7-41.8c-0.9-1.7,0.4-4.1,2.9-5.3L374.9,142.9z
			"/>
		<path class="st6" d="M371.8,171l35.1-18.2l23.8,32.2c1.3,2.4,0.9,5.1-0.7,6l-41.8,21.7c-1.7,0.9-4.1-0.4-5.3-2.9L371.8,171z"/>
		<path class="st6" d="M397.9,176.3l-18.2-35.1l32.2-23.8c2.4-1.3,5.1-0.9,6,0.7l21.7,41.8c0.9,1.7-0.4,4.1-2.9,5.3L397.9,176.3z"/>
		
			<ellipse transform="matrix(0.7983 -0.6023 0.6023 0.7983 -18.3523 264.6498)" class="st7" cx="385.9" cy="159.7" rx="23.9" ry="26.2"/>
		
			<ellipse transform="matrix(0.986 -0.1668 0.1668 0.986 -21.2364 66.6049)" class="st8" cx="385.9" cy="159.7" rx="24.2" ry="26.6"/>
	</g>
	<path class="st11" d="M104.1,315.5L79.9,159v-7c0,0,14.1-17.7,28.2-17.7s23.7,17.7,23.7,17.7l69.9,164.5L104.1,315.5z"/>
	<path class="st12" d="M222.2,315.5l4.8-149.4V159c0,0,7.8-27.4,25.5-21.3s20.5,22.7,20.5,22.7L310.6,317L222.2,315.5z"/>
	<path class="st11" d="M325.8,317L361,154.1c0,0,9.6-25.5,29.2-19.8c20,5.8,18.7,23.7,18.7,23.7l22.4,156.5L325.8,317z"/>
	<path class="st12" d="M457.1,314.7l45.7-138.5c0,0,9.6-25.5,29.2-19.8c20,5.8,18.7,23.7,18.7,23.7l29.2,135.5L457.1,314.7z"/>
	<path class="st11" d="M606.9,317L656,136.3c0,0,9.6-25.5,29.2-19.8c20,5.8,18.7,23.7,18.7,23.7l1.6,176.3L606.9,317z"/>
</g>
<g id="Layer_4">
	<g class="st13">
		
			<pattern  id="SVGID_2_" xlink:href="#New_Pattern_Swatch_23" patternTransform="matrix(1 0 0 -1 -145.8 -15431)"  style="opacity:0.26;">
		</pattern>
		<path class="st14" d="M65.4,359.5c-10.2,0-18.6-8.3-18.6-18.6V235.1c0-10.2,8.3-18.6,18.6-18.6h647c10.2,0,18.6,8.3,18.6,18.6
			v105.8c0,10.2-8.3,18.6-18.6,18.6L65.4,359.5L65.4,359.5z"/>
		<path class="st15" d="M712.4,219c8.9,0,16.1,7.2,16.1,16.1v105.8c0,8.9-7.2,16.1-16.1,16.1h-647c-8.9,0-16.1-7.2-16.1-16.1V235.1
			c0-8.9,7.2-16.1,16.1-16.1H712.4 M712.4,214h-647c-11.6,0-21.1,9.4-21.1,21.1v105.8c0,11.6,9.4,21.1,21.1,21.1h647
			c11.6,0,21.1-9.4,21.1-21.1V235.1C733.5,223.4,724,214,712.4,214L712.4,214z"/>
	</g>
</g>
</svg>
