<svg xmlns="http://www.w3.org/2000/svg" xmlns:xlink="http://www.w3.org/1999/xlink" id="Layer_1" x="0" y="0" version="1.1" viewBox="0 0 731.1 569.9" xml:space="preserve" style="enable-background:new 0 0 731.1 569.9"><style type="text/css">.st0{fill:none}.st1{fill:#999}.st2{opacity:.49}.st3{fill:url(#SVGID_1_)}.st4{fill:#c1272d}.st5{fill:#fff}.st6{fill:url(#SVGID_2_)}.st7{fill:none;stroke:#fff;stroke-width:3;stroke-linecap:round;stroke-linejoin:round}.st8{fill:url(#SVGID_3_)}.st10,.st9{stroke:#000;stroke-width:5;stroke-linecap:round;stroke-linejoin:round}.st9{fill:url(#Sign_Middle_Circle_Outline_1_)}.st10{fill:url(#SVGID_4_)}.st11{fill:#bf2121}.st12{fill:url(#SVGID_5_)}.st13{fill:url(#Sign_Middle_Circle_Outline-2_1_);stroke:#000;stroke-linecap:round;stroke-linejoin:round}.st13,.st14{stroke-width:5}.st14,.st15,.st16{stroke:#000;stroke-linecap:round;stroke-linejoin:round}.st14{fill:url(#SVGID_6_)}.st15,.st16{fill:#c1272d;stroke-width:3}.st16{fill:#fff}.st17{font-family:&apos;OpenSans-Bold&apos;}.st18{font-size:27px}.st19{letter-spacing:.9}.st20{fill:none;stroke:#000;stroke-miterlimit:10}.st21{fill:#fff;stroke:#000;stroke-width:5;stroke-linecap:round;stroke-linejoin:round}.st22{fill:url(#SVGID_7_)}.st22,.st23,.st24,.st25{opacity:.49;enable-background:new}.st23{fill:url(#SVGID_8_)}.st24{fill:url(#SVGID_9_)}.st25{fill:url(#SVGID_10_)}.st26{fill:#c1272d;stroke:#000;stroke-width:5;stroke-linecap:round;stroke-linejoin:round}</style><pattern id="New_Pattern_Swatch_44" width="14" height="14" y="569.9" patternUnits="userSpaceOnUse" viewBox="0 -14 14 14" style="overflow:visible"><g><rect width="14" height="14" y="-14" class="st0"/><rect width="14" height="14" y="-14" class="st0"/><circle cx="7" cy="-7" r="1.4" class="st1"/><path d="M14-1.4V0h-1.4C12.6-0.8,13.2-1.4,14-1.4z" class="st1"/><path d="M1.4,0H0v-1.4l0,0C0.8-1.4,1.4-0.8,1.4,0z" class="st1"/><path d="M14-12.6c-0.8,0-1.4-0.6-1.4-1.4H14V-12.6z" class="st1"/><path d="M0-12.6L0-12.6V-14h1.4C1.4-13.2,0.8-12.6,0-12.6z" class="st1"/></g></pattern><pattern id="New_Pattern_Swatch_44-11" width="14" height="14" y="569.9" patternUnits="userSpaceOnUse" viewBox="0 -14 14 14" style="overflow:visible"><g><rect width="14" height="14" y="-14" class="st0"/><rect width="14" height="14" y="-14" class="st0"/><circle cx="7" cy="-7" r="1.4" class="st1"/><path d="M14-1.4V0h-1.4C12.6-0.8,13.2-1.4,14-1.4z" class="st1"/><path d="M1.4,0H0v-1.4l0,0C0.8-1.4,1.4-0.8,1.4,0z" class="st1"/><path d="M14-12.6c-0.8,0-1.4-0.6-1.4-1.4H14V-12.6z" class="st1"/><path d="M0-12.6L0-12.6V-14h1.4C1.4-13.2,0.8-12.6,0-12.6z" class="st1"/></g></pattern><pattern id="New_Pattern_Swatch_44-13" width="14" height="14" y="569.9" patternUnits="userSpaceOnUse" viewBox="0 -14 14 14" style="overflow:visible"><g><rect width="14" height="14" y="-14" class="st0"/><rect width="14" height="14" y="-14" class="st0"/><circle cx="7" cy="-7" r="1.4" class="st1"/><path d="M14-1.4V0h-1.4C12.6-0.8,13.2-1.4,14-1.4z" class="st1"/><path d="M1.4,0H0v-1.4l0,0C0.8-1.4,1.4-0.8,1.4,0z" class="st1"/><path d="M14-12.6c-0.8,0-1.4-0.6-1.4-1.4H14V-12.6z" class="st1"/><path d="M0-12.6L0-12.6V-14h1.4C1.4-13.2,0.8-12.6,0-12.6z" class="st1"/></g></pattern><pattern id="New_Pattern_Swatch_44-15" width="14" height="14" y="569.9" patternUnits="userSpaceOnUse" viewBox="0 -14 14 14" style="overflow:visible"><g><rect width="14" height="14" y="-14" class="st0"/><rect width="14" height="14" y="-14" class="st0"/><circle cx="7" cy="-7" r="1.4" class="st1"/><path d="M14-1.4V0h-1.4C12.6-0.8,13.2-1.4,14-1.4z" class="st1"/><path d="M1.4,0H0v-1.4l0,0C0.8-1.4,1.4-0.8,1.4,0z" class="st1"/><path d="M14-12.6c-0.8,0-1.4-0.6-1.4-1.4H14V-12.6z" class="st1"/><path d="M0-12.6L0-12.6V-14h1.4C1.4-13.2,0.8-12.6,0-12.6z" class="st1"/></g></pattern><pattern id="New_Pattern_Swatch_44-17" width="14" height="14" y="569.9" patternUnits="userSpaceOnUse" viewBox="0 -14 14 14" style="overflow:visible"><g><rect width="14" height="14" y="-14" class="st0"/><rect width="14" height="14" y="-14" class="st0"/><circle cx="7" cy="-7" r="1.4" class="st1"/><path d="M14-1.4V0h-1.4C12.6-0.8,13.2-1.4,14-1.4z" class="st1"/><path d="M1.4,0H0v-1.4l0,0C0.8-1.4,1.4-0.8,1.4,0z" class="st1"/><path d="M14-12.6c-0.8,0-1.4-0.6-1.4-1.4H14V-12.6z" class="st1"/><path d="M0-12.6L0-12.6V-14h1.4C1.4-13.2,0.8-12.6,0-12.6z" class="st1"/></g></pattern><pattern id="New_Pattern_Swatch_44-19" width="14" height="14" y="569.9" patternUnits="userSpaceOnUse" viewBox="0 -14 14 14" style="overflow:visible"><g><rect width="14" height="14" y="-14" class="st0"/><rect width="14" height="14" y="-14" class="st0"/><circle cx="7" cy="-7" r="1.4" class="st1"/><path d="M14-1.4V0h-1.4C12.6-0.8,13.2-1.4,14-1.4z" class="st1"/><path d="M1.4,0H0v-1.4l0,0C0.8-1.4,1.4-0.8,1.4,0z" class="st1"/><path d="M14-12.6c-0.8,0-1.4-0.6-1.4-1.4H14V-12.6z" class="st1"/><path d="M0-12.6L0-12.6V-14h1.4C1.4-13.2,0.8-12.6,0-12.6z" class="st1"/></g></pattern><pattern id="New_Pattern_Swatch_44-21" width="14" height="14" y="569.9" patternUnits="userSpaceOnUse" viewBox="0 -14 14 14" style="overflow:visible"><g><rect width="14" height="14" y="-14" class="st0"/><rect width="14" height="14" y="-14" class="st0"/><circle cx="7" cy="-7" r="1.4" class="st1"/><path d="M14-1.4V0h-1.4C12.6-0.8,13.2-1.4,14-1.4z" class="st1"/><path d="M1.4,0H0v-1.4l0,0C0.8-1.4,1.4-0.8,1.4,0z" class="st1"/><path d="M14-12.6c-0.8,0-1.4-0.6-1.4-1.4H14V-12.6z" class="st1"/><path d="M0-12.6L0-12.6V-14h1.4C1.4-13.2,0.8-12.6,0-12.6z" class="st1"/></g></pattern><pattern id="New_Pattern_Swatch_44-23" width="14" height="14" y="569.9" patternUnits="userSpaceOnUse" viewBox="0 -14 14 14" style="overflow:visible"><g><rect width="14" height="14" y="-14" class="st0"/><rect width="14" height="14" y="-14" class="st0"/><circle cx="7" cy="-7" r="1.4" class="st1"/><path d="M14-1.4V0h-1.4C12.6-0.8,13.2-1.4,14-1.4z" class="st1"/><path d="M1.4,0H0v-1.4l0,0C0.8-1.4,1.4-0.8,1.4,0z" class="st1"/><path d="M14-12.6c-0.8,0-1.4-0.6-1.4-1.4H14V-12.6z" class="st1"/><path d="M0-12.6L0-12.6V-14h1.4C1.4-13.2,0.8-12.6,0-12.6z" class="st1"/></g></pattern><pattern id="New_Pattern_Swatch_44-3" width="14" height="14" y="569.9" patternUnits="userSpaceOnUse" viewBox="0 -14 14 14" style="overflow:visible"><g><rect width="14" height="14" y="-14" class="st0"/><rect width="14" height="14" y="-14" class="st0"/><circle cx="7" cy="-7" r="1.4" class="st1"/><path d="M14-1.4V0h-1.4C12.6-0.8,13.2-1.4,14-1.4z" class="st1"/><path d="M1.4,0H0v-1.4l0,0C0.8-1.4,1.4-0.8,1.4,0z" class="st1"/><path d="M14-12.6c-0.8,0-1.4-0.6-1.4-1.4H14V-12.6z" class="st1"/><path d="M0-12.6L0-12.6V-14h1.4C1.4-13.2,0.8-12.6,0-12.6z" class="st1"/></g></pattern><pattern id="New_Pattern_Swatch_44-5" width="14" height="14" y="569.9" patternUnits="userSpaceOnUse" viewBox="0 -14 14 14" style="overflow:visible"><g><rect width="14" height="14" y="-14" class="st0"/><rect width="14" height="14" y="-14" class="st0"/><circle cx="7" cy="-7" r="1.4" class="st1"/><path d="M14-1.4V0h-1.4C12.6-0.8,13.2-1.4,14-1.4z" class="st1"/><path d="M1.4,0H0v-1.4l0,0C0.8-1.4,1.4-0.8,1.4,0z" class="st1"/><path d="M14-12.6c-0.8,0-1.4-0.6-1.4-1.4H14V-12.6z" class="st1"/><path d="M0-12.6L0-12.6V-14h1.4C1.4-13.2,0.8-12.6,0-12.6z" class="st1"/></g></pattern><pattern id="New_Pattern_Swatch_44-7" width="14" height="14" y="569.9" patternUnits="userSpaceOnUse" viewBox="0 -14 14 14" style="overflow:visible"><g><rect width="14" height="14" y="-14" class="st0"/><rect width="14" height="14" y="-14" class="st0"/><circle cx="7" cy="-7" r="1.4" class="st1"/><path d="M14-1.4V0h-1.4C12.6-0.8,13.2-1.4,14-1.4z" class="st1"/><path d="M1.4,0H0v-1.4l0,0C0.8-1.4,1.4-0.8,1.4,0z" class="st1"/><path d="M14-12.6c-0.8,0-1.4-0.6-1.4-1.4H14V-12.6z" class="st1"/><path d="M0-12.6L0-12.6V-14h1.4C1.4-13.2,0.8-12.6,0-12.6z" class="st1"/></g></pattern><pattern id="New_Pattern_Swatch_44-9" width="14" height="14" y="569.9" patternUnits="userSpaceOnUse" viewBox="0 -14 14 14" style="overflow:visible"><g><rect width="14" height="14" y="-14" class="st0"/><rect width="14" height="14" y="-14" class="st0"/><circle cx="7" cy="-7" r="1.4" class="st1"/><path d="M14-1.4V0h-1.4C12.6-0.8,13.2-1.4,14-1.4z" class="st1"/><path d="M1.4,0H0v-1.4l0,0C0.8-1.4,1.4-0.8,1.4,0z" class="st1"/><path d="M14-12.6c-0.8,0-1.4-0.6-1.4-1.4H14V-12.6z" class="st1"/><path d="M0-12.6L0-12.6V-14h1.4C1.4-13.2,0.8-12.6,0-12.6z" class="st1"/></g></pattern><title>Theaterfront</title><g id="Main_Door"><g id="Sign_Dot_Background" class="st2"><pattern id="SVGID_1_" class="st2" patternTransform="matrix(0.52 0 0 -0.97 -3738.4702 -15454.7041)" xlink:href="#New_Pattern_Swatch_44"/><path d="M370.9,566.1c-1.4,0-2.5-1.1-2.5-2.5V192.9c0-4.7,3.8-8.5,8.5-8.5h139.2c4.7,0,8.5,3.8,8.5,8.5v370.7 c0,1.4-1.1,2.5-2.5,2.5H370.9z" class="st3"/><path d="M516.1,186.9c3.3,0,6,2.7,6,6v370.7H370.9V192.9c0-3.3,2.7-6,6-6H516.1 M516.1,181.9H376.9c-6.1,0-11,4.9-11,11v370.7 c0,2.8,2.2,5,5,5h151.2c2.8,0,5-2.2,5-5V192.9C527.1,186.8,522.2,181.9,516.1,181.9z"/></g><g id="Sign_Outline"><path d="M519.8,188c1.7,0,3,1.3,3,3v373.9h-152V191c0-1.7,1.3-3,3-3H519.8 M519.8,183h-146c-4.4,0-8,3.6-8,8v373.9 c0,2.8,2.2,5,5,5h152c2.8,0,5-2.2,5-5V191C527.8,186.6,524.3,183,519.8,183z"/></g><g id="Sign_Outline-2"><path d="M397.8,541.8c-1.4,0-2.5-1.1-2.5-2.5V211.8c0-3,2.5-5.5,5.5-5.5h99.1c3,0,5.5,2.5,5.5,5.5v327.5 c0,1.4-1.1,2.5-2.5,2.5H397.8z" class="st4"/><path d="M499.9,208.8c1.7,0,3,1.3,3,3v327.5H397.8V211.8c0-1.7,1.3-3,3-3H499.9 M499.9,203.8h-99.1c-4.4,0-8,3.6-8,8v327.5 c0,2.8,2.2,5,5,5h105.1c2.8,0,5-2.2,5-5V211.8C507.9,207.3,504.3,203.8,499.9,203.8z"/></g><g id="Sign_Outline-3"><path d="M379.6,398.4c-0.9,0-1.6-0.7-1.6-1.6v-21.9c0-1.9,1.6-3.5,3.5-3.5s3.5,1.6,3.5,3.5l0,0v21.9 c0,0.9-0.7,1.6-1.6,1.6L379.6,398.4z" class="st5"/><path d="M381.5,372.9c1.1,0,2,0.9,2,2v21.9c0,0.1-0.1,0.1-0.1,0.1h-3.8c-0.1,0-0.1-0.1-0.1-0.1v-21.9 C379.5,373.8,380.4,372.9,381.5,372.9 M381.5,369.9c-2.8,0-5,2.2-5,5v21.9c0,1.7,1.4,3.1,3.1,3.1c0,0,0,0,0,0h3.8 c1.7,0,3.1-1.4,3.1-3.1c0,0,0,0,0,0v-21.9C386.5,372.1,384.3,369.9,381.5,369.9L381.5,369.9z"/></g><g id="Sign_Dot_Background-2" class="st2"><pattern id="SVGID_2_" class="st2" patternTransform="matrix(-0.52 0 0 -0.97 -11895.9102 -15454.6045)" xlink:href="#New_Pattern_Swatch_44-3"/><path d="M209.7,565.9c-1.4,0-2.5-1.1-2.5-2.5V192.8c0-4.7,3.8-8.5,8.5-8.5h139.2c4.7,0,8.5,3.8,8.5,8.5v370.7 c0,1.4-1.1,2.5-2.5,2.5L209.7,565.9z" class="st6"/><path d="M354.9,186.8c3.3,0,6,2.7,6,6v370.7H209.7V192.8c0-3.3,2.7-6,6-6H354.9 M354.9,181.8H215.7c-6.1,0-11,4.9-11,11v370.7 c0,2.8,2.2,5,5,5h151.2c2.8,0,5-2.2,5-5V192.8C365.9,186.7,361,181.8,354.9,181.8z"/></g><g id="Sign_Outline-4"><path d="M357.9,187.9c1.7,0,3,1.3,3,3v373.9h-152V190.9c0-1.7,1.3-3,3-3H357.9 M357.9,182.9h-146c-4.4,0-8,3.6-8,8v373.9 c0,2.8,2.2,5,5,5h152c2.8,0,5-2.2,5-5V190.9C365.9,186.5,362.3,182.9,357.9,182.9z"/></g><g id="Sign_Outline-5"><path d="M228.9,541.7c-1.4,0-2.5-1.1-2.5-2.5V211.6c0-3,2.5-5.5,5.5-5.5H331c3,0,5.5,2.5,5.5,5.5v327.6 c0,1.4-1.1,2.5-2.5,2.5H228.9z" class="st4"/><path d="M331,208.6c1.7,0,3,1.3,3,3v327.6H228.9V211.6c0-1.7,1.3-3,3-3H331 M331,203.6h-99.1c-4.4,0-8,3.6-8,8v327.6 c0,2.8,2.2,5,5,5H334c2.8,0,5-2.2,5-5V211.6C339,207.2,335.4,203.6,331,203.6z"/></g><g id="Sign_Outline-6"><path d="M348.4,398.3c-0.9,0-1.6-0.7-1.6-1.6v-21.9c0-1.9,1.6-3.5,3.5-3.5s3.5,1.6,3.5,3.5v21.9 c0,0.9-0.7,1.6-1.6,1.6L348.4,398.3z" class="st5"/><path d="M350.3,372.8c1.1,0,2,0.9,2,2v21.9c0,0.1-0.1,0.1-0.1,0.1h-3.8c-0.1,0-0.1-0.1-0.1-0.1v-21.9 C348.3,373.7,349.2,372.8,350.3,372.8 M350.3,369.8c-2.8,0-5,2.2-5,5v21.9c0,1.7,1.4,3.1,3.1,3.1c0,0,0,0,0,0h3.8 c1.7,0,3.1-1.4,3.1-3.1c0,0,0,0,0,0v-21.9C355.3,372,353.1,369.8,350.3,369.8L350.3,369.8z"/></g><line x1="365.9" x2="365.9" y1="190.9" y2="563.4" class="st7"/></g><g id="Box_Offices"><g id="Right_Box_Office"><g id="Sign_Dot_Background-3" class="st2"><pattern id="SVGID_3_" class="st2" patternTransform="matrix(0.58 0 0 -0.6 -3272.6201 -12314.4512)" xlink:href="#New_Pattern_Swatch_44-5"/><path d="M553.5,417.4c-1.4,0-2.5-1.1-2.5-2.5v-221c0-4.7,3.8-8.5,8.5-8.5h157.3c4.7,0,8.5,3.8,8.5,8.5v221 c0,1.4-1.1,2.5-2.5,2.5H553.5z" class="st8"/><path d="M716.8,187.9c3.3,0,6,2.7,6,6v221H553.5v-221c0-3.3,2.7-6,6-6H716.8 M716.8,182.9H559.5c-6.1,0-11,4.9-11,11v221 c0,2.8,2.2,5,5,5h169.3c2.8,0,5-2.2,5-5v-221C727.8,187.8,722.9,182.9,716.8,182.9z"/></g><g id="Sign_Outline-7"><path d="M563.6,376.2c-1.4,0-2.5-1.1-2.5-2.5V208.4c0-3,2.5-5.5,5.5-5.5h143.1c3,0,5.5,2.5,5.5,5.5v165.4 c0,1.4-1.1,2.5-2.5,2.5H563.6z" class="st5"/><path d="M709.7,205.4c1.7,0,3,1.3,3,3v165.4H563.6V208.4c0-1.7,1.3-3,3-3H709.7 M709.7,200.4H566.6c-4.4,0-8,3.6-8,8v165.4 c0,2.8,2.2,5,5,5h149.1c2.8,0,5-2.2,5-5V208.4C717.7,204,714.1,200.4,709.7,200.4z"/></g><g id="Sign_Outline-8"><path d="M720.2,188.6c1.7,0,3,1.3,3,3v221.7H553.5V191.6c0-1.7,1.3-3,3-3H720.2 M720.2,183.6H556.5c-4.4,0-8,3.6-8,8v221.7 c0,2.8,2.2,5,5,5h169.7c2.8,0,5-2.2,5-5V191.6C728.2,187.2,724.6,183.6,720.2,183.6z"/></g><pattern id="Sign_Middle_Circle_Outline_1_" patternTransform="matrix(1 0 0 -1 24.14 -15714.7012)" xlink:href="#New_Pattern_Swatch_44-7"/><path id="Sign_Middle_Circle_Outline" d="M683.3,375.3l-87.1-0.4c0,0,2.5-15.4,10.2-24s21.6-11.3,33.4-11.4 c12.4-0.1,24.4,0.9,32.7,10.4C679.1,357.4,683.3,375.3,683.3,375.3z" class="st9"/><pattern id="SVGID_4_" patternTransform="matrix(1 0 0 -1 24.14 -15714.7012)" xlink:href="#New_Pattern_Swatch_44-9"/><circle cx="638.5" cy="277.9" r="28" class="st10"/><g id="Sign_Middle_Circle"><path d="M605,373.8c2.3-5.9,5.6-11.4,9.7-16.2c5.6-6.3,11.8-6.8,20.7-6.8h7.1c11.3,0,16.6,1.5,23.9,9.9 c3.2,3.8,5.3,8.3,6.3,13.2H605z" class="st11"/><path d="M642.4,348.2v5l0,0c10.6,0,15.3,1.3,22,9c2.2,2.6,3.9,5.7,4.9,9h-60.5c2-4.4,4.6-8.4,7.7-12.1c5-5.5,10.4-6,18.8-6h7.1 L642.4,348.2 M642.4,348.2h-7.1c-9,0-16.1,0.5-22.5,7.6c-7.7,8.6-11.4,20.4-11.4,20.4h74c-0.7-6.4-3.2-12.4-7.3-17.3 C660.1,349.8,654,348.2,642.4,348.2L642.4,348.2z"/></g></g><g id="Left_Box_Office"><g id="Sign_Dot_Background-4" class="st2"><pattern id="SVGID_5_" class="st2" patternTransform="matrix(0.58 0 0 -0.6 -3278.3601 -12313.9609)" xlink:href="#New_Pattern_Swatch_44-11"/><path d="M6.5,416.9c-1.4,0-2.5-1.1-2.5-2.5v-221c0-4.7,3.8-8.5,8.5-8.5h157.3c4.7,0,8.5,3.8,8.5,8.5v221 c0,1.4-1.1,2.5-2.5,2.5H6.5z" class="st12"/><path d="M169.8,187.4c3.3,0,6,2.7,6,6v221H6.5v-221c0-3.3,2.7-6,6-6L169.8,187.4 M169.8,182.4H12.5c-6.1,0-11,4.9-11,11v221 c0,2.8,2.2,5,5,5h169.3c2.8,0,5-2.2,5-5v-221C180.8,187.3,175.9,182.4,169.8,182.4z"/></g><g id="Sign_Outline-9"><path d="M16.6,375.8c-1.4,0-2.5-1.1-2.5-2.5V207.9c0-3,2.5-5.5,5.5-5.5h143.1c3,0,5.5,2.5,5.5,5.5v165.4 c0,1.4-1.1,2.5-2.5,2.5H16.6z" class="st5"/><path d="M162.7,204.9c1.7,0,3,1.3,3,3v165.4H16.6V207.9c0-1.7,1.3-3,3-3H162.7 M162.7,199.9H19.6c-4.4,0-8,3.6-8,8v165.4 c0,2.8,2.2,5,5,5h149.1c2.8,0,5-2.2,5-5V207.9C170.7,203.5,167.1,199.9,162.7,199.9z"/></g><g id="Sign_Outline-10"><path d="M173.2,188.1c1.7,0,3,1.3,3,3v221.7H6.5V191.1c0-1.7,1.3-3,3-3H173.2 M173.2,183.1H9.5c-4.4,0-8,3.6-8,8v221.7 c0,2.8,2.2,5,5,5h169.7c2.8,0,5-2.2,5-5V191.1C181.2,186.7,177.6,183.1,173.2,183.1z"/></g><pattern id="Sign_Middle_Circle_Outline-2_1_" patternTransform="matrix(1 0 0 -1 9.14 -15700.2207)" xlink:href="#New_Pattern_Swatch_44-13"/><path id="Sign_Middle_Circle_Outline-2" d="M136.3,374.8l-87.1-0.4c0,0,2.5-15.4,10.2-24S81,339,92.8,338.9 c12.4-0.1,24.4,0.9,32.7,10.4C132.1,356.9,136.3,374.8,136.3,374.8z" class="st13"/><pattern id="SVGID_6_" patternTransform="matrix(1 0 0 -1 9.14 -15700.2109)" xlink:href="#New_Pattern_Swatch_44-15"/><circle cx="91.4" cy="277.4" r="28" class="st14"/><g id="Sign_Middle_Circle-2"><path d="M58,373.3c2.3-5.9,5.6-11.4,9.7-16.2c5.6-6.3,11.8-6.8,20.7-6.8h7.1c11.3,0,16.6,1.5,23.9,9.9 c3.2,3.8,5.3,8.3,6.3,13.2H58z" class="st11"/><path d="M95.4,347.8v5l0,0c10.6,0,15.3,1.3,22,9c2.2,2.6,3.9,5.7,4.9,9H61.8c2-4.4,4.6-8.4,7.7-12.1c5-5.5,10.4-6,18.8-6h7.1 L95.4,347.8 M95.4,347.7h-7.1c-9,0-16.1,0.5-22.5,7.6c-7.7,8.6-11.4,20.4-11.4,20.4h74c-0.7-6.4-3.2-12.4-7.3-17.3 C113.1,349.3,107,347.7,95.4,347.7L95.4,347.7z"/></g></g></g><g id="Door_Signs"><g id="Left_Sign"><path d="M6.5,115h169.7c2.8,0,5,2.2,5,5v41.9c0,2.8-2.2,5-5,5H6.5c-2.8,0-5-2.2-5-5V120C1.5,117.2,3.7,115,6.5,115z" class="st15"/><path d="M17,120h148.4c5,0,9,4,9,9v24c0,5-4,9-9,9H17c-5,0-9-4-9-9v-24C8,124,12,120,17,120z" class="st16"/><text class="st4 st17 st18 st19" transform="matrix(1.07 0 0 1 30.9902 150.8999)">TICKETS</text><text class="st20 st17 st18 st19" transform="matrix(1.07 0 0 1 30.9902 150.8999)">TICKETS</text></g><g id="Left_Sign-2"><path d="M554.9,118h169.7c2.8,0,5,2.2,5,5v41.9c0,2.8-2.2,5-5,5H554.9c-2.8,0-5-2.2-5-5V123 C549.9,120.2,552.1,118,554.9,118z" class="st15"/><path d="M565.4,123h148.4c5,0,9,4,9,9v24c0,5-4,9-9,9H565.4c-5,0-9-4-9-9v-24C556.4,127,560.4,123,565.4,123z" class="st16"/><text class="st4 st17 st18 st19" transform="matrix(1.07 0 0 1 579.3906 153.8999)">TICKETS</text><text class="st20 st17 st18 st19" transform="matrix(1.07 0 0 1 579.3906 153.8999)">TICKETS</text></g></g><g id="Sign"><g id="Right_Side_Decorations"><path d="M329.2,113.4l104.9-76.9c0,0-18.5-80-89.2,29.1C319.4,105,329.2,113.4,329.2,113.4z" class="st21"/><path d="M346.8,118.2l128.6-50.6c0,0,4.6-82-93.7,3C346.1,101.2,346.8,118.2,346.8,118.2z" class="st21"/><path d="M357.9,116.5l152.6-17.6c0,0,23.5-78.7-91.9-18.9C376.9,101.6,357.9,116.5,357.9,116.5z" class="st21"/><pattern id="SVGID_7_" patternTransform="matrix(-0.67 0 0 -0.66 -13067.3604 -12825.0049)" xlink:href="#New_Pattern_Swatch_44-17"/><path d="M361.6,116.7l142.2-17c0,0,22.4-72.2-85.4-16.8C379.4,103,361.6,116.7,361.6,116.7z" class="st22"/><path d="M359.8,116.5h170.1c0,0,42.6-38.5-85.9-19C415.6,101.9,387.4,108.2,359.8,116.5z" class="st21"/><pattern id="SVGID_8_" patternTransform="matrix(-0.6 5.000000e-02 5.000000e-02 -0.61 -12066.0352 -12016.8701)" xlink:href="#New_Pattern_Swatch_44-19"/><path d="M333.7,105l93-72.8c0,0-10-66.9-76.6,30.9C326.1,98.5,333.7,105,333.7,105z" class="st23"/></g><g id="Right_Side_Decorations-2"><path d="M430.3,114.4l-80.6-90c0,0,36.6-73.5,80,49C445.4,117.7,430.3,114.4,430.3,114.4z" class="st21"/><path d="M408.6,110.3L303.7,33.4c0,0,18.5-80,89.2,29.1C418.4,101.8,408.6,110.3,408.6,110.3z" class="st21"/><path d="M391,115L262.4,64.4c0,0-4.6-82,93.7,3C391.7,98.1,391,115,391,115z" class="st21"/><path d="M379.9,113.3L227.3,95.8c0,0-23.6-78.7,91.8-18.9C360.9,98.4,379.9,113.3,379.9,113.3z" class="st21"/><pattern id="SVGID_9_" patternTransform="matrix(0.67 0 0 -0.66 -2575.4199 -12812.8252)" xlink:href="#New_Pattern_Swatch_44-21"/><path d="M376.2,113.6L234,96.6c0,0-22.4-72.2,85.4-16.8C358.4,99.8,376.2,113.6,376.2,113.6z" class="st24"/><path d="M378,113.3H207.9c0,0-42.6-38.5,85.9-19C322.2,98.7,350.4,105.1,378,113.3z" class="st21"/><pattern id="SVGID_10_" patternTransform="matrix(0.6 5.000000e-02 -5.000000e-02 -0.61 -3559.4048 -12008.3594)" xlink:href="#New_Pattern_Swatch_44-23"/><path d="M404.1,101.8l-93-72.8c0,0,10-66.9,76.6,30.9C411.7,95.3,404.1,101.8,404.1,101.8z" class="st25"/></g><path d="M527.1,114.9v54l-321-1v-52.5c0,0,71.9-53.5,160.5-53.5S527.1,114.9,527.1,114.9z" class="st16"/><path d="M507.9,126.9v30H222.1v-26c0,0,80.7-53,144.5-53S507.9,126.9,507.9,126.9z" class="st26"/></g></svg>