<?xml version="1.0" encoding="utf-8"?>
<!-- Generator: Adobe Illustrator 21.0.2, SVG Export Plug-In . SVG Version: 6.00 Build 0)  -->
<svg version="1.1" xmlns="http://www.w3.org/2000/svg" xmlns:xlink="http://www.w3.org/1999/xlink" x="0px" y="0px"
	 viewBox="0 0 778 399.9" style="enable-background:new 0 0 778 399.9;" xml:space="preserve">
<style type="text/css">
	.st0{fill:none;}
	.st1{fill:#666666;}
	.st2{fill:#999999;}
	.st3{display:none;}
	.st4{display:inline;}
	.st5{fill:#FFFFFF;}
	.st6{opacity:0.46;}
	.st7{fill:url(#New_Pattern_Swatch_23);}
	.st8{fill:none;stroke:#000000;stroke-width:5;stroke-linecap:round;stroke-linejoin:round;stroke-miterlimit:10;}
	.st9{fill:#C1272D;stroke:#000000;stroke-width:5;stroke-linecap:round;stroke-linejoin:round;stroke-miterlimit:10;}
	.st10{fill:url(#SVGID_1_);}
	.st11{fill:url(#SVGID_2_);}
	.st12{fill:url(#New_Pattern_Swatch_44);}
	.st13{fill:#FFFFFF;stroke:#000000;stroke-width:5;stroke-linecap:round;stroke-linejoin:round;stroke-miterlimit:10;}
	.st14{opacity:0.49;fill:url(#SVGID_3_);}
	.st15{opacity:0.49;fill:url(#SVGID_4_);}
	.st16{opacity:0.49;fill:url(#SVGID_5_);}
	.st17{opacity:0.49;fill:url(#SVGID_6_);}
	
		.st18{fill:url(#New_Pattern_Swatch_44);stroke:#000000;stroke-width:5;stroke-linecap:round;stroke-linejoin:round;stroke-miterlimit:10;}
	.st19{fill:#BF2121;}
	.st20{opacity:0.49;}
	.st21{font-family:'Oswald-Medium';}
	.st22{font-size:102.1153px;}
	.st23{font-family:'Oswald-Light';}
	.st24{fill:#FFFFFF;stroke:#231F20;stroke-width:2;stroke-linecap:round;stroke-miterlimit:10;}
	.st25{display:none;opacity:0.26;}
	.st26{display:inline;fill:url(#New_Pattern_Swatch_23);}
</style>
<pattern  x="-147.8" y="-15" width="10" height="10" patternUnits="userSpaceOnUse" id="New_Pattern_Swatch_23" viewBox="0 -10 10 10" style="overflow:visible;">
	<g>
		<rect y="-10" class="st0" width="10" height="10"/>
		<circle class="st1" cx="5" cy="-5" r="1"/>
		<path class="st1" d="M10-9v-1H9C9-9.4,9.4-9,10-9z"/>
		<path class="st1" d="M1-10H0v1h0C0.6-9,1-9.4,1-10z"/>
		<path class="st1" d="M10-1C9.4-1,9-0.6,9,0h1V-1z"/>
		<path class="st1" d="M0-1L0-1l0,1h1C1-0.6,0.6-1,0-1z"/>
	</g>
</pattern>
<pattern  x="-147.8" y="-15" width="14" height="14" patternUnits="userSpaceOnUse" id="New_Pattern_Swatch_44" viewBox="0 -14 14 14" style="overflow:visible;">
	<g>
		<rect y="-14" class="st0" width="14" height="14"/>
		<circle class="st2" cx="7" cy="-7" r="1.4"/>
		<path class="st2" d="M14-12.6V-14h-1.4C12.6-13.2,13.2-12.6,14-12.6z"/>
		<path class="st2" d="M1.4-14H0v1.4h0C0.8-12.6,1.4-13.2,1.4-14z"/>
		<path class="st2" d="M14-1.4c-0.8,0-1.4,0.6-1.4,1.4H14V-1.4z"/>
		<path class="st2" d="M0-1.4L0-1.4L0,0h1.4C1.4-0.8,0.8-1.4,0-1.4z"/>
	</g>
</pattern>
<g id="Layer_1" class="st3">
	<g class="st4">
		<g>
			<rect x="-147.8" y="-15" class="st5" width="1024" height="1280"/>
			<path class="st5" d="M875.2-14v1278h-1022V-14H875.2 M876.2-15h-1024v1280h1024V-15L876.2-15z"/>
		</g>
	</g>
	<g class="st4">
		<g class="st6">
			<rect x="-147.8" y="-15" class="st7" width="1024" height="1280"/>
		</g>
	</g>
	<g class="st4">
		<g>
			<rect x="-147.8" y="-15" class="st8" width="1024" height="1280"/>
			<path class="st8" d="M875.2-14v1278h-1022V-14H875.2 M876.2-15h-1024v1280h1024V-15L876.2-15z"/>
		</g>
	</g>
</g>
<g id="Sign">
	<g>
		<path class="st9" d="M379.1,101.6l80.6,24.5c0,0,11.3-43.1,11.8-69.2c0.5-26.1-9.9-37.5-20.7-41.3c-11.3-3.9-23.3-4.8-39.2,18.9
			C398.7,53.5,379.1,101.6,379.1,101.6z"/>
		<g>
			<path class="st5" d="M388.7,105c2.6-6.9,10.6-27.3,20.8-42.5c12.4-18.4,18.5-22.1,24.2-22.1c2,0,4.2,0.5,7.2,1.5
				c1.3,0.4,2.5,0.8,3.7,1.2c8.7,2.7,14.5,4.5,14.1,25.7c-0.4,21.3-5.3,47.9-6.9,56.4L388.7,105z"/>
			<g>
				<path d="M433.8,42.9c1.7,0,3.7,0.4,6.3,1.3c1.3,0.5,2.5,0.8,3.8,1.2c4.5,1.4,7.2,2.3,9,4.7c2.4,3.2,3.5,9.3,3.3,18.6
					c-0.4,19.2-4.4,42.7-6.4,53.2L392,103.4c3.2-8.4,10.6-26.1,19.6-39.5C420.1,51.3,427.1,42.9,433.8,42.9 M433.8,37.9
					c-7.5,0-14.4,5.5-26.3,23.2c-12.8,18.9-22,45.5-22,45.5l68.2,21.8c0,0,7-33.5,7.5-59.5s-8.6-25.6-19.4-29.3
					C438.9,38.5,436.3,37.9,433.8,37.9L433.8,37.9z"/>
			</g>
		</g>
		<g>
			
				<pattern  id="SVGID_1_" xlink:href="#New_Pattern_Swatch_44" patternTransform="matrix(-0.3185 -0.102 -0.3049 0.9524 -12123.3779 -1119.8347)">
			</pattern>
			<path class="st10" d="M388.7,105c2.6-6.9,10.6-27.3,20.8-42.5c12.4-18.4,18.5-22.1,24.2-22.1c2,0,4.2,0.5,7.2,1.5
				c1.3,0.4,2.5,0.8,3.7,1.2c8.7,2.7,14.5,4.5,14.1,25.7c-0.4,21.3-5.3,47.9-6.9,56.4L388.7,105z"/>
			<g>
				<path d="M433.8,42.9c1.7,0,3.7,0.4,6.3,1.3c1.3,0.5,2.5,0.8,3.8,1.2c4.5,1.4,7.2,2.3,9,4.7c2.4,3.2,3.5,9.3,3.3,18.6
					c-0.4,19.2-4.4,42.7-6.4,53.2L392,103.4c3.2-8.4,10.6-26.1,19.6-39.5C420.1,51.3,427.1,42.9,433.8,42.9 M433.8,37.9
					c-7.5,0-14.4,5.5-26.3,23.2c-12.8,18.9-22,45.5-22,45.5l68.2,21.8c0,0,7-33.5,7.5-59.5s-8.6-25.6-19.4-29.3
					C438.9,38.5,436.3,37.9,433.8,37.9L433.8,37.9z"/>
			</g>
		</g>
	</g>
	<g>
		<path class="st9" d="M396.9,101.6l-80.6,24.5c0,0-11.3-43.1-11.8-69.2s9.9-37.5,20.7-41.3c11.3-3.9,23.3-4.8,39.2,18.9
			C377.2,53.5,396.9,101.6,396.9,101.6z"/>
		<g>
			<path class="st5" d="M324.2,125.1c-1.7-8.5-6.5-35.1-6.9-56.4c-0.4-21.3,5.3-23,14.1-25.7c1.2-0.4,2.4-0.7,3.7-1.2
				c3-1,5.2-1.5,7.2-1.5c5.8,0,11.8,3.7,24.2,22.1c10.2,15.2,18.2,35.6,20.8,42.5L324.2,125.1z"/>
			<g>
				<path d="M342.2,37.9v5c4.8,0,10.4,3.6,22.2,21c9.1,13.4,16.4,31.1,19.6,39.5l-57.8,18.5c-2-10.5-6-34-6.3-53.2
					c-0.2-9.3,0.9-15.4,3.3-18.6c1.8-2.4,4.5-3.3,9-4.7c1.2-0.4,2.4-0.8,3.8-1.2c2.7-0.9,4.6-1.3,6.3-1.3L342.2,37.9 M342.2,37.9
					c-2.5,0-5.1,0.6-8,1.6c-10.8,3.8-19.9,3.2-19.4,29.3c0.5,26.1,7.5,59.5,7.5,59.5l68.2-21.8c0,0-9.2-26.5-22-45.5
					C356.6,43.4,349.7,37.9,342.2,37.9L342.2,37.9z"/>
			</g>
		</g>
		<g>
			
				<pattern  id="SVGID_2_" xlink:href="#New_Pattern_Swatch_44" patternTransform="matrix(0.3185 -0.102 0.3049 0.9524 -2934.3481 -1109.6093)">
			</pattern>
			<path class="st11" d="M324.2,125.1c-1.7-8.5-6.5-35.1-6.9-56.4c-0.4-21.3,5.3-23,14.1-25.7c1.2-0.4,2.4-0.7,3.7-1.2
				c3-1,5.2-1.5,7.2-1.5c5.8,0,11.8,3.7,24.2,22.1c10.2,15.2,18.2,35.6,20.8,42.5L324.2,125.1z"/>
			<g>
				<path d="M342.2,37.9v5c4.8,0,10.4,3.6,22.2,21c9.1,13.4,16.4,31.1,19.6,39.5l-57.8,18.5c-2-10.5-6-34-6.3-53.2
					c-0.2-9.3,0.9-15.4,3.3-18.6c1.8-2.4,4.5-3.3,9-4.7c1.2-0.4,2.4-0.8,3.8-1.2c2.7-0.9,4.6-1.3,6.3-1.3L342.2,37.9 M342.2,37.9
					c-2.5,0-5.1,0.6-8,1.6c-10.8,3.8-19.9,3.2-19.4,29.3c0.5,26.1,7.5,59.5,7.5,59.5l68.2-21.8c0,0-9.2-26.5-22-45.5
					C356.6,43.4,349.7,37.9,342.2,37.9L342.2,37.9z"/>
			</g>
		</g>
	</g>
	<g>
		<path class="st9" d="M343.2,109.6l84.2,0.6c0,0-1.4-44.5-8.3-69.7S399,7.3,387.6,6.8c-12-0.6-23.7,2-32.3,29.3
			C348.4,57.9,343.2,109.6,343.2,109.6z"/>
		<g>
			<path class="st5" d="M353.8,110.1c0.5-7.4,2.4-29.2,7.9-46.6c7.8-24.7,13-28.7,22.3-28.7c0.6,0,1.3,0,1.9,0
				c1.3,0.1,2.6,0.1,3.8,0.1c9.1,0.1,15.1,0.2,20.8,20.7c5.6,20.5,8.5,47.4,9.3,56L353.8,110.1z"/>
			<g>
				<path d="M384,37.2c0.6,0,1.2,0,1.8,0c1.4,0.1,2.7,0.1,3.9,0.1c4.7,0.1,7.5,0.2,10,2c3.2,2.4,6,7.9,8.4,16.9
					c5.1,18.5,7.9,42.2,9,52.8l-60.7-1.4c0.7-9,2.7-28,7.6-43.4c3.8-11.9,7.1-19.2,10.4-23.1C377,38.2,379.5,37.2,384,37.2
					 M384,32.2c-10.7,0-16.6,4.8-24.7,30.5c-6.9,21.8-8.2,49.8-8.2,49.8l71.5,1.6c0,0-2.8-34.1-9.7-59.2
					c-6.9-25.2-15.5-22.1-26.9-22.6C385.4,32.2,384.7,32.2,384,32.2L384,32.2z"/>
			</g>
		</g>
		<g>
			<path class="st12" d="M353.4,110.1c0.5-7.4,2.4-29.2,7.9-46.6c7.8-24.7,13-28.7,22.3-28.7c0.6,0,1.3,0,1.9,0
				c1.3,0.1,2.6,0.1,3.8,0.1c9.1,0.1,15.1,0.2,20.8,20.7c5.6,20.5,8.5,47.4,9.3,56L353.4,110.1z"/>
			<g>
				<path d="M383.7,37.2c0.6,0,1.2,0,1.8,0c1.4,0.1,2.7,0.1,3.9,0.1c4.7,0.1,7.5,0.2,10,2c3.2,2.4,6,7.9,8.4,16.9
					c5.1,18.5,7.9,42.2,9,52.8l-60.7-1.4c0.7-9,2.7-28,7.6-43.4c3.8-11.9,7.1-19.2,10.4-23.1C376.6,38.2,379.1,37.2,383.7,37.2
					 M383.7,32.2c-10.7,0-16.6,4.8-24.7,30.5c-6.9,21.8-8.2,49.8-8.2,49.8l71.5,1.6c0,0-2.8-34.1-9.7-59.2
					c-6.9-25.2-15.5-22.1-26.9-22.6C385,32.2,384.3,32.2,383.7,32.2L383.7,32.2z"/>
			</g>
		</g>
	</g>
	<g id="Left_Sign_Decorations">
		<path class="st13" d="M338,179.4L225.6,53.8c0,0,51.1-102.5,111.6,68.4C359,183.9,338,179.4,338,179.4z"/>
		<path class="st13" d="M307.7,173.7L161.3,66.3c0,0,25.8-111.6,124.4,40.6C321.4,161.9,307.7,173.7,307.7,173.7z"/>
		<path class="st13" d="M283.2,180.2l-179.5-70.6c0,0-6.4-114.4,130.8,4.1C284.1,156.6,283.2,180.2,283.2,180.2z"/>
		<path class="st13" d="M267.6,177.9L54.7,153.4c0,0-32.9-109.7,128.2-26.4C241.1,157.1,267.6,177.9,267.6,177.9z"/>
		
			<pattern  id="SVGID_3_" xlink:href="#New_Pattern_Swatch_44" patternTransform="matrix(0.9098 1.492167e-03 1.492167e-03 0.9059 -667.0662 -658.9608)">
		</pattern>
		<path class="st14" d="M252.3,175.3L58.6,152.8c0,0-30.1-99.5,116.6-23.7C228.2,156.4,252.3,175.3,252.3,175.3z"/>
		<path class="st13" d="M265,177.9H27.6c0,0-59.4-53.7,119.9-26.5C212.2,161.3,265,177.9,265,177.9z"/>
		
			<pattern  id="SVGID_4_" xlink:href="#New_Pattern_Swatch_44" patternTransform="matrix(0.8483 -1.564266e-02 -1.564266e-02 0.8446 -1246.2755 -1233.6143)">
		</pattern>
		<path class="st15" d="M290.9,150.1L168.4,61.7c0,0,23.7-94.7,104.9,32.3C302.7,140,290.9,150.1,290.9,150.1z"/>
	</g>
	<g id="Right_Side_Decorations">
		<path class="st13" d="M438.5,179L551,53.4c0,0-51.1-102.5-111.6,68.4C417.5,183.5,438.5,179,438.5,179z"/>
		<path class="st13" d="M468.9,173.3L615.2,65.9c0,0-25.8-111.6-124.4,40.6C455.1,161.5,468.9,173.3,468.9,173.3z"/>
		<path class="st13" d="M493.4,179.8l179.5-70.6c0,0,6.4-114.4-130.8,4.1C492.4,156.2,493.4,179.8,493.4,179.8z"/>
		<path class="st13" d="M508.9,177.5L721.8,153c0,0,32.9-109.7-128.2-26.4C535.4,156.7,508.9,177.5,508.9,177.5z"/>
		
			<pattern  id="SVGID_5_" xlink:href="#New_Pattern_Swatch_44" patternTransform="matrix(-0.9314 5.718965e-03 -5.718965e-03 0.9165 -14593.1123 -548.7381)">
		</pattern>
		<path class="st16" d="M514.1,177.9l198.4-23.7c0,0,31.2-100.8-119.2-23.5C538.9,158.7,514.1,177.9,514.1,177.9z"/>
		<path class="st13" d="M511.6,177.5h237.4c0,0,59.4-53.7-119.9-26.5C564.3,160.9,511.6,177.5,511.6,177.5z"/>
		
			<pattern  id="SVGID_6_" xlink:href="#New_Pattern_Swatch_44" patternTransform="matrix(-0.8363 6.890945e-02 -6.890945e-02 0.8529 -14303.127 -530.28)">
		</pattern>
		<path class="st17" d="M475.2,161.5L604.9,59.8c0,0-13.9-93.4-106.8,43.2C464.5,152.4,475.2,161.5,475.2,161.5z"/>
	</g>
	<path class="st18" d="M513.3,180.2L261.5,179c0,0,7.3-44.5,29.6-69.5c22.3-25,62.4-32.7,96.5-33c35.9-0.3,70.6,2.6,94.5,30
		C501.2,128.4,513.3,180.2,513.3,180.2z"/>
	<path class="st13" d="M514.9,180.2L263.1,179c0,0,7.3-44.5,29.6-69.5c22.3-25,62.4-32.7,96.5-33c35.9-0.3,70.6,2.6,94.5,30
		C502.8,128.4,514.9,180.2,514.9,180.2z"/>
	<g>
		<path class="st19" d="M281.7,180.5c3.2-9,13.5-35,31.2-54.8c17.6-19.7,37.3-21.2,63.3-21.2c1.8,0,3.7,0,5.6,0c2,0,3.9,0,6,0
			c1.8,0,3.5,0,5.3,0c1.2,0,2.4,0,3.5,0c32.6,0,49.9,4.2,72.6,30.2c14.9,17.1,19.1,38.4,20.2,45.9H281.7z"/>
		<g>
			<path d="M396.7,107c15.5,0,28.1,0.9,39.4,5.2c10.8,4.2,20.4,11.6,31.3,24.1c12.9,14.8,17.6,32.9,19.2,41.7H285.3
				c4.1-10.8,13.9-33.2,29.5-50.7c16.9-18.9,35.3-20.3,61.4-20.3c1.8,0,3.7,0,5.6,0c2,0,3.9,0,6,0c1.8,0,3.5,0,5.3,0
				C394.3,107,395.5,107,396.7,107L396.7,107 M396.7,102c-1.2,0-2.4,0-3.6,0c-1.8,0-3.6,0-5.3,0c-4,0-7.8,0-11.6,0
				c-25.9,0-46.6,1.3-65.1,22c-22.3,25-32.9,59-32.9,59h214c0,0-2-28.1-21.1-50C448,106.5,430.2,102,396.7,102L396.7,102z"/>
		</g>
	</g>
	<g class="st20">
		<path class="st12" d="M19.3,396.5c-10.2,0-18.6-8.3-18.6-18.6V198.1c0-10.2,8.3-18.6,18.6-18.6h735.8c10.2,0,18.6,8.3,18.6,18.6
			v179.8c0,10.2-8.3,18.6-18.6,18.6H19.3z"/>
		<path d="M755.1,182c8.9,0,16.1,7.2,16.1,16.1v179.8c0,8.9-7.2,16.1-16.1,16.1H19.3c-8.9,0-16.1-7.2-16.1-16.1V198.1
			c0-8.9,7.2-16.1,16.1-16.1H755.1 M755.1,177H19.3c-11.6,0-21.1,9.4-21.1,21.1v179.8c0,11.6,9.4,21.1,21.1,21.1h735.8
			c11.6,0,21.1-9.4,21.1-21.1V198.1C776.2,186.4,766.8,177,755.1,177L755.1,177z"/>
	</g>
	<g>
		<path class="st19" d="M65.1,359.5c-10.2,0-18.6-8.3-18.6-18.6V235.1c0-10.2,8.3-18.6,18.6-18.6h647c10.2,0,18.6,8.3,18.6,18.6
			v105.8c0,10.2-8.3,18.6-18.6,18.6H65.1z"/>
		<path d="M712.1,219c8.9,0,16.1,7.2,16.1,16.1v105.8c0,8.9-7.2,16.1-16.1,16.1h-647c-8.9,0-16.1-7.2-16.1-16.1V235.1
			c0-8.9,7.2-16.1,16.1-16.1H712.1 M712.1,214h-647c-11.6,0-21.1,9.4-21.1,21.1v105.8c0,11.6,9.4,21.1,21.1,21.1h647
			c11.6,0,21.1-9.4,21.1-21.1V235.1C733.2,223.4,723.8,214,712.1,214L712.1,214z"/>
	</g>
	<g>
		<path d="M756.9,182.9c8.9,0,16.1,7.2,16.1,16.1v179.8c0,8.9-7.2,16.1-16.1,16.1H21.1c-8.9,0-16.1-7.2-16.1-16.1V199
			c0-8.9,7.2-16.1,16.1-16.1H756.9 M756.9,177.9H21.1C9.4,177.9,0,187.3,0,199v179.8c0,11.6,9.4,21.1,21.1,21.1h735.8
			c11.6,0,21.1-9.4,21.1-21.1V199C778,187.3,768.6,177.9,756.9,177.9L756.9,177.9z"/>
	</g>
	<g id="Text">
		<text transform="matrix(1 0 0 1 145.4999 322.3037)"><tspan x="0" y="0" class="st5 st21 st22">Musical</tspan><tspan x="301.1" y="0" class="st5 st23 st22">Picks</tspan></text>
	</g>
</g>
<g id="Lights_1_">
	<g id="Lights">
		<g>
			
				<ellipse transform="matrix(7.556108e-03 -1 1 7.556108e-03 344.3472 747.75)" class="st24" cx="548.9" cy="200.4" rx="8.3" ry="8.5"/>
			
				<ellipse transform="matrix(7.556108e-03 -1 1 7.556108e-03 375.8627 779.9882)" class="st24" cx="580.9" cy="200.6" rx="8.3" ry="8.5"/>
			
				<ellipse transform="matrix(7.556108e-03 -1 1 7.556108e-03 407.3782 812.2263)" class="st24" cx="612.9" cy="200.9" rx="8.3" ry="8.5"/>
			
				<ellipse transform="matrix(7.556108e-03 -1 1 7.556108e-03 438.8937 844.4645)" class="st24" cx="644.9" cy="201.1" rx="8.3" ry="8.5"/>
			
				<ellipse transform="matrix(7.556108e-03 -1 1 7.556108e-03 470.4092 876.7026)" class="st24" cx="676.9" cy="201.4" rx="8.3" ry="8.5"/>
			
				<ellipse transform="matrix(7.556108e-03 -1 1 7.556108e-03 501.9247 908.9407)" class="st24" cx="708.9" cy="201.6" rx="8.3" ry="8.5"/>
			
				<ellipse transform="matrix(7.556108e-03 -1 1 7.556108e-03 152.813 552.7631)" class="st24" cx="354.9" cy="199.4" rx="8.3" ry="8.5"/>
			
				<ellipse transform="matrix(7.556108e-03 -1 1 7.556108e-03 184.3285 585.0013)" class="st24" cx="386.9" cy="199.6" rx="8.3" ry="8.5"/>
			
				<ellipse transform="matrix(7.556108e-03 -1 1 7.556108e-03 215.8441 617.2394)" class="st24" cx="418.9" cy="199.9" rx="8.3" ry="8.5"/>
			
				<ellipse transform="matrix(7.556108e-03 -1 1 7.556108e-03 247.3596 649.4775)" class="st24" cx="450.9" cy="200.1" rx="8.3" ry="8.5"/>
			
				<ellipse transform="matrix(7.556108e-03 -1 1 7.556108e-03 278.8751 681.7157)" class="st24" cx="482.9" cy="200.4" rx="8.3" ry="8.5"/>
			
				<ellipse transform="matrix(7.556108e-03 -1 1 7.556108e-03 310.3906 713.9538)" class="st24" cx="514.9" cy="200.6" rx="8.3" ry="8.5"/>
			
				<ellipse transform="matrix(7.556108e-03 -1 1 7.556108e-03 -36.7438 361.7686)" class="st24" cx="163.9" cy="199.4" rx="8.3" ry="8.5"/>
			
				<ellipse transform="matrix(7.556108e-03 -1 1 7.556108e-03 -5.2282 394.0067)" class="st24" cx="195.9" cy="199.6" rx="8.3" ry="8.5"/>
			
				<ellipse transform="matrix(7.556108e-03 -1 1 7.556108e-03 26.2873 426.2448)" class="st24" cx="227.9" cy="199.9" rx="8.3" ry="8.5"/>
			
				<ellipse transform="matrix(7.556108e-03 -1 1 7.556108e-03 57.8028 458.483)" class="st24" cx="259.9" cy="200.1" rx="8.3" ry="8.5"/>
			
				<ellipse transform="matrix(7.556108e-03 -1 1 7.556108e-03 89.3183 490.7211)" class="st24" cx="291.9" cy="200.4" rx="8.3" ry="8.5"/>
			
				<ellipse transform="matrix(7.556108e-03 -1 1 7.556108e-03 120.8338 522.9593)" class="st24" cx="323.9" cy="200.6" rx="8.3" ry="8.5"/>
			
				<ellipse transform="matrix(7.556108e-03 -1 1 7.556108e-03 -133.7314 263.4961)" class="st24" cx="65.9" cy="199.1" rx="8.3" ry="8.5"/>
			
				<ellipse transform="matrix(7.556108e-03 -1 1 7.556108e-03 -102.2159 295.7342)" class="st24" cx="97.9" cy="199.4" rx="8.3" ry="8.5"/>
			
				<ellipse transform="matrix(7.556108e-03 -1 1 7.556108e-03 -70.7003 327.9724)" class="st24" cx="129.9" cy="199.6" rx="8.3" ry="8.5"/>
		</g>
		<g>
			<ellipse class="st24" cx="751.9" cy="360" rx="8.3" ry="8.5"/>
			<ellipse class="st24" cx="751.9" cy="328" rx="8.3" ry="8.5"/>
			<ellipse class="st24" cx="751.9" cy="296" rx="8.3" ry="8.5"/>
			<ellipse class="st24" cx="751.9" cy="264" rx="8.3" ry="8.5"/>
			<ellipse class="st24" cx="751.9" cy="232" rx="8.3" ry="8.5"/>
			<ellipse class="st24" cx="743.9" cy="204" rx="8.3" ry="8.5"/>
		</g>
		<g>
			
				<ellipse transform="matrix(7.556108e-03 -1 1 7.556108e-03 166.3447 926.3975)" class="st24" cx="549.9" cy="379.4" rx="8.3" ry="8.5"/>
			
				<ellipse transform="matrix(7.556108e-03 -1 1 7.556108e-03 197.8602 958.6356)" class="st24" cx="581.9" cy="379.6" rx="8.3" ry="8.5"/>
			
				<ellipse transform="matrix(7.556108e-03 -1 1 7.556108e-03 229.3757 990.8737)" class="st24" cx="613.9" cy="379.9" rx="8.3" ry="8.5"/>
			
				<ellipse transform="matrix(7.556108e-03 -1 1 7.556108e-03 260.8913 1023.1119)" class="st24" cx="645.9" cy="380.1" rx="8.3" ry="8.5"/>
			
				<ellipse transform="matrix(7.556108e-03 -1 1 7.556108e-03 292.4068 1055.35)" class="st24" cx="677.9" cy="380.4" rx="8.3" ry="8.5"/>
			
				<ellipse transform="matrix(7.556108e-03 -1 1 7.556108e-03 323.9223 1087.5881)" class="st24" cx="709.9" cy="380.6" rx="8.3" ry="8.5"/>
			
				<ellipse transform="matrix(7.556108e-03 -1 1 7.556108e-03 350.7258 1112.595)" class="st24" cx="735.9" cy="379.6" rx="8.3" ry="8.5"/>
			
				<ellipse transform="matrix(7.556108e-03 -1 1 7.556108e-03 -25.1894 731.4105)" class="st24" cx="355.9" cy="378.4" rx="8.3" ry="8.5"/>
			
				<ellipse transform="matrix(7.556108e-03 -1 1 7.556108e-03 6.3261 763.6487)" class="st24" cx="387.9" cy="378.6" rx="8.3" ry="8.5"/>
			
				<ellipse transform="matrix(7.556108e-03 -1 1 7.556108e-03 37.8416 795.8868)" class="st24" cx="419.9" cy="378.9" rx="8.3" ry="8.5"/>
			
				<ellipse transform="matrix(7.556108e-03 -1 1 7.556108e-03 69.3571 828.125)" class="st24" cx="451.9" cy="379.1" rx="8.3" ry="8.5"/>
			
				<ellipse transform="matrix(7.556108e-03 -1 1 7.556108e-03 100.8726 860.3631)" class="st24" cx="483.9" cy="379.4" rx="8.3" ry="8.5"/>
			
				<ellipse transform="matrix(7.556108e-03 -1 1 7.556108e-03 132.3881 892.6013)" class="st24" cx="515.9" cy="379.6" rx="8.3" ry="8.5"/>
			
				<ellipse transform="matrix(7.556108e-03 -1 1 7.556108e-03 -214.7462 540.416)" class="st24" cx="164.9" cy="378.4" rx="8.3" ry="8.5"/>
			
				<ellipse transform="matrix(7.556108e-03 -1 1 7.556108e-03 -183.2307 572.6541)" class="st24" cx="196.9" cy="378.6" rx="8.3" ry="8.5"/>
			
				<ellipse transform="matrix(7.556108e-03 -1 1 7.556108e-03 -151.7152 604.8923)" class="st24" cx="228.9" cy="378.9" rx="8.3" ry="8.5"/>
			
				<ellipse transform="matrix(7.556108e-03 -1 1 7.556108e-03 -120.1997 637.1304)" class="st24" cx="260.9" cy="379.1" rx="8.3" ry="8.5"/>
			
				<ellipse transform="matrix(7.556108e-03 -1 1 7.556108e-03 -88.6842 669.3686)" class="st24" cx="292.9" cy="379.4" rx="8.3" ry="8.5"/>
			
				<ellipse transform="matrix(7.556108e-03 -1 1 7.556108e-03 -57.1687 701.6067)" class="st24" cx="324.9" cy="379.6" rx="8.3" ry="8.5"/>
			
				<ellipse transform="matrix(7.556108e-03 -1 1 7.556108e-03 -311.7338 442.1435)" class="st24" cx="66.9" cy="378.1" rx="8.3" ry="8.5"/>
			
				<ellipse transform="matrix(7.556108e-03 -1 1 7.556108e-03 -280.2183 474.3817)" class="st24" cx="98.9" cy="378.4" rx="8.3" ry="8.5"/>
			
				<ellipse transform="matrix(7.556108e-03 -1 1 7.556108e-03 -248.7028 506.6198)" class="st24" cx="130.9" cy="378.6" rx="8.3" ry="8.5"/>
		</g>
		<g>
			<ellipse class="st24" cx="23.9" cy="360" rx="8.3" ry="8.5"/>
			<ellipse class="st24" cx="35.9" cy="379" rx="8.3" ry="8.5"/>
			<ellipse class="st24" cx="23.9" cy="328" rx="8.3" ry="8.5"/>
			<ellipse class="st24" cx="23.9" cy="296" rx="8.3" ry="8.5"/>
			<ellipse class="st24" cx="23.9" cy="264" rx="8.3" ry="8.5"/>
			<ellipse class="st24" cx="23.9" cy="232" rx="8.3" ry="8.5"/>
			<ellipse class="st24" cx="31.9" cy="204" rx="8.3" ry="8.5"/>
		</g>
	</g>
</g>
<g id="Layer_4">
	<g class="st25">
		<path class="st26" d="M65.4,359.5c-10.2,0-18.6-8.3-18.6-18.6V235.1c0-10.2,8.3-18.6,18.6-18.6h647c10.2,0,18.6,8.3,18.6,18.6
			v105.8c0,10.2-8.3,18.6-18.6,18.6H65.4z"/>
		<path class="st4" d="M712.4,219c8.9,0,16.1,7.2,16.1,16.1v105.8c0,8.9-7.2,16.1-16.1,16.1h-647c-8.9,0-16.1-7.2-16.1-16.1V235.1
			c0-8.9,7.2-16.1,16.1-16.1H712.4 M712.4,214h-647c-11.6,0-21.1,9.4-21.1,21.1v105.8c0,11.6,9.4,21.1,21.1,21.1h647
			c11.6,0,21.1-9.4,21.1-21.1V235.1C733.5,223.4,724,214,712.4,214L712.4,214z"/>
	</g>
</g>
</svg>
